<?xml version="1.0" encoding="UTF-8" standalone="no"?>
<!DOCTYPE svg PUBLIC "-//W3C//DTD SVG 1.1//EN"
 "http://www.w3.org/Graphics/SVG/1.1/DTD/svg11.dtd">
<!-- Generated by graphviz version 2.49.1 (20211004.0028)
 -->
<!-- Pages: 1 -->
<svg width="488pt" height="260pt"
 viewBox="0.00 0.00 487.64 260.00" xmlns="http://www.w3.org/2000/svg" xmlns:xlink="http://www.w3.org/1999/xlink">
<g id="graph0" class="graph" transform="scale(1 1) rotate(0) translate(4 256)">
<polygon fill="white" stroke="transparent" points="-4,4 -4,-256 483.64,-256 483.64,4 -4,4"/>
<!-- X1 -->
<g id="node1" class="node">
<title>X1</title>
<ellipse fill="none" stroke="black" cx="27" cy="-162" rx="27" ry="18"/>
<text text-anchor="middle" x="27" y="-158.3" font-family="Times,serif" font-size="14.00">X1</text>
</g>
<!-- T -->
<g id="node2" class="node">
<title>T</title>
<ellipse fill="none" stroke="black" cx="91" cy="-90" rx="27" ry="18"/>
<text text-anchor="middle" x="91" y="-86.3" font-family="Times,serif" font-size="14.00">T</text>
</g>
<!-- X1&#45;&gt;T -->
<g id="edge1" class="edge">
<title>X1&#45;&gt;T</title>
<path fill="none" stroke="black" d="M40.57,-146.15C49.31,-136.6 60.83,-123.99 70.66,-113.25"/>
<polygon fill="black" stroke="black" points="73.28,-115.57 77.45,-105.82 68.12,-110.84 73.28,-115.57"/>
</g>
<!-- Y -->
<g id="node3" class="node">
<title>Y</title>
<ellipse fill="none" stroke="black" cx="91" cy="-18" rx="27" ry="18"/>
<text text-anchor="middle" x="91" y="-14.3" font-family="Times,serif" font-size="14.00">Y</text>
</g>
<!-- X1&#45;&gt;Y -->
<g id="edge4" class="edge">
<title>X1&#45;&gt;Y</title>
<path fill="none" stroke="black" d="M30.77,-144.04C35.19,-125.71 43.43,-95.91 55,-72 59.87,-61.94 66.46,-51.61 72.68,-42.77"/>
<polygon fill="black" stroke="black" points="75.64,-44.64 78.69,-34.5 69.98,-40.53 75.64,-44.64"/>
</g>
<!-- T&#45;&gt;Y -->
<g id="edge2" class="edge">
<title>T&#45;&gt;Y</title>
<path fill="none" stroke="black" d="M91,-71.7C91,-63.98 91,-54.71 91,-46.11"/>
<polygon fill="black" stroke="black" points="94.5,-46.1 91,-36.1 87.5,-46.1 94.5,-46.1"/>
</g>
<!-- X2 -->
<g id="node4" class="node">
<title>X2</title>
<ellipse fill="none" stroke="black" cx="99" cy="-162" rx="27" ry="18"/>
<text text-anchor="middle" x="99" y="-158.3" font-family="Times,serif" font-size="14.00">X2</text>
</g>
<!-- X2&#45;&gt;T -->
<g id="edge3" class="edge">
<title>X2&#45;&gt;T</title>
<path fill="none" stroke="black" d="M97.02,-143.7C96.14,-135.98 95.08,-126.71 94.1,-118.11"/>
<polygon fill="black" stroke="black" points="97.57,-117.64 92.95,-108.1 90.61,-118.44 97.57,-117.64"/>
</g>
<!-- U -->
<g id="node5" class="node">
<title>U</title>
<ellipse fill="none" stroke="black" cx="127" cy="-234" rx="27" ry="18"/>
<text text-anchor="middle" x="127" y="-230.3" font-family="Times,serif" font-size="14.00">U</text>
</g>
<!-- U&#45;&gt;Y -->
<g id="edge6" class="edge">
<title>U&#45;&gt;Y</title>
<path fill="none" stroke="black" d="M130.76,-215.87C136.58,-185.7 145.3,-121.56 127,-72 123.13,-61.51 116.75,-51.09 110.43,-42.3"/>
<polygon fill="black" stroke="black" points="113.05,-39.97 104.22,-34.11 107.47,-44.19 113.05,-39.97"/>
</g>
<!-- U&#45;&gt;X2 -->
<g id="edge5" class="edge">
<title>U&#45;&gt;X2</title>
<path fill="none" stroke="black" d="M120.36,-216.41C117.09,-208.22 113.06,-198.14 109.38,-188.95"/>
<polygon fill="black" stroke="black" points="112.55,-187.45 105.59,-179.47 106.05,-190.05 112.55,-187.45"/>
</g>
<!-- Family Income -->
<g id="node6" class="node">
<title>Family Income</title>
<ellipse fill="none" stroke="black" cx="261" cy="-162" rx="78.79" ry="18"/>
<text text-anchor="middle" x="261" y="-158.3" font-family="Times,serif" font-size="14.00">Family Income</text>
</g>
<!-- Educ -->
<g id="node7" class="node">
<title>Educ</title>
<ellipse fill="none" stroke="black" cx="366" cy="-90" rx="34.39" ry="18"/>
<text text-anchor="middle" x="366" y="-86.3" font-family="Times,serif" font-size="14.00">Educ</text>
</g>
<!-- Family Income&#45;&gt;Educ -->
<g id="edge7" class="edge">
<title>Family Income&#45;&gt;Educ</title>
<path fill="none" stroke="black" d="M285.35,-144.76C300.79,-134.47 320.84,-121.11 337.08,-110.28"/>
<polygon fill="black" stroke="black" points="339.28,-113.02 345.66,-104.56 335.4,-107.19 339.28,-113.02"/>
</g>
<!-- Wage -->
<g id="node8" class="node">
<title>Wage</title>
<ellipse fill="none" stroke="black" cx="366" cy="-18" rx="36.29" ry="18"/>
<text text-anchor="middle" x="366" y="-14.3" font-family="Times,serif" font-size="14.00">Wage</text>
</g>
<!-- Family Income&#45;&gt;Wage -->
<g id="edge10" class="edge">
<title>Family Income&#45;&gt;Wage</title>
<path fill="none" stroke="black" d="M272.3,-144.01C284.46,-125.9 304.55,-96.53 323,-72 330.31,-62.29 338.67,-51.85 346.06,-42.82"/>
<polygon fill="black" stroke="black" points="348.85,-44.93 352.51,-34.99 343.45,-40.48 348.85,-44.93"/>
</g>
<!-- Educ&#45;&gt;Wage -->
<g id="edge8" class="edge">
<title>Educ&#45;&gt;Wage</title>
<path fill="none" stroke="black" d="M366,-71.7C366,-63.98 366,-54.71 366,-46.11"/>
<polygon fill="black" stroke="black" points="369.5,-46.1 366,-36.1 362.5,-46.1 369.5,-46.1"/>
</g>
<!-- SAT -->
<g id="node9" class="node">
<title>SAT</title>
<ellipse fill="none" stroke="black" cx="386" cy="-162" rx="28.7" ry="18"/>
<text text-anchor="middle" x="386" y="-158.3" font-family="Times,serif" font-size="14.00">SAT</text>
</g>
<!-- SAT&#45;&gt;Educ -->
<g id="edge9" class="edge">
<title>SAT&#45;&gt;Educ</title>
<path fill="none" stroke="black" d="M381.16,-144.05C378.93,-136.26 376.23,-126.82 373.74,-118.08"/>
<polygon fill="black" stroke="black" points="377.05,-116.93 370.94,-108.28 370.32,-118.85 377.05,-116.93"/>
</g>
<!-- Intelligence -->
<g id="node10" class="node">
<title>Intelligence</title>
<ellipse fill="none" stroke="black" cx="414" cy="-234" rx="65.79" ry="18"/>
<text text-anchor="middle" x="414" y="-230.3" font-family="Times,serif" font-size="14.00">Intelligence</text>
</g>
<!-- Intelligence&#45;&gt;Wage -->
<g id="edge12" class="edge">
<title>Intelligence&#45;&gt;Wage</title>
<path fill="none" stroke="black" d="M418.06,-215.93C420.31,-205.6 422.87,-192.12 424,-180 428.51,-131.75 429.79,-115.77 409,-72 403.86,-61.18 396.08,-50.65 388.54,-41.86"/>
<polygon fill="black" stroke="black" points="391.05,-39.42 381.77,-34.31 385.85,-44.09 391.05,-39.42"/>
</g>
<!-- Intelligence&#45;&gt;SAT -->
<g id="edge11" class="edge">
<title>Intelligence&#45;&gt;SAT</title>
<path fill="none" stroke="black" d="M407.22,-216.05C403.99,-207.97 400.05,-198.12 396.44,-189.11"/>
<polygon fill="black" stroke="black" points="399.68,-187.77 392.72,-179.79 393.18,-190.37 399.68,-187.77"/>
</g>
</g>
</svg>
