<?xml version="1.0" encoding="UTF-8" standalone="no"?>
<!DOCTYPE svg PUBLIC "-//W3C//DTD SVG 1.1//EN"
 "http://www.w3.org/Graphics/SVG/1.1/DTD/svg11.dtd">
<!-- Generated by graphviz version 2.49.1 (20211004.0028)
 -->
<!-- Pages: 1 -->
<svg width="246pt" height="188pt"
 viewBox="0.00 0.00 246.24 188.00" xmlns="http://www.w3.org/2000/svg" xmlns:xlink="http://www.w3.org/1999/xlink">
<g id="graph0" class="graph" transform="scale(1 1) rotate(0) translate(4 184)">
<polygon fill="white" stroke="transparent" points="-4,4 -4,-184 242.24,-184 242.24,4 -4,4"/>
<!-- T -->
<g id="node1" class="node">
<title>T</title>
<ellipse fill="none" stroke="black" cx="57" cy="-162" rx="27" ry="18"/>
<text text-anchor="middle" x="57" y="-158.3" font-family="Times,serif" font-size="14.00">T</text>
</g>
<!-- X -->
<g id="node2" class="node">
<title>X</title>
<ellipse fill="none" stroke="red" cx="27" cy="-18" rx="27" ry="18"/>
<text text-anchor="middle" x="27" y="-14.3" font-family="Times,serif" font-size="14.00">X</text>
</g>
<!-- T&#45;&gt;X -->
<g id="edge1" class="edge">
<title>T&#45;&gt;X</title>
<path fill="none" stroke="black" d="M46.97,-144.97C41.16,-134.79 34.35,-121.11 31,-108 25.8,-87.68 24.99,-63.91 25.37,-46.05"/>
<polygon fill="black" stroke="black" points="28.87,-46.15 25.73,-36.03 21.88,-45.9 28.87,-46.15"/>
</g>
<!-- Y -->
<g id="node3" class="node">
<title>Y</title>
<ellipse fill="none" stroke="black" cx="67" cy="-90" rx="27" ry="18"/>
<text text-anchor="middle" x="67" y="-86.3" font-family="Times,serif" font-size="14.00">Y</text>
</g>
<!-- T&#45;&gt;Y -->
<g id="edge2" class="edge">
<title>T&#45;&gt;Y</title>
<path fill="none" stroke="black" d="M59.42,-144.05C60.52,-136.35 61.85,-127.03 63.09,-118.36"/>
<polygon fill="black" stroke="black" points="66.58,-118.67 64.53,-108.28 59.65,-117.68 66.58,-118.67"/>
</g>
<!-- Y&#45;&gt;X -->
<g id="edge3" class="edge">
<title>Y&#45;&gt;X</title>
<path fill="none" stroke="black" d="M57.72,-72.76C52.83,-64.19 46.71,-53.49 41.23,-43.9"/>
<polygon fill="black" stroke="black" points="44.23,-42.09 36.23,-35.15 38.15,-45.57 44.23,-42.09"/>
</g>
<!-- Educ -->
<g id="node4" class="node">
<title>Educ</title>
<ellipse fill="none" stroke="black" cx="151" cy="-162" rx="34.39" ry="18"/>
<text text-anchor="middle" x="151" y="-158.3" font-family="Times,serif" font-size="14.00">Educ</text>
</g>
<!-- Investments -->
<g id="node5" class="node">
<title>Investments</title>
<ellipse fill="none" stroke="black" cx="170" cy="-18" rx="68.49" ry="18"/>
<text text-anchor="middle" x="170" y="-14.3" font-family="Times,serif" font-size="14.00">Investments</text>
</g>
<!-- Educ&#45;&gt;Investments -->
<g id="edge4" class="edge">
<title>Educ&#45;&gt;Investments</title>
<path fill="none" stroke="black" d="M149.27,-143.79C147.85,-125.75 146.71,-96.66 151,-72 152.52,-63.24 155.36,-54.01 158.39,-45.75"/>
<polygon fill="black" stroke="black" points="161.72,-46.84 162.11,-36.25 155.21,-44.29 161.72,-46.84"/>
</g>
<!-- Wage -->
<g id="node6" class="node">
<title>Wage</title>
<ellipse fill="none" stroke="black" cx="196" cy="-90" rx="36.29" ry="18"/>
<text text-anchor="middle" x="196" y="-86.3" font-family="Times,serif" font-size="14.00">Wage</text>
</g>
<!-- Educ&#45;&gt;Wage -->
<g id="edge5" class="edge">
<title>Educ&#45;&gt;Wage</title>
<path fill="none" stroke="black" d="M161.44,-144.76C166.87,-136.32 173.63,-125.8 179.73,-116.31"/>
<polygon fill="black" stroke="black" points="182.84,-117.94 185.31,-107.63 176.96,-114.15 182.84,-117.94"/>
</g>
<!-- Wage&#45;&gt;Investments -->
<g id="edge6" class="edge">
<title>Wage&#45;&gt;Investments</title>
<path fill="none" stroke="black" d="M189.71,-72.05C186.78,-64.18 183.23,-54.62 179.95,-45.79"/>
<polygon fill="black" stroke="black" points="183.18,-44.43 176.42,-36.28 176.62,-46.87 183.18,-44.43"/>
</g>
</g>
</svg>
