<?xml version="1.0" encoding="UTF-8" standalone="no"?>
<!DOCTYPE svg PUBLIC "-//W3C//DTD SVG 1.1//EN"
 "http://www.w3.org/Graphics/SVG/1.1/DTD/svg11.dtd">
<!-- Generated by graphviz version 2.40.1 (20161225.0304)
 -->
<!-- Title: %3 Pages: 1 -->
<svg width="439pt" height="260pt"
 viewBox="0.00 0.00 439.39 260.00" xmlns="http://www.w3.org/2000/svg" xmlns:xlink="http://www.w3.org/1999/xlink">
<g id="graph0" class="graph" transform="scale(1 1) rotate(0) translate(4 256)">
<title>%3</title>
<polygon fill="#ffffff" stroke="transparent" points="-4,4 -4,-256 435.3886,-256 435.3886,4 -4,4"/>
<!-- X1 -->
<g id="node1" class="node">
<title>X1</title>
<ellipse fill="none" stroke="#000000" cx="27" cy="-162" rx="27" ry="18"/>
<text text-anchor="middle" x="27" y="-157.8" font-family="Times,serif" font-size="14.00" fill="#000000">X1</text>
</g>
<!-- T -->
<g id="node2" class="node">
<title>T</title>
<ellipse fill="none" stroke="#000000" cx="95" cy="-90" rx="27" ry="18"/>
<text text-anchor="middle" x="95" y="-85.8" font-family="Times,serif" font-size="14.00" fill="#000000">T</text>
</g>
<!-- X1&#45;&gt;T -->
<g id="edge1" class="edge">
<title>X1&#45;&gt;T</title>
<path fill="none" stroke="#000000" d="M41.4211,-146.7307C50.7972,-136.803 63.1867,-123.6847 73.6899,-112.5637"/>
<polygon fill="#000000" stroke="#000000" points="76.278,-114.9207 80.5997,-105.2473 71.1889,-110.1143 76.278,-114.9207"/>
</g>
<!-- Y -->
<g id="node3" class="node">
<title>Y</title>
<ellipse fill="none" stroke="#000000" cx="95" cy="-18" rx="27" ry="18"/>
<text text-anchor="middle" x="95" y="-13.8" font-family="Times,serif" font-size="14.00" fill="#000000">Y</text>
</g>
<!-- X1&#45;&gt;Y -->
<g id="edge4" class="edge">
<title>X1&#45;&gt;Y</title>
<path fill="none" stroke="#000000" d="M31.9041,-144.2215C37.342,-125.6765 46.9578,-96.0147 59,-72 64.0001,-62.0288 70.5168,-51.6939 76.6293,-42.7678"/>
<polygon fill="#000000" stroke="#000000" points="79.6417,-44.5689 82.536,-34.377 73.9177,-40.5395 79.6417,-44.5689"/>
</g>
<!-- T&#45;&gt;Y -->
<g id="edge2" class="edge">
<title>T&#45;&gt;Y</title>
<path fill="none" stroke="#000000" d="M95,-71.8314C95,-64.131 95,-54.9743 95,-46.4166"/>
<polygon fill="#000000" stroke="#000000" points="98.5001,-46.4132 95,-36.4133 91.5001,-46.4133 98.5001,-46.4132"/>
</g>
<!-- X2 -->
<g id="node4" class="node">
<title>X2</title>
<ellipse fill="none" stroke="#000000" cx="99" cy="-162" rx="27" ry="18"/>
<text text-anchor="middle" x="99" y="-157.8" font-family="Times,serif" font-size="14.00" fill="#000000">X2</text>
</g>
<!-- X2&#45;&gt;T -->
<g id="edge3" class="edge">
<title>X2&#45;&gt;T</title>
<path fill="none" stroke="#000000" d="M97.9906,-143.8314C97.5628,-136.131 97.0541,-126.9743 96.5787,-118.4166"/>
<polygon fill="#000000" stroke="#000000" points="100.0724,-118.2037 96.023,-108.4133 93.0831,-118.592 100.0724,-118.2037"/>
</g>
<!-- U -->
<g id="node5" class="node">
<title>U</title>
<ellipse fill="none" stroke="#000000" cx="127" cy="-234" rx="27" ry="18"/>
<text text-anchor="middle" x="127" y="-229.8" font-family="Times,serif" font-size="14.00" fill="#000000">U</text>
</g>
<!-- U&#45;&gt;Y -->
<g id="edge6" class="edge">
<title>U&#45;&gt;Y</title>
<path fill="none" stroke="#000000" d="M131.3409,-215.9151C137.8339,-185.3453 147.6367,-121.91 131,-72 127.4726,-61.4177 121.2896,-50.9444 115.0324,-42.0784"/>
<polygon fill="#000000" stroke="#000000" points="117.6371,-39.7171 108.8461,-33.8036 112.0306,-43.9085 117.6371,-39.7171"/>
</g>
<!-- U&#45;&gt;X2 -->
<g id="edge5" class="edge">
<title>U&#45;&gt;X2</title>
<path fill="none" stroke="#000000" d="M120.222,-216.5708C117.0128,-208.3187 113.1065,-198.2738 109.5242,-189.0623"/>
<polygon fill="#000000" stroke="#000000" points="112.6992,-187.5697 105.8126,-179.5182 106.1752,-190.1069 112.6992,-187.5697"/>
</g>
<!-- Family Income -->
<g id="node6" class="node">
<title>Family Income</title>
<ellipse fill="none" stroke="#000000" cx="246" cy="-162" rx="63.7863" ry="18"/>
<text text-anchor="middle" x="246" y="-157.8" font-family="Times,serif" font-size="14.00" fill="#000000">Family Income</text>
</g>
<!-- Educ -->
<g id="node7" class="node">
<title>Educ</title>
<ellipse fill="none" stroke="#000000" cx="341" cy="-90" rx="28.0565" ry="18"/>
<text text-anchor="middle" x="341" y="-85.8" font-family="Times,serif" font-size="14.00" fill="#000000">Educ</text>
</g>
<!-- Family Income&#45;&gt;Educ -->
<g id="edge7" class="edge">
<title>Family Income&#45;&gt;Educ</title>
<path fill="none" stroke="#000000" d="M268.5137,-144.937C282.3655,-134.4388 300.1803,-120.937 314.6824,-109.946"/>
<polygon fill="#000000" stroke="#000000" points="316.9275,-112.6361 322.7832,-103.8064 312.6994,-107.0573 316.9275,-112.6361"/>
</g>
<!-- Wage -->
<g id="node8" class="node">
<title>Wage</title>
<ellipse fill="none" stroke="#000000" cx="341" cy="-18" rx="30.0438" ry="18"/>
<text text-anchor="middle" x="341" y="-13.8" font-family="Times,serif" font-size="14.00" fill="#000000">Wage</text>
</g>
<!-- Family Income&#45;&gt;Wage -->
<g id="edge10" class="edge">
<title>Family Income&#45;&gt;Wage</title>
<path fill="none" stroke="#000000" d="M257.4064,-143.9732C268.9968,-125.7337 287.5373,-96.7699 304,-72 310.2276,-62.6298 317.172,-52.4311 323.3474,-43.446"/>
<polygon fill="#000000" stroke="#000000" points="326.4164,-45.1607 329.2114,-34.9411 320.6535,-41.1872 326.4164,-45.1607"/>
</g>
<!-- Educ&#45;&gt;Wage -->
<g id="edge8" class="edge">
<title>Educ&#45;&gt;Wage</title>
<path fill="none" stroke="#000000" d="M341,-71.8314C341,-64.131 341,-54.9743 341,-46.4166"/>
<polygon fill="#000000" stroke="#000000" points="344.5001,-46.4132 341,-36.4133 337.5001,-46.4133 344.5001,-46.4132"/>
</g>
<!-- SAT -->
<g id="node9" class="node">
<title>SAT</title>
<ellipse fill="none" stroke="#000000" cx="355" cy="-162" rx="27" ry="18"/>
<text text-anchor="middle" x="355" y="-157.8" font-family="Times,serif" font-size="14.00" fill="#000000">SAT</text>
</g>
<!-- SAT&#45;&gt;Educ -->
<g id="edge9" class="edge">
<title>SAT&#45;&gt;Educ</title>
<path fill="none" stroke="#000000" d="M351.4672,-143.8314C349.9302,-135.9266 348.0947,-126.4872 346.3932,-117.7365"/>
<polygon fill="#000000" stroke="#000000" points="349.8276,-117.0615 344.4832,-107.9134 342.9563,-118.3976 349.8276,-117.0615"/>
</g>
<!-- Inteligence -->
<g id="node10" class="node">
<title>Inteligence</title>
<ellipse fill="none" stroke="#000000" cx="382" cy="-234" rx="49.2774" ry="18"/>
<text text-anchor="middle" x="382" y="-229.8" font-family="Times,serif" font-size="14.00" fill="#000000">Inteligence</text>
</g>
<!-- Inteligence&#45;&gt;Wage -->
<g id="edge12" class="edge">
<title>Inteligence&#45;&gt;Wage</title>
<path fill="none" stroke="#000000" d="M385.8413,-215.6001C387.8166,-205.2025 390.0123,-191.9346 391,-180 394.9876,-131.8182 396.3661,-116.7221 378,-72 373.7907,-61.7502 367.4207,-51.475 361.1464,-42.6804"/>
<polygon fill="#000000" stroke="#000000" points="363.7762,-40.3524 354.9877,-34.4353 358.168,-44.5415 363.7762,-40.3524"/>
</g>
<!-- Inteligence&#45;&gt;SAT -->
<g id="edge11" class="edge">
<title>Inteligence&#45;&gt;SAT</title>
<path fill="none" stroke="#000000" d="M375.1868,-215.8314C372.1902,-207.8406 368.6057,-198.2819 365.2943,-189.4514"/>
<polygon fill="#000000" stroke="#000000" points="368.506,-188.0478 361.7175,-179.9134 361.9517,-190.5057 368.506,-188.0478"/>
</g>
</g>
</svg>
