<?xml version="1.0" encoding="UTF-8" standalone="no"?>
<!DOCTYPE svg PUBLIC "-//W3C//DTD SVG 1.1//EN"
 "http://www.w3.org/Graphics/SVG/1.1/DTD/svg11.dtd">
<!-- Generated by graphviz version 2.40.1 (20161225.0304)
 -->
<!-- Title: %3 Pages: 1 -->
<svg width="216pt" height="188pt"
 viewBox="0.00 0.00 216.02 188.00" xmlns="http://www.w3.org/2000/svg" xmlns:xlink="http://www.w3.org/1999/xlink">
<g id="graph0" class="graph" transform="scale(1 1) rotate(0) translate(4 184)">
<title>%3</title>
<polygon fill="#ffffff" stroke="transparent" points="-4,4 -4,-184 212.0219,-184 212.0219,4 -4,4"/>
<!-- T -->
<g id="node1" class="node">
<title>T</title>
<ellipse fill="none" stroke="#000000" cx="38" cy="-162" rx="27" ry="18"/>
<text text-anchor="middle" x="38" y="-157.8" font-family="Times,serif" font-size="14.00" fill="#000000">T</text>
</g>
<!-- X -->
<g id="node2" class="node">
<title>X</title>
<ellipse fill="none" stroke="#ff0000" cx="27" cy="-18" rx="27" ry="18"/>
<text text-anchor="middle" x="27" y="-13.8" font-family="Times,serif" font-size="14.00" fill="#000000">X</text>
</g>
<!-- T&#45;&gt;X -->
<g id="edge1" class="edge">
<title>T&#45;&gt;X</title>
<path fill="none" stroke="#000000" d="M27.0915,-145.2705C21.0443,-134.9795 14.1306,-121.2615 11,-108 6.0392,-86.9857 10.8706,-62.8873 16.4871,-44.9185"/>
<polygon fill="#000000" stroke="#000000" points="19.8277,-45.9656 19.7233,-35.3712 13.1982,-43.7183 19.8277,-45.9656"/>
</g>
<!-- Y -->
<g id="node3" class="node">
<title>Y</title>
<ellipse fill="none" stroke="#000000" cx="47" cy="-90" rx="27" ry="18"/>
<text text-anchor="middle" x="47" y="-85.8" font-family="Times,serif" font-size="14.00" fill="#000000">Y</text>
</g>
<!-- T&#45;&gt;Y -->
<g id="edge2" class="edge">
<title>T&#45;&gt;Y</title>
<path fill="none" stroke="#000000" d="M40.2711,-143.8314C41.2336,-136.131 42.3782,-126.9743 43.4479,-118.4166"/>
<polygon fill="#000000" stroke="#000000" points="46.9309,-118.7702 44.6983,-108.4133 39.9849,-117.9019 46.9309,-118.7702"/>
</g>
<!-- Y&#45;&gt;X -->
<g id="edge3" class="edge">
<title>Y&#45;&gt;X</title>
<path fill="none" stroke="#000000" d="M42.0562,-72.2022C39.8206,-64.1541 37.1274,-54.4588 34.6407,-45.5067"/>
<polygon fill="#000000" stroke="#000000" points="38.0051,-44.541 31.9563,-35.8425 31.2605,-46.4145 38.0051,-44.541"/>
</g>
<!-- Educ -->
<g id="node4" class="node">
<title>Educ</title>
<ellipse fill="none" stroke="#000000" cx="129" cy="-162" rx="28.0565" ry="18"/>
<text text-anchor="middle" x="129" y="-157.8" font-family="Times,serif" font-size="14.00" fill="#000000">Educ</text>
</g>
<!-- Investments -->
<g id="node5" class="node">
<title>Investments</title>
<ellipse fill="none" stroke="#000000" cx="140" cy="-18" rx="52.6865" ry="18"/>
<text text-anchor="middle" x="140" y="-13.8" font-family="Times,serif" font-size="14.00" fill="#000000">Investments</text>
</g>
<!-- Educ&#45;&gt;Investments -->
<g id="edge4" class="edge">
<title>Educ&#45;&gt;Investments</title>
<path fill="none" stroke="#000000" d="M130.3932,-143.7623C132.2694,-119.201 135.6269,-75.2474 137.8341,-46.3541"/>
<polygon fill="#000000" stroke="#000000" points="141.3462,-46.3272 138.6182,-36.0896 134.3666,-45.794 141.3462,-46.3272"/>
</g>
<!-- Wage -->
<g id="node6" class="node">
<title>Wage</title>
<ellipse fill="none" stroke="#000000" cx="178" cy="-90" rx="30.0438" ry="18"/>
<text text-anchor="middle" x="178" y="-85.8" font-family="Times,serif" font-size="14.00" fill="#000000">Wage</text>
</g>
<!-- Educ&#45;&gt;Wage -->
<g id="edge5" class="edge">
<title>Educ&#45;&gt;Wage</title>
<path fill="none" stroke="#000000" d="M140.3647,-145.3008C146.3999,-136.4329 153.9447,-125.3465 160.6913,-115.4332"/>
<polygon fill="#000000" stroke="#000000" points="163.6238,-117.345 166.3566,-107.1086 157.8368,-113.4066 163.6238,-117.345"/>
</g>
<!-- Wage&#45;&gt;Investments -->
<g id="edge6" class="edge">
<title>Wage&#45;&gt;Investments</title>
<path fill="none" stroke="#000000" d="M168.8013,-72.5708C164.3862,-64.2055 158.9989,-53.998 154.0831,-44.6839"/>
<polygon fill="#000000" stroke="#000000" points="157.141,-42.9791 149.378,-35.7689 150.9503,-46.2464 157.141,-42.9791"/>
</g>
</g>
</svg>
