<?xml version="1.0" encoding="UTF-8" standalone="no"?>
<!DOCTYPE svg PUBLIC "-//W3C//DTD SVG 1.1//EN"
 "http://www.w3.org/Graphics/SVG/1.1/DTD/svg11.dtd">
<!-- Generated by graphviz version 2.49.1 (20211004.0028)
 -->
<!-- Pages: 1 -->
<svg width="266pt" height="188pt"
 viewBox="0.00 0.00 266.10 188.00" xmlns="http://www.w3.org/2000/svg" xmlns:xlink="http://www.w3.org/1999/xlink">
<g id="graph0" class="graph" transform="scale(1 1) rotate(0) translate(4 184)">
<polygon fill="white" stroke="transparent" points="-4,4 -4,-184 262.1,-184 262.1,4 -4,4"/>
<!-- T -->
<g id="node1" class="node">
<title>T</title>
<ellipse fill="none" stroke="black" cx="55" cy="-162" rx="27" ry="18"/>
<text text-anchor="middle" x="55" y="-158.3" font-family="Times,serif" font-size="14.00">T</text>
</g>
<!-- X -->
<g id="node2" class="node">
<title>X</title>
<ellipse fill="none" stroke="red" cx="27" cy="-90" rx="27" ry="18"/>
<text text-anchor="middle" x="27" y="-86.3" font-family="Times,serif" font-size="14.00">X</text>
</g>
<!-- T&#45;&gt;X -->
<g id="edge1" class="edge">
<title>T&#45;&gt;X</title>
<path fill="none" stroke="black" d="M48.36,-144.41C45.09,-136.22 41.06,-126.14 37.38,-116.95"/>
<polygon fill="black" stroke="black" points="40.55,-115.45 33.59,-107.47 34.05,-118.05 40.55,-115.45"/>
</g>
<!-- Y -->
<g id="node3" class="node">
<title>Y</title>
<ellipse fill="none" stroke="black" cx="55" cy="-18" rx="27" ry="18"/>
<text text-anchor="middle" x="55" y="-14.3" font-family="Times,serif" font-size="14.00">Y</text>
</g>
<!-- T&#45;&gt;Y -->
<g id="edge2" class="edge">
<title>T&#45;&gt;Y</title>
<path fill="none" stroke="black" d="M58.25,-143.89C60.05,-133.54 62.09,-120.06 63,-108 64.2,-92.04 64.2,-87.96 63,-72 62.36,-63.52 61.16,-54.34 59.88,-46.04"/>
<polygon fill="black" stroke="black" points="63.32,-45.41 58.25,-36.11 56.42,-46.55 63.32,-45.41"/>
</g>
<!-- X&#45;&gt;Y -->
<g id="edge3" class="edge">
<title>X&#45;&gt;Y</title>
<path fill="none" stroke="black" d="M33.64,-72.41C36.91,-64.22 40.94,-54.14 44.62,-44.95"/>
<polygon fill="black" stroke="black" points="47.95,-46.05 48.41,-35.47 41.45,-43.45 47.95,-46.05"/>
</g>
<!-- educ -->
<g id="node4" class="node">
<title>educ</title>
<ellipse fill="none" stroke="black" cx="223" cy="-162" rx="32.49" ry="18"/>
<text text-anchor="middle" x="223" y="-158.3" font-family="Times,serif" font-size="14.00">educ</text>
</g>
<!-- white collar -->
<g id="node5" class="node">
<title>white collar</title>
<ellipse fill="none" stroke="black" cx="176" cy="-90" rx="65.79" ry="18"/>
<text text-anchor="middle" x="176" y="-86.3" font-family="Times,serif" font-size="14.00">white collar</text>
</g>
<!-- educ&#45;&gt;white collar -->
<g id="edge4" class="edge">
<title>educ&#45;&gt;white collar</title>
<path fill="none" stroke="black" d="M212.1,-144.76C206.45,-136.35 199.43,-125.89 193.08,-116.44"/>
<polygon fill="black" stroke="black" points="195.98,-114.48 187.5,-108.12 190.17,-118.38 195.98,-114.48"/>
</g>
<!-- wage -->
<g id="node6" class="node">
<title>wage</title>
<ellipse fill="none" stroke="black" cx="223" cy="-18" rx="35.19" ry="18"/>
<text text-anchor="middle" x="223" y="-14.3" font-family="Times,serif" font-size="14.00">wage</text>
</g>
<!-- educ&#45;&gt;wage -->
<g id="edge5" class="edge">
<title>educ&#45;&gt;wage</title>
<path fill="none" stroke="black" d="M234.31,-144.66C240.58,-134.59 247.74,-121.13 251,-108 254.85,-92.47 254.85,-87.53 251,-72 248.61,-62.36 244.11,-52.54 239.4,-44.01"/>
<polygon fill="black" stroke="black" points="242.39,-42.18 234.31,-35.34 236.35,-45.73 242.39,-42.18"/>
</g>
<!-- white collar&#45;&gt;wage -->
<g id="edge6" class="edge">
<title>white collar&#45;&gt;wage</title>
<path fill="none" stroke="black" d="M187.38,-72.05C193.06,-63.59 200.04,-53.19 206.32,-43.84"/>
<polygon fill="black" stroke="black" points="209.38,-45.56 212.05,-35.31 203.57,-41.66 209.38,-45.56"/>
</g>
</g>
</svg>
