<?xml version="1.0" encoding="UTF-8" standalone="no"?>
<!DOCTYPE svg PUBLIC "-//W3C//DTD SVG 1.1//EN"
 "http://www.w3.org/Graphics/SVG/1.1/DTD/svg11.dtd">
<!-- Generated by graphviz version 2.40.1 (20161225.0304)
 -->
<!-- Title: %3 Pages: 1 -->
<svg width="239pt" height="188pt"
 viewBox="0.00 0.00 238.77 188.00" xmlns="http://www.w3.org/2000/svg" xmlns:xlink="http://www.w3.org/1999/xlink">
<g id="graph0" class="graph" transform="scale(1 1) rotate(0) translate(4 184)">
<title>%3</title>
<polygon fill="#ffffff" stroke="transparent" points="-4,4 -4,-184 234.7653,-184 234.7653,4 -4,4"/>
<!-- T -->
<g id="node1" class="node">
<title>T</title>
<ellipse fill="none" stroke="#000000" cx="55" cy="-162" rx="27" ry="18"/>
<text text-anchor="middle" x="55" y="-157.8" font-family="Times,serif" font-size="14.00" fill="#000000">T</text>
</g>
<!-- X -->
<g id="node2" class="node">
<title>X</title>
<ellipse fill="none" stroke="#ff0000" cx="27" cy="-90" rx="27" ry="18"/>
<text text-anchor="middle" x="27" y="-85.8" font-family="Times,serif" font-size="14.00" fill="#000000">X</text>
</g>
<!-- T&#45;&gt;X -->
<g id="edge1" class="edge">
<title>T&#45;&gt;X</title>
<path fill="none" stroke="#000000" d="M48.222,-144.5708C45.0128,-136.3187 41.1065,-126.2738 37.5242,-117.0623"/>
<polygon fill="#000000" stroke="#000000" points="40.6992,-115.5697 33.8126,-107.5182 34.1752,-118.1069 40.6992,-115.5697"/>
</g>
<!-- Y -->
<g id="node3" class="node">
<title>Y</title>
<ellipse fill="none" stroke="#000000" cx="55" cy="-18" rx="27" ry="18"/>
<text text-anchor="middle" x="55" y="-13.8" font-family="Times,serif" font-size="14.00" fill="#000000">Y</text>
</g>
<!-- T&#45;&gt;Y -->
<g id="edge2" class="edge">
<title>T&#45;&gt;Y</title>
<path fill="none" stroke="#000000" d="M58.3315,-144.0736C60.1087,-133.5982 62.1087,-120.0982 63,-108 64.1756,-92.0432 64.1756,-87.9568 63,-72 62.3733,-63.4935 61.1985,-54.2939 59.9384,-45.9399"/>
<polygon fill="#000000" stroke="#000000" points="63.3718,-45.2455 58.3315,-35.9264 56.4602,-46.3546 63.3718,-45.2455"/>
</g>
<!-- X&#45;&gt;Y -->
<g id="edge3" class="edge">
<title>X&#45;&gt;Y</title>
<path fill="none" stroke="#000000" d="M33.778,-72.5708C36.9872,-64.3187 40.8935,-54.2738 44.4758,-45.0623"/>
<polygon fill="#000000" stroke="#000000" points="47.8248,-46.1069 48.1874,-35.5182 41.3008,-43.5697 47.8248,-46.1069"/>
</g>
<!-- educ -->
<g id="node4" class="node">
<title>educ</title>
<ellipse fill="none" stroke="#000000" cx="202" cy="-162" rx="27" ry="18"/>
<text text-anchor="middle" x="202" y="-157.8" font-family="Times,serif" font-size="14.00" fill="#000000">educ</text>
</g>
<!-- white collar -->
<g id="node5" class="node">
<title>white collar</title>
<ellipse fill="none" stroke="#000000" cx="162" cy="-90" rx="52.1922" ry="18"/>
<text text-anchor="middle" x="162" y="-85.8" font-family="Times,serif" font-size="14.00" fill="#000000">white collar</text>
</g>
<!-- educ&#45;&gt;white collar -->
<g id="edge4" class="edge">
<title>educ&#45;&gt;white collar</title>
<path fill="none" stroke="#000000" d="M192.5206,-144.937C187.8423,-136.5161 182.0904,-126.1627 176.8459,-116.7226"/>
<polygon fill="#000000" stroke="#000000" points="179.7452,-114.7342 171.8291,-107.6924 173.626,-118.1338 179.7452,-114.7342"/>
</g>
<!-- wage -->
<g id="node6" class="node">
<title>wage</title>
<ellipse fill="none" stroke="#000000" cx="202" cy="-18" rx="28.5325" ry="18"/>
<text text-anchor="middle" x="202" y="-13.8" font-family="Times,serif" font-size="14.00" fill="#000000">wage</text>
</g>
<!-- educ&#45;&gt;wage -->
<g id="edge5" class="edge">
<title>educ&#45;&gt;wage</title>
<path fill="none" stroke="#000000" d="M210.7195,-144.491C215.376,-134.1547 220.626,-120.6547 223,-108 225.9502,-92.2743 225.9502,-87.7257 223,-72 221.2937,-62.9044 218.1016,-53.3722 214.712,-44.8918"/>
<polygon fill="#000000" stroke="#000000" points="217.8555,-43.3401 210.7195,-35.509 211.4144,-46.081 217.8555,-43.3401"/>
</g>
<!-- white collar&#45;&gt;wage -->
<g id="edge6" class="edge">
<title>white collar&#45;&gt;wage</title>
<path fill="none" stroke="#000000" d="M171.8876,-72.2022C176.6072,-63.7071 182.3463,-53.3767 187.5432,-44.0223"/>
<polygon fill="#000000" stroke="#000000" points="190.7046,-45.5386 192.5015,-35.0972 184.5855,-42.139 190.7046,-45.5386"/>
</g>
</g>
</svg>
