<?xml version="1.0" encoding="UTF-8" standalone="no"?>
<!DOCTYPE svg PUBLIC "-//W3C//DTD SVG 1.1//EN"
 "http://www.w3.org/Graphics/SVG/1.1/DTD/svg11.dtd">
<!-- Generated by graphviz version 2.44.0 (20200408.0750)
 -->
<!-- Pages: 1 -->
<svg width="444pt" height="260pt"
 viewBox="0.00 0.00 444.05 260.00" xmlns="http://www.w3.org/2000/svg" xmlns:xlink="http://www.w3.org/1999/xlink">
<g id="graph0" class="graph" transform="scale(1 1) rotate(0) translate(4 256)">
<polygon fill="white" stroke="transparent" points="-4,4 -4,-256 440.05,-256 440.05,4 -4,4"/>
<!-- X1 -->
<g id="node1" class="node">
<title>X1</title>
<ellipse fill="none" stroke="black" cx="27" cy="-162" rx="27" ry="18"/>
<text text-anchor="middle" x="27" y="-158.3" font-family="Times,serif" font-size="14.00">X1</text>
</g>
<!-- T -->
<g id="node2" class="node">
<title>T</title>
<ellipse fill="none" stroke="black" cx="95" cy="-90" rx="27" ry="18"/>
<text text-anchor="middle" x="95" y="-86.3" font-family="Times,serif" font-size="14.00">T</text>
</g>
<!-- X1&#45;&gt;T -->
<g id="edge1" class="edge">
<title>X1&#45;&gt;T</title>
<path fill="none" stroke="black" d="M41.09,-146.5C50.57,-136.73 63.24,-123.69 73.92,-112.7"/>
<polygon fill="black" stroke="black" points="76.47,-115.1 80.93,-105.49 71.45,-110.22 76.47,-115.1"/>
</g>
<!-- Y -->
<g id="node3" class="node">
<title>Y</title>
<ellipse fill="none" stroke="black" cx="95" cy="-18" rx="27" ry="18"/>
<text text-anchor="middle" x="95" y="-14.3" font-family="Times,serif" font-size="14.00">Y</text>
</g>
<!-- X1&#45;&gt;Y -->
<g id="edge4" class="edge">
<title>X1&#45;&gt;Y</title>
<path fill="none" stroke="black" d="M31.69,-144.08C37.09,-125.77 46.78,-96 59,-72 64.07,-62.04 70.71,-51.73 76.9,-42.88"/>
<polygon fill="black" stroke="black" points="79.87,-44.75 82.87,-34.59 74.19,-40.66 79.87,-44.75"/>
</g>
<!-- T&#45;&gt;Y -->
<g id="edge2" class="edge">
<title>T&#45;&gt;Y</title>
<path fill="none" stroke="black" d="M95,-71.7C95,-63.98 95,-54.71 95,-46.11"/>
<polygon fill="black" stroke="black" points="98.5,-46.1 95,-36.1 91.5,-46.1 98.5,-46.1"/>
</g>
<!-- X2 -->
<g id="node4" class="node">
<title>X2</title>
<ellipse fill="none" stroke="black" cx="99" cy="-162" rx="27" ry="18"/>
<text text-anchor="middle" x="99" y="-158.3" font-family="Times,serif" font-size="14.00">X2</text>
</g>
<!-- X2&#45;&gt;T -->
<g id="edge3" class="edge">
<title>X2&#45;&gt;T</title>
<path fill="none" stroke="black" d="M98.01,-143.7C97.57,-135.98 97.04,-126.71 96.55,-118.11"/>
<polygon fill="black" stroke="black" points="100.04,-117.89 95.98,-108.1 93.05,-118.29 100.04,-117.89"/>
</g>
<!-- U -->
<g id="node5" class="node">
<title>U</title>
<ellipse fill="none" stroke="black" cx="127" cy="-234" rx="27" ry="18"/>
<text text-anchor="middle" x="127" y="-230.3" font-family="Times,serif" font-size="14.00">U</text>
</g>
<!-- U&#45;&gt;Y -->
<g id="edge6" class="edge">
<title>U&#45;&gt;Y</title>
<path fill="none" stroke="black" d="M131.16,-215.98C137.68,-185.96 147.93,-122.06 131,-72 127.42,-61.41 121.1,-50.97 114.75,-42.19"/>
<polygon fill="black" stroke="black" points="117.35,-39.82 108.48,-34.02 111.79,-44.08 117.35,-39.82"/>
</g>
<!-- U&#45;&gt;X2 -->
<g id="edge5" class="edge">
<title>U&#45;&gt;X2</title>
<path fill="none" stroke="black" d="M120.36,-216.41C117.09,-208.22 113.06,-198.14 109.38,-188.95"/>
<polygon fill="black" stroke="black" points="112.55,-187.45 105.59,-179.47 106.05,-190.05 112.55,-187.45"/>
</g>
<!-- Family Income -->
<g id="node6" class="node">
<title>Family Income</title>
<ellipse fill="none" stroke="black" cx="248" cy="-162" rx="65.79" ry="18"/>
<text text-anchor="middle" x="248" y="-158.3" font-family="Times,serif" font-size="14.00">Family Income</text>
</g>
<!-- Educ -->
<g id="node7" class="node">
<title>Educ</title>
<ellipse fill="none" stroke="black" cx="344" cy="-90" rx="28.7" ry="18"/>
<text text-anchor="middle" x="344" y="-86.3" font-family="Times,serif" font-size="14.00">Educ</text>
</g>
<!-- Family Income&#45;&gt;Educ -->
<g id="edge7" class="edge">
<title>Family Income&#45;&gt;Educ</title>
<path fill="none" stroke="black" d="M270.27,-144.76C284.43,-134.43 302.85,-121.01 317.73,-110.15"/>
<polygon fill="black" stroke="black" points="320.01,-112.82 326.03,-104.1 315.89,-107.17 320.01,-112.82"/>
</g>
<!-- Wage -->
<g id="node8" class="node">
<title>Wage</title>
<ellipse fill="none" stroke="black" cx="344" cy="-18" rx="31.4" ry="18"/>
<text text-anchor="middle" x="344" y="-14.3" font-family="Times,serif" font-size="14.00">Wage</text>
</g>
<!-- Family Income&#45;&gt;Wage -->
<g id="edge10" class="edge">
<title>Family Income&#45;&gt;Wage</title>
<path fill="none" stroke="black" d="M258.68,-144.12C270.16,-126.11 289.03,-96.81 306,-72 312.49,-62.51 319.81,-52.21 326.28,-43.23"/>
<polygon fill="black" stroke="black" points="329.14,-45.26 332.17,-35.11 323.47,-41.15 329.14,-45.26"/>
</g>
<!-- Educ&#45;&gt;Wage -->
<g id="edge8" class="edge">
<title>Educ&#45;&gt;Wage</title>
<path fill="none" stroke="black" d="M344,-71.7C344,-63.98 344,-54.71 344,-46.11"/>
<polygon fill="black" stroke="black" points="347.5,-46.1 344,-36.1 340.5,-46.1 347.5,-46.1"/>
</g>
<!-- SAT -->
<g id="node9" class="node">
<title>SAT</title>
<ellipse fill="none" stroke="black" cx="359" cy="-162" rx="27" ry="18"/>
<text text-anchor="middle" x="359" y="-158.3" font-family="Times,serif" font-size="14.00">SAT</text>
</g>
<!-- SAT&#45;&gt;Educ -->
<g id="edge9" class="edge">
<title>SAT&#45;&gt;Educ</title>
<path fill="none" stroke="black" d="M355.37,-144.05C353.7,-136.26 351.68,-126.82 349.8,-118.08"/>
<polygon fill="black" stroke="black" points="353.22,-117.32 347.7,-108.28 346.37,-118.79 353.22,-117.32"/>
</g>
<!-- Inteligence -->
<g id="node10" class="node">
<title>Inteligence</title>
<ellipse fill="none" stroke="black" cx="386" cy="-234" rx="50.09" ry="18"/>
<text text-anchor="middle" x="386" y="-230.3" font-family="Times,serif" font-size="14.00">Inteligence</text>
</g>
<!-- Inteligence&#45;&gt;Wage -->
<g id="edge12" class="edge">
<title>Inteligence&#45;&gt;Wage</title>
<path fill="none" stroke="black" d="M389.65,-215.91C391.68,-205.57 393.98,-192.09 395,-180 399.06,-131.82 400.84,-116.52 382,-72 377.59,-61.57 370.82,-51.2 364.21,-42.43"/>
<polygon fill="black" stroke="black" points="366.95,-40.25 358.01,-34.57 361.46,-44.59 366.95,-40.25"/>
</g>
<!-- Inteligence&#45;&gt;SAT -->
<g id="edge11" class="edge">
<title>Inteligence&#45;&gt;SAT</title>
<path fill="none" stroke="black" d="M379.46,-216.05C376.38,-208.06 372.63,-198.33 369.18,-189.4"/>
<polygon fill="black" stroke="black" points="372.34,-187.86 365.48,-179.79 365.81,-190.38 372.34,-187.86"/>
</g>
</g>
</svg>
