<?xml version="1.0" encoding="UTF-8" standalone="no"?>
<!DOCTYPE svg PUBLIC "-//W3C//DTD SVG 1.1//EN"
 "http://www.w3.org/Graphics/SVG/1.1/DTD/svg11.dtd">
<!-- Generated by graphviz version 2.50.0 (0)
 -->
<!-- Pages: 1 -->
<svg width="298pt" height="188pt"
 viewBox="0.00 0.00 298.44 188.00" xmlns="http://www.w3.org/2000/svg" xmlns:xlink="http://www.w3.org/1999/xlink">
<g id="graph0" class="graph" transform="scale(1 1) rotate(0) translate(4 184)">
<polygon fill="white" stroke="transparent" points="-4,4 -4,-184 294.44,-184 294.44,4 -4,4"/>
<!-- A -->
<g id="node1" class="node">
<title>A</title>
<ellipse fill="none" stroke="black" cx="27" cy="-162" rx="27" ry="18"/>
<text text-anchor="middle" x="27" y="-158.3" font-family="Times,serif" font-size="14.00">A</text>
</g>
<!-- B -->
<g id="node2" class="node">
<title>B</title>
<ellipse fill="none" stroke="black" cx="27" cy="-90" rx="27" ry="18"/>
<text text-anchor="middle" x="27" y="-86.3" font-family="Times,serif" font-size="14.00">B</text>
</g>
<!-- A&#45;&gt;B -->
<g id="edge1" class="edge">
<title>A&#45;&gt;B</title>
<path fill="none" stroke="black" d="M27,-143.7C27,-135.98 27,-126.71 27,-118.11"/>
<polygon fill="black" stroke="black" points="30.5,-118.1 27,-108.1 23.5,-118.1 30.5,-118.1"/>
</g>
<!-- C -->
<g id="node3" class="node">
<title>C</title>
<ellipse fill="none" stroke="black" cx="27" cy="-18" rx="27" ry="18"/>
<text text-anchor="middle" x="27" y="-14.3" font-family="Times,serif" font-size="14.00">C</text>
</g>
<!-- B&#45;&gt;C -->
<g id="edge2" class="edge">
<title>B&#45;&gt;C</title>
<path fill="none" stroke="black" d="M27,-71.7C27,-63.98 27,-54.71 27,-46.11"/>
<polygon fill="black" stroke="black" points="30.5,-46.1 27,-36.1 23.5,-46.1 30.5,-46.1"/>
</g>
<!-- X -->
<g id="node4" class="node">
<title>X</title>
<ellipse fill="none" stroke="black" cx="99" cy="-162" rx="27" ry="18"/>
<text text-anchor="middle" x="99" y="-158.3" font-family="Times,serif" font-size="14.00">X</text>
</g>
<!-- Y -->
<g id="node5" class="node">
<title>Y</title>
<ellipse fill="none" stroke="red" cx="99" cy="-90" rx="27" ry="18"/>
<text text-anchor="middle" x="99" y="-86.3" font-family="Times,serif" font-size="14.00">Y</text>
</g>
<!-- X&#45;&gt;Y -->
<g id="edge3" class="edge">
<title>X&#45;&gt;Y</title>
<path fill="none" stroke="black" d="M99,-143.7C99,-135.98 99,-126.71 99,-118.11"/>
<polygon fill="black" stroke="black" points="102.5,-118.1 99,-108.1 95.5,-118.1 102.5,-118.1"/>
</g>
<!-- Z -->
<g id="node6" class="node">
<title>Z</title>
<ellipse fill="none" stroke="black" cx="99" cy="-18" rx="27" ry="18"/>
<text text-anchor="middle" x="99" y="-14.3" font-family="Times,serif" font-size="14.00">Z</text>
</g>
<!-- Y&#45;&gt;Z -->
<g id="edge4" class="edge">
<title>Y&#45;&gt;Z</title>
<path fill="none" stroke="black" d="M99,-71.7C99,-63.98 99,-54.71 99,-46.11"/>
<polygon fill="black" stroke="black" points="102.5,-46.1 99,-36.1 95.5,-46.1 102.5,-46.1"/>
</g>
<!-- causal knowledge -->
<g id="node7" class="node">
<title>causal knowledge</title>
<ellipse fill="none" stroke="black" cx="217" cy="-162" rx="73.39" ry="18"/>
<text text-anchor="middle" x="217" y="-158.3" font-family="Times,serif" font-size="14.00">causal knowledge</text>
</g>
<!-- solve problems -->
<g id="node8" class="node">
<title>solve problems</title>
<ellipse fill="none" stroke="black" cx="217" cy="-90" rx="64.99" ry="18"/>
<text text-anchor="middle" x="217" y="-86.3" font-family="Times,serif" font-size="14.00">solve problems</text>
</g>
<!-- causal knowledge&#45;&gt;solve problems -->
<g id="edge5" class="edge">
<title>causal knowledge&#45;&gt;solve problems</title>
<path fill="none" stroke="black" d="M217,-143.7C217,-135.98 217,-126.71 217,-118.11"/>
<polygon fill="black" stroke="black" points="220.5,-118.1 217,-108.1 213.5,-118.1 220.5,-118.1"/>
</g>
<!-- job promotion -->
<g id="node9" class="node">
<title>job promotion</title>
<ellipse fill="none" stroke="black" cx="217" cy="-18" rx="61.99" ry="18"/>
<text text-anchor="middle" x="217" y="-14.3" font-family="Times,serif" font-size="14.00">job promotion</text>
</g>
<!-- solve problems&#45;&gt;job promotion -->
<g id="edge6" class="edge">
<title>solve problems&#45;&gt;job promotion</title>
<path fill="none" stroke="black" d="M217,-71.7C217,-63.98 217,-54.71 217,-46.11"/>
<polygon fill="black" stroke="black" points="220.5,-46.1 217,-36.1 213.5,-46.1 220.5,-46.1"/>
</g>
</g>
</svg>
