<?xml version="1.0" encoding="UTF-8" standalone="no"?>
<!DOCTYPE svg PUBLIC "-//W3C//DTD SVG 1.1//EN"
 "http://www.w3.org/Graphics/SVG/1.1/DTD/svg11.dtd">
<!-- Generated by graphviz version 2.44.1 (20200629.0846)
 -->
<!-- Pages: 1 -->
<svg width="224pt" height="188pt"
 viewBox="0.00 0.00 224.05 188.00" xmlns="http://www.w3.org/2000/svg" xmlns:xlink="http://www.w3.org/1999/xlink">
<g id="graph0" class="graph" transform="scale(1 1) rotate(0) translate(4 184)">
<polygon fill="white" stroke="transparent" points="-4,4 -4,-184 220.05,-184 220.05,4 -4,4"/>
<!-- X -->
<g id="node1" class="node">
<title>X</title>
<ellipse fill="none" stroke="black" cx="63" cy="-162" rx="27" ry="18"/>
<text text-anchor="middle" x="63" y="-158.3" font-family="Times,serif" font-size="14.00">X</text>
</g>
<!-- T -->
<g id="node2" class="node">
<title>T</title>
<ellipse fill="none" stroke="black" cx="27" cy="-90" rx="27" ry="18"/>
<text text-anchor="middle" x="27" y="-86.3" font-family="Times,serif" font-size="14.00">T</text>
</g>
<!-- X&#45;&gt;T -->
<g id="edge1" class="edge">
<title>X&#45;&gt;T</title>
<path fill="none" stroke="black" d="M54.65,-144.76C50.29,-136.28 44.85,-125.71 39.96,-116.2"/>
<polygon fill="black" stroke="black" points="42.99,-114.44 35.3,-107.15 36.77,-117.64 42.99,-114.44"/>
</g>
<!-- Y -->
<g id="node3" class="node">
<title>Y</title>
<ellipse fill="none" stroke="black" cx="66" cy="-18" rx="27" ry="18"/>
<text text-anchor="middle" x="66" y="-14.3" font-family="Times,serif" font-size="14.00">Y</text>
</g>
<!-- X&#45;&gt;Y -->
<g id="edge2" class="edge">
<title>X&#45;&gt;Y</title>
<path fill="none" stroke="black" d="M63.36,-143.87C63.87,-119.67 64.81,-75.21 65.42,-46.39"/>
<polygon fill="black" stroke="black" points="68.92,-46.26 65.64,-36.19 61.93,-46.11 68.92,-46.26"/>
</g>
<!-- T&#45;&gt;Y -->
<g id="edge3" class="edge">
<title>T&#45;&gt;Y</title>
<path fill="none" stroke="black" d="M36.05,-72.76C40.82,-64.19 46.78,-53.49 52.13,-43.9"/>
<polygon fill="black" stroke="black" points="55.19,-45.59 57,-35.15 49.08,-42.18 55.19,-45.59"/>
</g>
<!-- Inteligence -->
<g id="node4" class="node">
<title>Inteligence</title>
<ellipse fill="none" stroke="black" cx="166" cy="-162" rx="50.09" ry="18"/>
<text text-anchor="middle" x="166" y="-158.3" font-family="Times,serif" font-size="14.00">Inteligence</text>
</g>
<!-- Educ -->
<g id="node5" class="node">
<title>Educ</title>
<ellipse fill="none" stroke="black" cx="148" cy="-90" rx="28.7" ry="18"/>
<text text-anchor="middle" x="148" y="-86.3" font-family="Times,serif" font-size="14.00">Educ</text>
</g>
<!-- Inteligence&#45;&gt;Educ -->
<g id="edge4" class="edge">
<title>Inteligence&#45;&gt;Educ</title>
<path fill="none" stroke="black" d="M161.64,-144.05C159.64,-136.26 157.21,-126.82 154.96,-118.08"/>
<polygon fill="black" stroke="black" points="158.32,-117.09 152.44,-108.28 151.54,-118.83 158.32,-117.09"/>
</g>
<!-- Wage -->
<g id="node6" class="node">
<title>Wage</title>
<ellipse fill="none" stroke="black" cx="164" cy="-18" rx="31.4" ry="18"/>
<text text-anchor="middle" x="164" y="-14.3" font-family="Times,serif" font-size="14.00">Wage</text>
</g>
<!-- Inteligence&#45;&gt;Wage -->
<g id="edge5" class="edge">
<title>Inteligence&#45;&gt;Wage</title>
<path fill="none" stroke="black" d="M174.31,-143.79C178.74,-133.63 183.74,-120.38 186,-108 188.87,-92.26 189.13,-87.69 186,-72 184.18,-62.87 180.76,-53.35 177.15,-44.93"/>
<polygon fill="black" stroke="black" points="180.24,-43.29 172.9,-35.65 173.88,-46.2 180.24,-43.29"/>
</g>
<!-- Educ&#45;&gt;Wage -->
<g id="edge6" class="edge">
<title>Educ&#45;&gt;Wage</title>
<path fill="none" stroke="black" d="M151.87,-72.05C153.65,-64.26 155.81,-54.82 157.81,-46.08"/>
<polygon fill="black" stroke="black" points="161.24,-46.8 160.05,-36.28 154.41,-45.24 161.24,-46.8"/>
</g>
</g>
</svg>
