<?xml version="1.0" encoding="UTF-8" standalone="no"?>
<!DOCTYPE svg PUBLIC "-//W3C//DTD SVG 1.1//EN"
 "http://www.w3.org/Graphics/SVG/1.1/DTD/svg11.dtd">
<!-- Generated by graphviz version 2.50.0 (0)
 -->
<!-- Pages: 1 -->
<svg width="292pt" height="188pt"
 viewBox="0.00 0.00 291.95 188.00" xmlns="http://www.w3.org/2000/svg" xmlns:xlink="http://www.w3.org/1999/xlink">
<g id="graph0" class="graph" transform="scale(1 1) rotate(0) translate(4 184)">
<polygon fill="white" stroke="transparent" points="-4,4 -4,-184 287.95,-184 287.95,4 -4,4"/>
<!-- Z -->
<g id="node1" class="node">
<title>Z</title>
<ellipse fill="none" stroke="black" cx="27" cy="-162" rx="27" ry="18"/>
<text text-anchor="middle" x="27" y="-158.3" font-family="Times,serif" font-size="14.00">Z</text>
</g>
<!-- X -->
<g id="node2" class="node">
<title>X</title>
<ellipse fill="none" stroke="black" cx="27" cy="-90" rx="27" ry="18"/>
<text text-anchor="middle" x="27" y="-86.3" font-family="Times,serif" font-size="14.00">X</text>
</g>
<!-- Z&#45;&gt;X -->
<g id="edge1" class="edge">
<title>Z&#45;&gt;X</title>
<path fill="none" stroke="black" d="M27,-143.7C27,-135.98 27,-126.71 27,-118.11"/>
<polygon fill="black" stroke="black" points="30.5,-118.1 27,-108.1 23.5,-118.1 30.5,-118.1"/>
</g>
<!-- U -->
<g id="node3" class="node">
<title>U</title>
<ellipse fill="none" stroke="black" cx="99" cy="-162" rx="27" ry="18"/>
<text text-anchor="middle" x="99" y="-158.3" font-family="Times,serif" font-size="14.00">U</text>
</g>
<!-- U&#45;&gt;X -->
<g id="edge2" class="edge">
<title>U&#45;&gt;X</title>
<path fill="none" stroke="black" d="M84.43,-146.83C74.25,-136.94 60.48,-123.55 48.97,-112.36"/>
<polygon fill="black" stroke="black" points="51.41,-109.85 41.8,-105.38 46.53,-114.87 51.41,-109.85"/>
</g>
<!-- Y -->
<g id="node4" class="node">
<title>Y</title>
<ellipse fill="none" stroke="black" cx="99" cy="-90" rx="27" ry="18"/>
<text text-anchor="middle" x="99" y="-86.3" font-family="Times,serif" font-size="14.00">Y</text>
</g>
<!-- U&#45;&gt;Y -->
<g id="edge3" class="edge">
<title>U&#45;&gt;Y</title>
<path fill="none" stroke="black" d="M99,-143.7C99,-135.98 99,-126.71 99,-118.11"/>
<polygon fill="black" stroke="black" points="102.5,-118.1 99,-108.1 95.5,-118.1 102.5,-118.1"/>
</g>
<!-- medicine -->
<g id="node5" class="node">
<title>medicine</title>
<ellipse fill="none" stroke="black" cx="207" cy="-90" rx="43.59" ry="18"/>
<text text-anchor="middle" x="207" y="-86.3" font-family="Times,serif" font-size="14.00">medicine</text>
</g>
<!-- survived -->
<g id="node6" class="node">
<title>survived</title>
<ellipse fill="none" stroke="black" cx="243" cy="-18" rx="40.89" ry="18"/>
<text text-anchor="middle" x="243" y="-14.3" font-family="Times,serif" font-size="14.00">survived</text>
</g>
<!-- medicine&#45;&gt;survived -->
<g id="edge4" class="edge">
<title>medicine&#45;&gt;survived</title>
<path fill="none" stroke="black" d="M215.71,-72.05C219.92,-63.89 225.05,-53.91 229.72,-44.82"/>
<polygon fill="black" stroke="black" points="232.9,-46.28 234.37,-35.79 226.68,-43.08 232.9,-46.28"/>
</g>
<!-- severeness -->
<g id="node7" class="node">
<title>severeness</title>
<ellipse fill="none" stroke="black" cx="226" cy="-162" rx="48.19" ry="18"/>
<text text-anchor="middle" x="226" y="-158.3" font-family="Times,serif" font-size="14.00">severeness</text>
</g>
<!-- severeness&#45;&gt;medicine -->
<g id="edge6" class="edge">
<title>severeness&#45;&gt;medicine</title>
<path fill="none" stroke="black" d="M221.4,-144.05C219.29,-136.26 216.72,-126.82 214.35,-118.08"/>
<polygon fill="black" stroke="black" points="217.69,-117.01 211.69,-108.28 210.93,-118.84 217.69,-117.01"/>
</g>
<!-- severeness&#45;&gt;survived -->
<g id="edge5" class="edge">
<title>severeness&#45;&gt;survived</title>
<path fill="none" stroke="black" d="M240.05,-144.57C247.56,-134.68 256.06,-121.43 260,-108 266.06,-87.34 260.78,-63.32 254.55,-45.45"/>
<polygon fill="black" stroke="black" points="257.77,-44.07 250.96,-35.96 251.22,-46.55 257.77,-44.07"/>
</g>
</g>
</svg>
