<?xml version="1.0" encoding="UTF-8" standalone="no"?>
<!DOCTYPE svg PUBLIC "-//W3C//DTD SVG 1.1//EN"
 "http://www.w3.org/Graphics/SVG/1.1/DTD/svg11.dtd">
<!-- Generated by graphviz version 2.40.1 (20161225.0304)
 -->
<!-- Title: %3 Pages: 1 -->
<svg width="229pt" height="188pt"
 viewBox="0.00 0.00 229.39 188.00" xmlns="http://www.w3.org/2000/svg" xmlns:xlink="http://www.w3.org/1999/xlink">
<g id="graph0" class="graph" transform="scale(1 1) rotate(0) translate(4 184)">
<title>%3</title>
<polygon fill="#ffffff" stroke="transparent" points="-4,4 -4,-184 225.3886,-184 225.3886,4 -4,4"/>
<!-- X -->
<g id="node1" class="node">
<title>X</title>
<ellipse fill="none" stroke="#000000" cx="70" cy="-162" rx="27" ry="18"/>
<text text-anchor="middle" x="70" y="-157.8" font-family="Times,serif" font-size="14.00" fill="#000000">X</text>
</g>
<!-- T -->
<g id="node2" class="node">
<title>T</title>
<ellipse fill="none" stroke="#000000" cx="27" cy="-90" rx="27" ry="18"/>
<text text-anchor="middle" x="27" y="-85.8" font-family="Times,serif" font-size="14.00" fill="#000000">T</text>
</g>
<!-- X&#45;&gt;T -->
<g id="edge1" class="edge">
<title>X&#45;&gt;T</title>
<path fill="none" stroke="#000000" d="M59.8096,-144.937C54.6151,-136.2393 48.1894,-125.4799 42.4052,-115.7948"/>
<polygon fill="#000000" stroke="#000000" points="45.2496,-113.7314 37.1173,-106.9405 39.2398,-117.3206 45.2496,-113.7314"/>
</g>
<!-- Y -->
<g id="node3" class="node">
<title>Y</title>
<ellipse fill="none" stroke="#000000" cx="45" cy="-18" rx="27" ry="18"/>
<text text-anchor="middle" x="45" y="-13.8" font-family="Times,serif" font-size="14.00" fill="#000000">Y</text>
</g>
<!-- X&#45;&gt;Y -->
<g id="edge2" class="edge">
<title>X&#45;&gt;Y</title>
<path fill="none" stroke="#000000" d="M69.8836,-143.892C69.4649,-125.5892 67.974,-96.5772 63,-72 61.2162,-63.186 58.4261,-53.8148 55.5706,-45.3964"/>
<polygon fill="#000000" stroke="#000000" points="58.7702,-43.948 52.1182,-35.7017 52.1758,-46.2964 58.7702,-43.948"/>
</g>
<!-- T&#45;&gt;Y -->
<g id="edge3" class="edge">
<title>T&#45;&gt;Y</title>
<path fill="none" stroke="#000000" d="M31.4494,-72.2022C33.4398,-64.2406 35.8332,-54.6671 38.0511,-45.7957"/>
<polygon fill="#000000" stroke="#000000" points="41.5094,-46.3929 40.5394,-35.8425 34.7184,-44.6951 41.5094,-46.3929"/>
</g>
<!-- Inteligence -->
<g id="node4" class="node">
<title>Inteligence</title>
<ellipse fill="none" stroke="#000000" cx="172" cy="-162" rx="49.2774" ry="18"/>
<text text-anchor="middle" x="172" y="-157.8" font-family="Times,serif" font-size="14.00" fill="#000000">Inteligence</text>
</g>
<!-- Educ -->
<g id="node5" class="node">
<title>Educ</title>
<ellipse fill="none" stroke="#000000" cx="149" cy="-90" rx="28.0565" ry="18"/>
<text text-anchor="middle" x="149" y="-85.8" font-family="Times,serif" font-size="14.00" fill="#000000">Educ</text>
</g>
<!-- Inteligence&#45;&gt;Educ -->
<g id="edge4" class="edge">
<title>Inteligence&#45;&gt;Educ</title>
<path fill="none" stroke="#000000" d="M166.1961,-143.8314C163.6435,-135.8406 160.59,-126.2819 157.7692,-117.4514"/>
<polygon fill="#000000" stroke="#000000" points="161.0994,-116.3741 154.7223,-107.9134 154.4313,-118.5043 161.0994,-116.3741"/>
</g>
<!-- Wage -->
<g id="node6" class="node">
<title>Wage</title>
<ellipse fill="none" stroke="#000000" cx="177" cy="-18" rx="30.0438" ry="18"/>
<text text-anchor="middle" x="177" y="-13.8" font-family="Times,serif" font-size="14.00" fill="#000000">Wage</text>
</g>
<!-- Inteligence&#45;&gt;Wage -->
<g id="edge5" class="edge">
<title>Inteligence&#45;&gt;Wage</title>
<path fill="none" stroke="#000000" d="M177.9698,-143.7319C181.0408,-133.3756 184.4563,-120.105 186,-108 188.6444,-87.2634 186.1047,-63.7558 183.0575,-45.9668"/>
<polygon fill="#000000" stroke="#000000" points="186.4654,-45.1494 181.1885,-35.9622 179.5845,-46.4349 186.4654,-45.1494"/>
</g>
<!-- Educ&#45;&gt;Wage -->
<g id="edge6" class="edge">
<title>Educ&#45;&gt;Wage</title>
<path fill="none" stroke="#000000" d="M155.9214,-72.2022C159.1086,-64.0064 162.9602,-54.1024 166.4943,-45.0145"/>
<polygon fill="#000000" stroke="#000000" points="169.7958,-46.1817 170.1583,-35.593 163.2717,-43.6445 169.7958,-46.1817"/>
</g>
</g>
</svg>
