<?xml version="1.0" encoding="UTF-8" standalone="no"?>
<!DOCTYPE svg PUBLIC "-//W3C//DTD SVG 1.1//EN"
 "http://www.w3.org/Graphics/SVG/1.1/DTD/svg11.dtd">
<!-- Generated by graphviz version 2.40.1 (20161225.0304)
 -->
<!-- Title: %3 Pages: 1 -->
<svg width="392pt" height="260pt"
 viewBox="0.00 0.00 391.52 260.00" xmlns="http://www.w3.org/2000/svg" xmlns:xlink="http://www.w3.org/1999/xlink">
<g id="graph0" class="graph" transform="scale(1 1) rotate(0) translate(4 256)">
<title>%3</title>
<polygon fill="#ffffff" stroke="transparent" points="-4,4 -4,-256 387.5221,-256 387.5221,4 -4,4"/>
<!-- X -->
<g id="node1" class="node">
<title>X</title>
<ellipse fill="none" stroke="#000000" cx="55" cy="-234" rx="27" ry="18"/>
<text text-anchor="middle" x="55" y="-229.8" font-family="Times,serif" font-size="14.00" fill="#000000">X</text>
</g>
<!-- U -->
<g id="node2" class="node">
<title>U</title>
<ellipse fill="none" stroke="#000000" cx="55" cy="-162" rx="27" ry="18"/>
<text text-anchor="middle" x="55" y="-157.8" font-family="Times,serif" font-size="14.00" fill="#000000">U</text>
</g>
<!-- X&#45;&gt;U -->
<g id="edge1" class="edge">
<title>X&#45;&gt;U</title>
<path fill="none" stroke="#000000" d="M55,-215.8314C55,-208.131 55,-198.9743 55,-190.4166"/>
<polygon fill="#000000" stroke="#000000" points="58.5001,-190.4132 55,-180.4133 51.5001,-190.4133 58.5001,-190.4132"/>
</g>
<!-- T -->
<g id="node3" class="node">
<title>T</title>
<ellipse fill="none" stroke="#000000" cx="27" cy="-90" rx="27" ry="18"/>
<text text-anchor="middle" x="27" y="-85.8" font-family="Times,serif" font-size="14.00" fill="#000000">T</text>
</g>
<!-- U&#45;&gt;T -->
<g id="edge2" class="edge">
<title>U&#45;&gt;T</title>
<path fill="none" stroke="#000000" d="M48.222,-144.5708C45.0128,-136.3187 41.1065,-126.2738 37.5242,-117.0623"/>
<polygon fill="#000000" stroke="#000000" points="40.6992,-115.5697 33.8126,-107.5182 34.1752,-118.1069 40.6992,-115.5697"/>
</g>
<!-- Y -->
<g id="node4" class="node">
<title>Y</title>
<ellipse fill="none" stroke="#000000" cx="55" cy="-18" rx="27" ry="18"/>
<text text-anchor="middle" x="55" y="-13.8" font-family="Times,serif" font-size="14.00" fill="#000000">Y</text>
</g>
<!-- U&#45;&gt;Y -->
<g id="edge4" class="edge">
<title>U&#45;&gt;Y</title>
<path fill="none" stroke="#000000" d="M58.3315,-144.0736C60.1087,-133.5982 62.1087,-120.0982 63,-108 64.1756,-92.0432 64.1756,-87.9568 63,-72 62.3733,-63.4935 61.1985,-54.2939 59.9384,-45.9399"/>
<polygon fill="#000000" stroke="#000000" points="63.3718,-45.2455 58.3315,-35.9264 56.4602,-46.3546 63.3718,-45.2455"/>
</g>
<!-- T&#45;&gt;Y -->
<g id="edge3" class="edge">
<title>T&#45;&gt;Y</title>
<path fill="none" stroke="#000000" d="M33.778,-72.5708C36.9872,-64.3187 40.8935,-54.2738 44.4758,-45.0623"/>
<polygon fill="#000000" stroke="#000000" points="47.8248,-46.1069 48.1874,-35.5182 41.3008,-43.5697 47.8248,-46.1069"/>
</g>
<!-- Inteligence -->
<g id="node5" class="node">
<title>Inteligence</title>
<ellipse fill="none" stroke="#000000" cx="245" cy="-162" rx="49.2774" ry="18"/>
<text text-anchor="middle" x="245" y="-157.8" font-family="Times,serif" font-size="14.00" fill="#000000">Inteligence</text>
</g>
<!-- QI -->
<g id="node6" class="node">
<title>QI</title>
<ellipse fill="none" stroke="#000000" cx="137" cy="-90" rx="27" ry="18"/>
<text text-anchor="middle" x="137" y="-85.8" font-family="Times,serif" font-size="14.00" fill="#000000">QI</text>
</g>
<!-- Inteligence&#45;&gt;QI -->
<g id="edge5" class="edge">
<title>Inteligence&#45;&gt;QI</title>
<path fill="none" stroke="#000000" d="M221.2989,-146.1993C204.6959,-135.1306 182.4427,-120.2952 164.9694,-108.6462"/>
<polygon fill="#000000" stroke="#000000" points="166.5848,-105.5168 156.3228,-102.8819 162.7019,-111.3411 166.5848,-105.5168"/>
</g>
<!-- SAT -->
<g id="node7" class="node">
<title>SAT</title>
<ellipse fill="none" stroke="#000000" cx="209" cy="-90" rx="27" ry="18"/>
<text text-anchor="middle" x="209" y="-85.8" font-family="Times,serif" font-size="14.00" fill="#000000">SAT</text>
</g>
<!-- Inteligence&#45;&gt;SAT -->
<g id="edge6" class="edge">
<title>Inteligence&#45;&gt;SAT</title>
<path fill="none" stroke="#000000" d="M236.1011,-144.2022C231.8978,-135.7955 226.7959,-125.5917 222.1575,-116.3149"/>
<polygon fill="#000000" stroke="#000000" points="225.1513,-114.4762 217.5486,-107.0972 218.8903,-117.6068 225.1513,-114.4762"/>
</g>
<!-- Educ -->
<g id="node10" class="node">
<title>Educ</title>
<ellipse fill="none" stroke="#000000" cx="282" cy="-90" rx="28.0565" ry="18"/>
<text text-anchor="middle" x="282" y="-85.8" font-family="Times,serif" font-size="14.00" fill="#000000">Educ</text>
</g>
<!-- Inteligence&#45;&gt;Educ -->
<g id="edge9" class="edge">
<title>Inteligence&#45;&gt;Educ</title>
<path fill="none" stroke="#000000" d="M254.1461,-144.2022C258.4344,-135.8574 263.6327,-125.7417 268.3718,-116.5197"/>
<polygon fill="#000000" stroke="#000000" points="271.6291,-117.8387 273.0868,-107.3446 265.4031,-114.6391 271.6291,-117.8387"/>
</g>
<!-- Wage -->
<g id="node11" class="node">
<title>Wage</title>
<ellipse fill="none" stroke="#000000" cx="310" cy="-18" rx="30.0438" ry="18"/>
<text text-anchor="middle" x="310" y="-13.8" font-family="Times,serif" font-size="14.00" fill="#000000">Wage</text>
</g>
<!-- Inteligence&#45;&gt;Wage -->
<g id="edge11" class="edge">
<title>Inteligence&#45;&gt;Wage</title>
<path fill="none" stroke="#000000" d="M276.225,-147.9734C292.139,-139.0127 309.993,-125.7228 319,-108 328.8446,-88.6291 325.4171,-63.9039 320.1891,-45.2723"/>
<polygon fill="#000000" stroke="#000000" points="323.4964,-44.1214 317.1723,-35.6211 316.8152,-46.2099 323.4964,-44.1214"/>
</g>
<!-- Father Educ -->
<g id="node8" class="node">
<title>Father Educ</title>
<ellipse fill="none" stroke="#000000" cx="199" cy="-234" rx="53.1612" ry="18"/>
<text text-anchor="middle" x="199" y="-229.8" font-family="Times,serif" font-size="14.00" fill="#000000">Father Educ</text>
</g>
<!-- Father Educ&#45;&gt;Inteligence -->
<g id="edge7" class="edge">
<title>Father Educ&#45;&gt;Inteligence</title>
<path fill="none" stroke="#000000" d="M210.3708,-216.2022C215.7742,-207.7448 222.3396,-197.4685 228.295,-188.147"/>
<polygon fill="#000000" stroke="#000000" points="231.3255,-189.9044 233.76,-179.593 225.4266,-186.1356 231.3255,-189.9044"/>
</g>
<!-- Mother Educ -->
<g id="node9" class="node">
<title>Mother Educ</title>
<ellipse fill="none" stroke="#000000" cx="327" cy="-234" rx="56.5441" ry="18"/>
<text text-anchor="middle" x="327" y="-229.8" font-family="Times,serif" font-size="14.00" fill="#000000">Mother Educ</text>
</g>
<!-- Mother Educ&#45;&gt;Inteligence -->
<g id="edge8" class="edge">
<title>Mother Educ&#45;&gt;Inteligence</title>
<path fill="none" stroke="#000000" d="M307.5671,-216.937C296.8696,-207.5441 283.4337,-195.7467 271.7576,-185.4944"/>
<polygon fill="#000000" stroke="#000000" points="273.8342,-182.6601 264.0105,-178.6921 269.2156,-187.9202 273.8342,-182.6601"/>
</g>
<!-- Educ&#45;&gt;Wage -->
<g id="edge10" class="edge">
<title>Educ&#45;&gt;Wage</title>
<path fill="none" stroke="#000000" d="M288.9214,-72.2022C292.1086,-64.0064 295.9602,-54.1024 299.4943,-45.0145"/>
<polygon fill="#000000" stroke="#000000" points="302.7958,-46.1817 303.1583,-35.593 296.2717,-43.6445 302.7958,-46.1817"/>
</g>
</g>
</svg>
