<?xml version="1.0" encoding="UTF-8" standalone="no"?>
<!DOCTYPE svg PUBLIC "-//W3C//DTD SVG 1.1//EN"
 "http://www.w3.org/Graphics/SVG/1.1/DTD/svg11.dtd">
<!-- Generated by graphviz version 2.40.1 (20161225.0304)
 -->
<!-- Title: %3 Pages: 1 -->
<svg width="206pt" height="188pt"
 viewBox="0.00 0.00 206.00 188.00" xmlns="http://www.w3.org/2000/svg" xmlns:xlink="http://www.w3.org/1999/xlink">
<g id="graph0" class="graph" transform="scale(1 1) rotate(0) translate(4 184)">
<title>%3</title>
<polygon fill="#ffffff" stroke="transparent" points="-4,4 -4,-184 202,-184 202,4 -4,4"/>
<!-- C -->
<g id="node1" class="node">
<title>C</title>
<ellipse fill="none" stroke="#000000" cx="99" cy="-162" rx="27" ry="18"/>
<text text-anchor="middle" x="99" y="-157.8" font-family="Times,serif" font-size="14.00" fill="#000000">C</text>
</g>
<!-- A -->
<g id="node2" class="node">
<title>A</title>
<ellipse fill="none" stroke="#000000" cx="27" cy="-90" rx="27" ry="18"/>
<text text-anchor="middle" x="27" y="-85.8" font-family="Times,serif" font-size="14.00" fill="#000000">A</text>
</g>
<!-- C&#45;&gt;A -->
<g id="edge1" class="edge">
<title>C&#45;&gt;A</title>
<path fill="none" stroke="#000000" d="M83.7307,-146.7307C73.803,-136.803 60.6847,-123.6847 49.5637,-112.5637"/>
<polygon fill="#000000" stroke="#000000" points="51.7933,-109.8436 42.2473,-105.2473 46.8436,-114.7933 51.7933,-109.8436"/>
</g>
<!-- B -->
<g id="node3" class="node">
<title>B</title>
<ellipse fill="none" stroke="#000000" cx="99" cy="-90" rx="27" ry="18"/>
<text text-anchor="middle" x="99" y="-85.8" font-family="Times,serif" font-size="14.00" fill="#000000">B</text>
</g>
<!-- C&#45;&gt;B -->
<g id="edge2" class="edge">
<title>C&#45;&gt;B</title>
<path fill="none" stroke="#000000" d="M99,-143.8314C99,-136.131 99,-126.9743 99,-118.4166"/>
<polygon fill="#000000" stroke="#000000" points="102.5001,-118.4132 99,-108.4133 95.5001,-118.4133 102.5001,-118.4132"/>
</g>
<!-- G -->
<g id="node7" class="node">
<title>G</title>
<ellipse fill="none" stroke="#000000" cx="27" cy="-18" rx="27" ry="18"/>
<text text-anchor="middle" x="27" y="-13.8" font-family="Times,serif" font-size="14.00" fill="#000000">G</text>
</g>
<!-- A&#45;&gt;G -->
<g id="edge6" class="edge">
<title>A&#45;&gt;G</title>
<path fill="none" stroke="#000000" d="M27,-71.8314C27,-64.131 27,-54.9743 27,-46.4166"/>
<polygon fill="#000000" stroke="#000000" points="30.5001,-46.4132 27,-36.4133 23.5001,-46.4133 30.5001,-46.4132"/>
</g>
<!-- E -->
<g id="node5" class="node">
<title>E</title>
<ellipse fill="none" stroke="#000000" cx="135" cy="-18" rx="27" ry="18"/>
<text text-anchor="middle" x="135" y="-13.8" font-family="Times,serif" font-size="14.00" fill="#000000">E</text>
</g>
<!-- B&#45;&gt;E -->
<g id="edge4" class="edge">
<title>B&#45;&gt;E</title>
<path fill="none" stroke="#000000" d="M107.7146,-72.5708C111.9597,-64.0807 117.1536,-53.6929 121.8663,-44.2674"/>
<polygon fill="#000000" stroke="#000000" points="125.024,-45.7782 126.3657,-35.2687 118.763,-42.6477 125.024,-45.7782"/>
</g>
<!-- D -->
<g id="node4" class="node">
<title>D</title>
<ellipse fill="none" stroke="#000000" cx="27" cy="-162" rx="27" ry="18"/>
<text text-anchor="middle" x="27" y="-157.8" font-family="Times,serif" font-size="14.00" fill="#000000">D</text>
</g>
<!-- D&#45;&gt;A -->
<g id="edge3" class="edge">
<title>D&#45;&gt;A</title>
<path fill="none" stroke="#000000" d="M27,-143.8314C27,-136.131 27,-126.9743 27,-118.4166"/>
<polygon fill="#000000" stroke="#000000" points="30.5001,-118.4132 27,-108.4133 23.5001,-118.4133 30.5001,-118.4132"/>
</g>
<!-- F -->
<g id="node6" class="node">
<title>F</title>
<ellipse fill="none" stroke="#000000" cx="171" cy="-90" rx="27" ry="18"/>
<text text-anchor="middle" x="171" y="-85.8" font-family="Times,serif" font-size="14.00" fill="#000000">F</text>
</g>
<!-- F&#45;&gt;E -->
<g id="edge5" class="edge">
<title>F&#45;&gt;E</title>
<path fill="none" stroke="#000000" d="M162.2854,-72.5708C158.0403,-64.0807 152.8464,-53.6929 148.1337,-44.2674"/>
<polygon fill="#000000" stroke="#000000" points="151.237,-42.6477 143.6343,-35.2687 144.976,-45.7782 151.237,-42.6477"/>
</g>
</g>
</svg>
