<?xml version="1.0" encoding="UTF-8" standalone="no"?>
<!DOCTYPE svg PUBLIC "-//W3C//DTD SVG 1.1//EN"
 "http://www.w3.org/Graphics/SVG/1.1/DTD/svg11.dtd">
<!-- Generated by graphviz version 2.50.0 (0)
 -->
<!-- Pages: 1 -->
<svg width="411pt" height="260pt"
 viewBox="0.00 0.00 411.39 260.00" xmlns="http://www.w3.org/2000/svg" xmlns:xlink="http://www.w3.org/1999/xlink">
<g id="graph0" class="graph" transform="scale(1 1) rotate(0) translate(4 256)">
<polygon fill="white" stroke="transparent" points="-4,4 -4,-256 407.39,-256 407.39,4 -4,4"/>
<!-- X -->
<g id="node1" class="node">
<title>X</title>
<ellipse fill="none" stroke="black" cx="55" cy="-234" rx="27" ry="18"/>
<text text-anchor="middle" x="55" y="-230.3" font-family="Times,serif" font-size="14.00">X</text>
</g>
<!-- U -->
<g id="node2" class="node">
<title>U</title>
<ellipse fill="none" stroke="black" cx="55" cy="-162" rx="27" ry="18"/>
<text text-anchor="middle" x="55" y="-158.3" font-family="Times,serif" font-size="14.00">U</text>
</g>
<!-- X&#45;&gt;U -->
<g id="edge1" class="edge">
<title>X&#45;&gt;U</title>
<path fill="none" stroke="black" d="M55,-215.7C55,-207.98 55,-198.71 55,-190.11"/>
<polygon fill="black" stroke="black" points="58.5,-190.1 55,-180.1 51.5,-190.1 58.5,-190.1"/>
</g>
<!-- T -->
<g id="node3" class="node">
<title>T</title>
<ellipse fill="none" stroke="black" cx="27" cy="-90" rx="27" ry="18"/>
<text text-anchor="middle" x="27" y="-86.3" font-family="Times,serif" font-size="14.00">T</text>
</g>
<!-- U&#45;&gt;T -->
<g id="edge2" class="edge">
<title>U&#45;&gt;T</title>
<path fill="none" stroke="black" d="M48.36,-144.41C45.09,-136.22 41.06,-126.14 37.38,-116.95"/>
<polygon fill="black" stroke="black" points="40.55,-115.45 33.59,-107.47 34.05,-118.05 40.55,-115.45"/>
</g>
<!-- Y -->
<g id="node4" class="node">
<title>Y</title>
<ellipse fill="none" stroke="black" cx="55" cy="-18" rx="27" ry="18"/>
<text text-anchor="middle" x="55" y="-14.3" font-family="Times,serif" font-size="14.00">Y</text>
</g>
<!-- U&#45;&gt;Y -->
<g id="edge4" class="edge">
<title>U&#45;&gt;Y</title>
<path fill="none" stroke="black" d="M58.25,-143.89C60.05,-133.54 62.09,-120.06 63,-108 64.2,-92.04 64.2,-87.96 63,-72 62.36,-63.52 61.16,-54.34 59.88,-46.04"/>
<polygon fill="black" stroke="black" points="63.32,-45.41 58.25,-36.11 56.42,-46.55 63.32,-45.41"/>
</g>
<!-- T&#45;&gt;Y -->
<g id="edge3" class="edge">
<title>T&#45;&gt;Y</title>
<path fill="none" stroke="black" d="M33.64,-72.41C36.91,-64.22 40.94,-54.14 44.62,-44.95"/>
<polygon fill="black" stroke="black" points="47.95,-46.05 48.41,-35.47 41.45,-43.45 47.95,-46.05"/>
</g>
<!-- Intelligence -->
<g id="node5" class="node">
<title>Intelligence</title>
<ellipse fill="none" stroke="black" cx="246" cy="-162" rx="51.99" ry="18"/>
<text text-anchor="middle" x="246" y="-158.3" font-family="Times,serif" font-size="14.00">Intelligence</text>
</g>
<!-- IQ -->
<g id="node6" class="node">
<title>IQ</title>
<ellipse fill="none" stroke="black" cx="137" cy="-90" rx="27" ry="18"/>
<text text-anchor="middle" x="137" y="-86.3" font-family="Times,serif" font-size="14.00">IQ</text>
</g>
<!-- Intelligence&#45;&gt;IQ -->
<g id="edge5" class="edge">
<title>Intelligence&#45;&gt;IQ</title>
<path fill="none" stroke="black" d="M222.35,-145.81C205.39,-134.92 182.5,-120.22 164.69,-108.78"/>
<polygon fill="black" stroke="black" points="166.2,-105.6 155.9,-103.14 162.42,-111.49 166.2,-105.6"/>
</g>
<!-- SAT -->
<g id="node7" class="node">
<title>SAT</title>
<ellipse fill="none" stroke="black" cx="209" cy="-90" rx="27" ry="18"/>
<text text-anchor="middle" x="209" y="-86.3" font-family="Times,serif" font-size="14.00">SAT</text>
</g>
<!-- Intelligence&#45;&gt;SAT -->
<g id="edge6" class="edge">
<title>Intelligence&#45;&gt;SAT</title>
<path fill="none" stroke="black" d="M237.04,-144.05C232.66,-135.77 227.3,-125.62 222.44,-116.42"/>
<polygon fill="black" stroke="black" points="225.39,-114.51 217.62,-107.31 219.2,-117.78 225.39,-114.51"/>
</g>
<!-- Educ -->
<g id="node10" class="node">
<title>Educ</title>
<ellipse fill="none" stroke="black" cx="283" cy="-90" rx="28.7" ry="18"/>
<text text-anchor="middle" x="283" y="-86.3" font-family="Times,serif" font-size="14.00">Educ</text>
</g>
<!-- Intelligence&#45;&gt;Educ -->
<g id="edge9" class="edge">
<title>Intelligence&#45;&gt;Educ</title>
<path fill="none" stroke="black" d="M254.96,-144.05C259.34,-135.77 264.7,-125.62 269.56,-116.42"/>
<polygon fill="black" stroke="black" points="272.8,-117.78 274.38,-107.31 266.61,-114.51 272.8,-117.78"/>
</g>
<!-- Wage -->
<g id="node11" class="node">
<title>Wage</title>
<ellipse fill="none" stroke="black" cx="311" cy="-18" rx="31.4" ry="18"/>
<text text-anchor="middle" x="311" y="-14.3" font-family="Times,serif" font-size="14.00">Wage</text>
</g>
<!-- Intelligence&#45;&gt;Wage -->
<g id="edge11" class="edge">
<title>Intelligence&#45;&gt;Wage</title>
<path fill="none" stroke="black" d="M277.62,-147.47C293.74,-138.75 311.84,-125.7 321,-108 331.01,-88.66 327.08,-63.84 321.46,-45.33"/>
<polygon fill="black" stroke="black" points="324.75,-44.13 318.24,-35.77 318.11,-46.36 324.75,-44.13"/>
</g>
<!-- Father&#39;s Educ -->
<g id="node8" class="node">
<title>Father&#39;s Educ</title>
<ellipse fill="none" stroke="black" cx="202" cy="-234" rx="58.49" ry="18"/>
<text text-anchor="middle" x="202" y="-230.3" font-family="Times,serif" font-size="14.00">Father&#39;s Educ</text>
</g>
<!-- Father&#39;s Educ&#45;&gt;Intelligence -->
<g id="edge7" class="edge">
<title>Father&#39;s Educ&#45;&gt;Intelligence</title>
<path fill="none" stroke="black" d="M212.65,-216.05C217.84,-207.8 224.19,-197.7 229.95,-188.54"/>
<polygon fill="black" stroke="black" points="233.09,-190.12 235.45,-179.79 227.16,-186.39 233.09,-190.12"/>
</g>
<!-- Mother&#39;s Educ -->
<g id="node9" class="node">
<title>Mother&#39;s Educ</title>
<ellipse fill="none" stroke="black" cx="341" cy="-234" rx="62.29" ry="18"/>
<text text-anchor="middle" x="341" y="-230.3" font-family="Times,serif" font-size="14.00">Mother&#39;s Educ</text>
</g>
<!-- Mother&#39;s Educ&#45;&gt;Intelligence -->
<g id="edge8" class="edge">
<title>Mother&#39;s Educ&#45;&gt;Intelligence</title>
<path fill="none" stroke="black" d="M318.97,-216.76C306.08,-207.27 289.63,-195.15 275.62,-184.82"/>
<polygon fill="black" stroke="black" points="277.39,-181.78 267.26,-178.67 273.24,-187.42 277.39,-181.78"/>
</g>
<!-- Educ&#45;&gt;Wage -->
<g id="edge10" class="edge">
<title>Educ&#45;&gt;Wage</title>
<path fill="none" stroke="black" d="M289.64,-72.41C292.87,-64.34 296.83,-54.43 300.46,-45.35"/>
<polygon fill="black" stroke="black" points="303.75,-46.54 304.22,-35.96 297.25,-43.94 303.75,-46.54"/>
</g>
</g>
</svg>
