<?xml version="1.0" encoding="UTF-8" standalone="no"?>
<!DOCTYPE svg PUBLIC "-//W3C//DTD SVG 1.1//EN"
 "http://www.w3.org/Graphics/SVG/1.1/DTD/svg11.dtd">
<!-- Generated by graphviz version 2.50.0 (0)
 -->
<!-- Pages: 1 -->
<svg width="218pt" height="188pt"
 viewBox="0.00 0.00 218.20 188.00" xmlns="http://www.w3.org/2000/svg" xmlns:xlink="http://www.w3.org/1999/xlink">
<g id="graph0" class="graph" transform="scale(1 1) rotate(0) translate(4 184)">
<polygon fill="white" stroke="transparent" points="-4,4 -4,-184 214.2,-184 214.2,4 -4,4"/>
<!-- T -->
<g id="node1" class="node">
<title>T</title>
<ellipse fill="none" stroke="black" cx="37" cy="-162" rx="27" ry="18"/>
<text text-anchor="middle" x="37" y="-158.3" font-family="Times,serif" font-size="14.00">T</text>
</g>
<!-- X -->
<g id="node2" class="node">
<title>X</title>
<ellipse fill="none" stroke="red" cx="27" cy="-18" rx="27" ry="18"/>
<text text-anchor="middle" x="27" y="-14.3" font-family="Times,serif" font-size="14.00">X</text>
</g>
<!-- T&#45;&gt;X -->
<g id="edge1" class="edge">
<title>T&#45;&gt;X</title>
<path fill="none" stroke="black" d="M26.76,-145.02C20.88,-134.86 14.06,-121.18 11,-108 6.13,-87.03 11.07,-63 16.7,-45.2"/>
<polygon fill="black" stroke="black" points="20.09,-46.1 20.03,-35.5 13.47,-43.83 20.09,-46.1"/>
</g>
<!-- Y -->
<g id="node3" class="node">
<title>Y</title>
<ellipse fill="none" stroke="black" cx="47" cy="-90" rx="27" ry="18"/>
<text text-anchor="middle" x="47" y="-86.3" font-family="Times,serif" font-size="14.00">Y</text>
</g>
<!-- T&#45;&gt;Y -->
<g id="edge2" class="edge">
<title>T&#45;&gt;Y</title>
<path fill="none" stroke="black" d="M39.42,-144.05C40.52,-136.35 41.85,-127.03 43.09,-118.36"/>
<polygon fill="black" stroke="black" points="46.58,-118.67 44.53,-108.28 39.65,-117.68 46.58,-118.67"/>
</g>
<!-- Y&#45;&gt;X -->
<g id="edge3" class="edge">
<title>Y&#45;&gt;X</title>
<path fill="none" stroke="black" d="M42.16,-72.05C39.9,-64.14 37.15,-54.54 34.63,-45.69"/>
<polygon fill="black" stroke="black" points="37.91,-44.44 31.8,-35.79 31.18,-46.37 37.91,-44.44"/>
</g>
<!-- Educ -->
<g id="node4" class="node">
<title>Educ</title>
<ellipse fill="none" stroke="black" cx="129" cy="-162" rx="28.7" ry="18"/>
<text text-anchor="middle" x="129" y="-158.3" font-family="Times,serif" font-size="14.00">Educ</text>
</g>
<!-- Investments -->
<g id="node5" class="node">
<title>Investments</title>
<ellipse fill="none" stroke="black" cx="140" cy="-18" rx="53.89" ry="18"/>
<text text-anchor="middle" x="140" y="-14.3" font-family="Times,serif" font-size="14.00">Investments</text>
</g>
<!-- Educ&#45;&gt;Investments -->
<g id="edge4" class="edge">
<title>Educ&#45;&gt;Investments</title>
<path fill="none" stroke="black" d="M130.33,-143.87C132.2,-119.67 135.65,-75.21 137.88,-46.39"/>
<polygon fill="black" stroke="black" points="141.39,-46.43 138.67,-36.19 134.41,-45.89 141.39,-46.43"/>
</g>
<!-- Wage -->
<g id="node6" class="node">
<title>Wage</title>
<ellipse fill="none" stroke="black" cx="179" cy="-90" rx="31.4" ry="18"/>
<text text-anchor="middle" x="179" y="-86.3" font-family="Times,serif" font-size="14.00">Wage</text>
</g>
<!-- Educ&#45;&gt;Wage -->
<g id="edge5" class="edge">
<title>Educ&#45;&gt;Wage</title>
<path fill="none" stroke="black" d="M140.35,-145.12C146.67,-136.26 154.69,-125.04 161.77,-115.12"/>
<polygon fill="black" stroke="black" points="164.73,-116.99 167.7,-106.82 159.04,-112.92 164.73,-116.99"/>
</g>
<!-- Wage&#45;&gt;Investments -->
<g id="edge6" class="edge">
<title>Wage&#45;&gt;Investments</title>
<path fill="none" stroke="black" d="M169.95,-72.76C165.36,-64.53 159.68,-54.32 154.49,-45.02"/>
<polygon fill="black" stroke="black" points="157.47,-43.16 149.54,-36.12 151.35,-46.56 157.47,-43.16"/>
</g>
</g>
</svg>
