<?xml version="1.0" encoding="UTF-8" standalone="no"?>
<!DOCTYPE svg PUBLIC "-//W3C//DTD SVG 1.1//EN"
 "http://www.w3.org/Graphics/SVG/1.1/DTD/svg11.dtd">
<!-- Generated by graphviz version 2.49.1 (20211004.0028)
 -->
<!-- Pages: 1 -->
<svg width="472pt" height="260pt"
 viewBox="0.00 0.00 471.64 260.00" xmlns="http://www.w3.org/2000/svg" xmlns:xlink="http://www.w3.org/1999/xlink">
<g id="graph0" class="graph" transform="scale(1 1) rotate(0) translate(4 256)">
<polygon fill="white" stroke="transparent" points="-4,4 -4,-256 467.64,-256 467.64,4 -4,4"/>
<!-- X -->
<g id="node1" class="node">
<title>X</title>
<ellipse fill="none" stroke="black" cx="55" cy="-234" rx="27" ry="18"/>
<text text-anchor="middle" x="55" y="-230.3" font-family="Times,serif" font-size="14.00">X</text>
</g>
<!-- U -->
<g id="node2" class="node">
<title>U</title>
<ellipse fill="none" stroke="black" cx="55" cy="-162" rx="27" ry="18"/>
<text text-anchor="middle" x="55" y="-158.3" font-family="Times,serif" font-size="14.00">U</text>
</g>
<!-- X&#45;&gt;U -->
<g id="edge1" class="edge">
<title>X&#45;&gt;U</title>
<path fill="none" stroke="black" d="M55,-215.7C55,-207.98 55,-198.71 55,-190.11"/>
<polygon fill="black" stroke="black" points="58.5,-190.1 55,-180.1 51.5,-190.1 58.5,-190.1"/>
</g>
<!-- T -->
<g id="node3" class="node">
<title>T</title>
<ellipse fill="none" stroke="black" cx="27" cy="-90" rx="27" ry="18"/>
<text text-anchor="middle" x="27" y="-86.3" font-family="Times,serif" font-size="14.00">T</text>
</g>
<!-- U&#45;&gt;T -->
<g id="edge2" class="edge">
<title>U&#45;&gt;T</title>
<path fill="none" stroke="black" d="M48.36,-144.41C45.09,-136.22 41.06,-126.14 37.38,-116.95"/>
<polygon fill="black" stroke="black" points="40.55,-115.45 33.59,-107.47 34.05,-118.05 40.55,-115.45"/>
</g>
<!-- Y -->
<g id="node4" class="node">
<title>Y</title>
<ellipse fill="none" stroke="black" cx="55" cy="-18" rx="27" ry="18"/>
<text text-anchor="middle" x="55" y="-14.3" font-family="Times,serif" font-size="14.00">Y</text>
</g>
<!-- U&#45;&gt;Y -->
<g id="edge4" class="edge">
<title>U&#45;&gt;Y</title>
<path fill="none" stroke="black" d="M58.25,-143.89C60.05,-133.54 62.09,-120.06 63,-108 64.2,-92.04 64.2,-87.96 63,-72 62.36,-63.52 61.16,-54.34 59.88,-46.04"/>
<polygon fill="black" stroke="black" points="63.32,-45.41 58.25,-36.11 56.42,-46.55 63.32,-45.41"/>
</g>
<!-- T&#45;&gt;Y -->
<g id="edge3" class="edge">
<title>T&#45;&gt;Y</title>
<path fill="none" stroke="black" d="M33.64,-72.41C36.91,-64.22 40.94,-54.14 44.62,-44.95"/>
<polygon fill="black" stroke="black" points="47.95,-46.05 48.41,-35.47 41.45,-43.45 47.95,-46.05"/>
</g>
<!-- Intelligence -->
<g id="node5" class="node">
<title>Intelligence</title>
<ellipse fill="none" stroke="black" cx="251" cy="-162" rx="65.79" ry="18"/>
<text text-anchor="middle" x="251" y="-158.3" font-family="Times,serif" font-size="14.00">Intelligence</text>
</g>
<!-- IQ -->
<g id="node6" class="node">
<title>IQ</title>
<ellipse fill="none" stroke="black" cx="137" cy="-90" rx="27" ry="18"/>
<text text-anchor="middle" x="137" y="-86.3" font-family="Times,serif" font-size="14.00">IQ</text>
</g>
<!-- Intelligence&#45;&gt;IQ -->
<g id="edge5" class="edge">
<title>Intelligence&#45;&gt;IQ</title>
<path fill="none" stroke="black" d="M225.42,-145.29C207.36,-134.21 183.2,-119.37 164.69,-108"/>
<polygon fill="black" stroke="black" points="166.47,-104.99 156.11,-102.74 162.8,-110.95 166.47,-104.99"/>
</g>
<!-- SAT -->
<g id="node7" class="node">
<title>SAT</title>
<ellipse fill="none" stroke="black" cx="211" cy="-90" rx="28.7" ry="18"/>
<text text-anchor="middle" x="211" y="-86.3" font-family="Times,serif" font-size="14.00">SAT</text>
</g>
<!-- Intelligence&#45;&gt;SAT -->
<g id="edge6" class="edge">
<title>Intelligence&#45;&gt;SAT</title>
<path fill="none" stroke="black" d="M241.32,-144.05C236.53,-135.68 230.66,-125.4 225.36,-116.13"/>
<polygon fill="black" stroke="black" points="228.32,-114.25 220.32,-107.31 222.24,-117.73 228.32,-114.25"/>
</g>
<!-- Educ -->
<g id="node10" class="node">
<title>Educ</title>
<ellipse fill="none" stroke="black" cx="292" cy="-90" rx="34.39" ry="18"/>
<text text-anchor="middle" x="292" y="-86.3" font-family="Times,serif" font-size="14.00">Educ</text>
</g>
<!-- Intelligence&#45;&gt;Educ -->
<g id="edge9" class="edge">
<title>Intelligence&#45;&gt;Educ</title>
<path fill="none" stroke="black" d="M260.92,-144.05C265.83,-135.68 271.85,-125.4 277.28,-116.13"/>
<polygon fill="black" stroke="black" points="280.41,-117.7 282.45,-107.31 274.37,-114.17 280.41,-117.7"/>
</g>
<!-- Wage -->
<g id="node11" class="node">
<title>Wage</title>
<ellipse fill="none" stroke="black" cx="323" cy="-18" rx="36.29" ry="18"/>
<text text-anchor="middle" x="323" y="-14.3" font-family="Times,serif" font-size="14.00">Wage</text>
</g>
<!-- Intelligence&#45;&gt;Wage -->
<g id="edge11" class="edge">
<title>Intelligence&#45;&gt;Wage</title>
<path fill="none" stroke="black" d="M288.91,-147.15C306.24,-138.68 325.09,-125.97 335,-108 345.55,-88.88 340.96,-64.04 334.64,-45.46"/>
<polygon fill="black" stroke="black" points="337.83,-44 331.04,-35.86 331.28,-46.45 337.83,-44"/>
</g>
<!-- Father&#39;s Educ -->
<g id="node8" class="node">
<title>Father&#39;s Educ</title>
<ellipse fill="none" stroke="black" cx="213" cy="-234" rx="75.29" ry="18"/>
<text text-anchor="middle" x="213" y="-230.3" font-family="Times,serif" font-size="14.00">Father&#39;s Educ</text>
</g>
<!-- Father&#39;s Educ&#45;&gt;Intelligence -->
<g id="edge7" class="edge">
<title>Father&#39;s Educ&#45;&gt;Intelligence</title>
<path fill="none" stroke="black" d="M222.2,-216.05C226.57,-208.01 231.89,-198.2 236.76,-189.23"/>
<polygon fill="black" stroke="black" points="239.93,-190.73 241.62,-180.28 233.78,-187.39 239.93,-190.73"/>
</g>
<!-- Mother&#39;s Educ -->
<g id="node9" class="node">
<title>Mother&#39;s Educ</title>
<ellipse fill="none" stroke="black" cx="385" cy="-234" rx="78.79" ry="18"/>
<text text-anchor="middle" x="385" y="-230.3" font-family="Times,serif" font-size="14.00">Mother&#39;s Educ</text>
</g>
<!-- Mother&#39;s Educ&#45;&gt;Intelligence -->
<g id="edge8" class="edge">
<title>Mother&#39;s Educ&#45;&gt;Intelligence</title>
<path fill="none" stroke="black" d="M354.93,-217.29C335.43,-207.11 309.88,-193.76 288.99,-182.84"/>
<polygon fill="black" stroke="black" points="290.54,-179.7 280.05,-178.18 287.29,-185.91 290.54,-179.7"/>
</g>
<!-- Educ&#45;&gt;Wage -->
<g id="edge10" class="edge">
<title>Educ&#45;&gt;Wage</title>
<path fill="none" stroke="black" d="M299.35,-72.41C302.92,-64.34 307.31,-54.43 311.33,-45.35"/>
<polygon fill="black" stroke="black" points="314.64,-46.52 315.49,-35.96 308.24,-43.68 314.64,-46.52"/>
</g>
</g>
</svg>
