<?xml version="1.0" encoding="UTF-8" standalone="no"?>
<!DOCTYPE svg PUBLIC "-//W3C//DTD SVG 1.1//EN"
 "http://www.w3.org/Graphics/SVG/1.1/DTD/svg11.dtd">
<!-- Generated by graphviz version 2.40.1 (20161225.0304)
 -->
<!-- Title: %3 Pages: 1 -->
<svg width="290pt" height="188pt"
 viewBox="0.00 0.00 289.56 188.00" xmlns="http://www.w3.org/2000/svg" xmlns:xlink="http://www.w3.org/1999/xlink">
<g id="graph0" class="graph" transform="scale(1 1) rotate(0) translate(4 184)">
<title>%3</title>
<polygon fill="#ffffff" stroke="transparent" points="-4,4 -4,-184 285.5624,-184 285.5624,4 -4,4"/>
<!-- Z -->
<g id="node1" class="node">
<title>Z</title>
<ellipse fill="none" stroke="#000000" cx="27" cy="-162" rx="27" ry="18"/>
<text text-anchor="middle" x="27" y="-157.8" font-family="Times,serif" font-size="14.00" fill="#000000">Z</text>
</g>
<!-- X -->
<g id="node2" class="node">
<title>X</title>
<ellipse fill="none" stroke="#000000" cx="27" cy="-90" rx="27" ry="18"/>
<text text-anchor="middle" x="27" y="-85.8" font-family="Times,serif" font-size="14.00" fill="#000000">X</text>
</g>
<!-- Z&#45;&gt;X -->
<g id="edge1" class="edge">
<title>Z&#45;&gt;X</title>
<path fill="none" stroke="#000000" d="M27,-143.8314C27,-136.131 27,-126.9743 27,-118.4166"/>
<polygon fill="#000000" stroke="#000000" points="30.5001,-118.4132 27,-108.4133 23.5001,-118.4133 30.5001,-118.4132"/>
</g>
<!-- U -->
<g id="node3" class="node">
<title>U</title>
<ellipse fill="none" stroke="#000000" cx="99" cy="-162" rx="27" ry="18"/>
<text text-anchor="middle" x="99" y="-157.8" font-family="Times,serif" font-size="14.00" fill="#000000">U</text>
</g>
<!-- U&#45;&gt;X -->
<g id="edge2" class="edge">
<title>U&#45;&gt;X</title>
<path fill="none" stroke="#000000" d="M83.7307,-146.7307C73.803,-136.803 60.6847,-123.6847 49.5637,-112.5637"/>
<polygon fill="#000000" stroke="#000000" points="51.7933,-109.8436 42.2473,-105.2473 46.8436,-114.7933 51.7933,-109.8436"/>
</g>
<!-- Y -->
<g id="node4" class="node">
<title>Y</title>
<ellipse fill="none" stroke="#000000" cx="99" cy="-90" rx="27" ry="18"/>
<text text-anchor="middle" x="99" y="-85.8" font-family="Times,serif" font-size="14.00" fill="#000000">Y</text>
</g>
<!-- U&#45;&gt;Y -->
<g id="edge3" class="edge">
<title>U&#45;&gt;Y</title>
<path fill="none" stroke="#000000" d="M99,-143.8314C99,-136.131 99,-126.9743 99,-118.4166"/>
<polygon fill="#000000" stroke="#000000" points="102.5001,-118.4132 99,-108.4133 95.5001,-118.4133 102.5001,-118.4132"/>
</g>
<!-- medicine -->
<g id="node5" class="node">
<title>medicine</title>
<ellipse fill="none" stroke="#000000" cx="206" cy="-90" rx="42.5369" ry="18"/>
<text text-anchor="middle" x="206" y="-85.8" font-family="Times,serif" font-size="14.00" fill="#000000">medicine</text>
</g>
<!-- survived -->
<g id="node6" class="node">
<title>survived</title>
<ellipse fill="none" stroke="#000000" cx="241" cy="-18" rx="40.6248" ry="18"/>
<text text-anchor="middle" x="241" y="-13.8" font-family="Times,serif" font-size="14.00" fill="#000000">survived</text>
</g>
<!-- medicine&#45;&gt;survived -->
<g id="edge4" class="edge">
<title>medicine&#45;&gt;survived</title>
<path fill="none" stroke="#000000" d="M214.6517,-72.2022C218.6481,-63.981 223.4801,-54.041 227.909,-44.9301"/>
<polygon fill="#000000" stroke="#000000" points="231.1023,-46.3664 232.3265,-35.8425 224.8068,-43.306 231.1023,-46.3664"/>
</g>
<!-- severeness -->
<g id="node7" class="node">
<title>severeness</title>
<ellipse fill="none" stroke="#000000" cx="225" cy="-162" rx="47.841" ry="18"/>
<text text-anchor="middle" x="225" y="-157.8" font-family="Times,serif" font-size="14.00" fill="#000000">severeness</text>
</g>
<!-- severeness&#45;&gt;medicine -->
<g id="edge6" class="edge">
<title>severeness&#45;&gt;medicine</title>
<path fill="none" stroke="#000000" d="M220.2055,-143.8314C218.1195,-135.9266 215.6286,-126.4872 213.3194,-117.7365"/>
<polygon fill="#000000" stroke="#000000" points="216.6629,-116.6894 210.7272,-107.9134 209.8946,-118.4755 216.6629,-116.6894"/>
</g>
<!-- severeness&#45;&gt;survived -->
<g id="edge5" class="edge">
<title>severeness&#45;&gt;survived</title>
<path fill="none" stroke="#000000" d="M238.986,-144.6766C246.1977,-134.6158 254.2505,-121.3262 258,-108 263.8235,-87.3027 258.7526,-63.3614 252.6712,-45.377"/>
<polygon fill="#000000" stroke="#000000" points="255.8866,-43.9796 249.1504,-35.8019 249.3167,-46.3955 255.8866,-43.9796"/>
</g>
</g>
</svg>
