<?xml version="1.0" encoding="UTF-8" standalone="no"?>
<!DOCTYPE svg PUBLIC "-//W3C//DTD SVG 1.1//EN"
 "http://www.w3.org/Graphics/SVG/1.1/DTD/svg11.dtd">
<!-- Generated by graphviz version 2.49.1 (20211004.0028)
 -->
<!-- Pages: 1 -->
<svg width="318pt" height="188pt"
 viewBox="0.00 0.00 317.70 188.00" xmlns="http://www.w3.org/2000/svg" xmlns:xlink="http://www.w3.org/1999/xlink">
<g id="graph0" class="graph" transform="scale(1 1) rotate(0) translate(4 184)">
<polygon fill="white" stroke="transparent" points="-4,4 -4,-184 313.7,-184 313.7,4 -4,4"/>
<!-- Z -->
<g id="node1" class="node">
<title>Z</title>
<ellipse fill="none" stroke="black" cx="27" cy="-162" rx="27" ry="18"/>
<text text-anchor="middle" x="27" y="-158.3" font-family="Times,serif" font-size="14.00">Z</text>
</g>
<!-- X -->
<g id="node2" class="node">
<title>X</title>
<ellipse fill="none" stroke="black" cx="27" cy="-90" rx="27" ry="18"/>
<text text-anchor="middle" x="27" y="-86.3" font-family="Times,serif" font-size="14.00">X</text>
</g>
<!-- Z&#45;&gt;X -->
<g id="edge1" class="edge">
<title>Z&#45;&gt;X</title>
<path fill="none" stroke="black" d="M27,-143.7C27,-135.98 27,-126.71 27,-118.11"/>
<polygon fill="black" stroke="black" points="30.5,-118.1 27,-108.1 23.5,-118.1 30.5,-118.1"/>
</g>
<!-- U -->
<g id="node3" class="node">
<title>U</title>
<ellipse fill="none" stroke="black" cx="99" cy="-162" rx="27" ry="18"/>
<text text-anchor="middle" x="99" y="-158.3" font-family="Times,serif" font-size="14.00">U</text>
</g>
<!-- U&#45;&gt;X -->
<g id="edge2" class="edge">
<title>U&#45;&gt;X</title>
<path fill="none" stroke="black" d="M84.43,-146.83C74.25,-136.94 60.48,-123.55 48.97,-112.36"/>
<polygon fill="black" stroke="black" points="51.41,-109.85 41.8,-105.38 46.53,-114.87 51.41,-109.85"/>
</g>
<!-- Y -->
<g id="node4" class="node">
<title>Y</title>
<ellipse fill="none" stroke="black" cx="99" cy="-90" rx="27" ry="18"/>
<text text-anchor="middle" x="99" y="-86.3" font-family="Times,serif" font-size="14.00">Y</text>
</g>
<!-- U&#45;&gt;Y -->
<g id="edge3" class="edge">
<title>U&#45;&gt;Y</title>
<path fill="none" stroke="black" d="M99,-143.7C99,-135.98 99,-126.71 99,-118.11"/>
<polygon fill="black" stroke="black" points="102.5,-118.1 99,-108.1 95.5,-118.1 102.5,-118.1"/>
</g>
<!-- medicine -->
<g id="node5" class="node">
<title>medicine</title>
<ellipse fill="none" stroke="black" cx="219" cy="-90" rx="52.79" ry="18"/>
<text text-anchor="middle" x="219" y="-86.3" font-family="Times,serif" font-size="14.00">medicine</text>
</g>
<!-- survived -->
<g id="node6" class="node">
<title>survived</title>
<ellipse fill="none" stroke="black" cx="259" cy="-18" rx="50.89" ry="18"/>
<text text-anchor="middle" x="259" y="-14.3" font-family="Times,serif" font-size="14.00">survived</text>
</g>
<!-- medicine&#45;&gt;survived -->
<g id="edge4" class="edge">
<title>medicine&#45;&gt;survived</title>
<path fill="none" stroke="black" d="M228.68,-72.05C233.4,-63.8 239.17,-53.7 244.41,-44.54"/>
<polygon fill="black" stroke="black" points="247.48,-46.21 249.41,-35.79 241.41,-42.73 247.48,-46.21"/>
</g>
<!-- severeness -->
<g id="node7" class="node">
<title>severeness</title>
<ellipse fill="none" stroke="black" cx="242" cy="-162" rx="62.29" ry="18"/>
<text text-anchor="middle" x="242" y="-158.3" font-family="Times,serif" font-size="14.00">severeness</text>
</g>
<!-- severeness&#45;&gt;medicine -->
<g id="edge6" class="edge">
<title>severeness&#45;&gt;medicine</title>
<path fill="none" stroke="black" d="M236.43,-144.05C233.84,-136.18 230.7,-126.62 227.8,-117.79"/>
<polygon fill="black" stroke="black" points="231.12,-116.68 224.68,-108.28 224.47,-118.87 231.12,-116.68"/>
</g>
<!-- severeness&#45;&gt;survived -->
<g id="edge5" class="edge">
<title>severeness&#45;&gt;survived</title>
<path fill="none" stroke="black" d="M258.48,-144.46C266.99,-134.73 276.51,-121.68 281,-108 287.83,-87.2 280.97,-63.06 273.16,-45.18"/>
<polygon fill="black" stroke="black" points="276.24,-43.49 268.8,-35.94 269.91,-46.48 276.24,-43.49"/>
</g>
</g>
</svg>
