<?xml version="1.0" encoding="UTF-8" standalone="no"?>
<!DOCTYPE svg PUBLIC "-//W3C//DTD SVG 1.1//EN"
 "http://www.w3.org/Graphics/SVG/1.1/DTD/svg11.dtd">
<!-- Generated by graphviz version 2.40.1 (20161225.0304)
 -->
<!-- Title: %3 Pages: 1 -->
<svg width="457pt" height="116pt"
 viewBox="0.00 0.00 456.73 116.00" xmlns="http://www.w3.org/2000/svg" xmlns:xlink="http://www.w3.org/1999/xlink">
<g id="graph0" class="graph" transform="scale(1 1) rotate(0) translate(4 112)">
<title>%3</title>
<polygon fill="#ffffff" stroke="transparent" points="-4,4 -4,-112 452.7344,-112 452.7344,4 -4,4"/>
<!-- B -->
<g id="node1" class="node">
<title>B</title>
<ellipse fill="none" stroke="#000000" cx="27" cy="-90" rx="27" ry="18"/>
<text text-anchor="middle" x="27" y="-85.8" font-family="Times,serif" font-size="14.00" fill="#000000">B</text>
</g>
<!-- C -->
<g id="node2" class="node">
<title>C</title>
<ellipse fill="none" stroke="#000000" cx="63" cy="-18" rx="27" ry="18"/>
<text text-anchor="middle" x="63" y="-13.8" font-family="Times,serif" font-size="14.00" fill="#000000">C</text>
</g>
<!-- B&#45;&gt;C -->
<g id="edge1" class="edge">
<title>B&#45;&gt;C</title>
<path fill="none" stroke="#000000" d="M35.7146,-72.5708C39.9597,-64.0807 45.1536,-53.6929 49.8663,-44.2674"/>
<polygon fill="#000000" stroke="#000000" points="53.024,-45.7782 54.3657,-35.2687 46.763,-42.6477 53.024,-45.7782"/>
</g>
<!-- A -->
<g id="node3" class="node">
<title>A</title>
<ellipse fill="none" stroke="#000000" cx="99" cy="-90" rx="27" ry="18"/>
<text text-anchor="middle" x="99" y="-85.8" font-family="Times,serif" font-size="14.00" fill="#000000">A</text>
</g>
<!-- A&#45;&gt;C -->
<g id="edge2" class="edge">
<title>A&#45;&gt;C</title>
<path fill="none" stroke="#000000" d="M90.2854,-72.5708C86.0403,-64.0807 80.8464,-53.6929 76.1337,-44.2674"/>
<polygon fill="#000000" stroke="#000000" points="79.237,-42.6477 71.6343,-35.2687 72.976,-45.7782 79.237,-42.6477"/>
</g>
<!-- Y -->
<g id="node4" class="node">
<title>Y</title>
<ellipse fill="none" stroke="#000000" cx="171" cy="-90" rx="27" ry="18"/>
<text text-anchor="middle" x="171" y="-85.8" font-family="Times,serif" font-size="14.00" fill="#000000">Y</text>
</g>
<!-- X -->
<g id="node5" class="node">
<title>X</title>
<ellipse fill="none" stroke="#ff0000" cx="197" cy="-18" rx="27" ry="18"/>
<text text-anchor="middle" x="197" y="-13.8" font-family="Times,serif" font-size="14.00" fill="#000000">X</text>
</g>
<!-- Y&#45;&gt;X -->
<g id="edge3" class="edge">
<title>Y&#45;&gt;X</title>
<path fill="none" stroke="#000000" d="M177.427,-72.2022C180.3866,-64.0064 183.963,-54.1024 187.2447,-45.0145"/>
<polygon fill="#000000" stroke="#000000" points="190.5424,-46.1874 190.647,-35.593 183.9585,-43.8098 190.5424,-46.1874"/>
</g>
<!-- Z -->
<g id="node6" class="node">
<title>Z</title>
<ellipse fill="none" stroke="#000000" cx="243" cy="-90" rx="27" ry="18"/>
<text text-anchor="middle" x="243" y="-85.8" font-family="Times,serif" font-size="14.00" fill="#000000">Z</text>
</g>
<!-- Z&#45;&gt;X -->
<g id="edge4" class="edge">
<title>Z&#45;&gt;X</title>
<path fill="none" stroke="#000000" d="M232.3311,-73.3008C226.6414,-64.3952 219.5223,-53.2524 213.1684,-43.307"/>
<polygon fill="#000000" stroke="#000000" points="215.9445,-41.1513 207.6111,-34.6087 210.0456,-44.92 215.9445,-41.1513"/>
</g>
<!-- statistics -->
<g id="node7" class="node">
<title>statistics</title>
<ellipse fill="none" stroke="#000000" cx="329" cy="-90" rx="40.6335" ry="18"/>
<text text-anchor="middle" x="329" y="-85.8" font-family="Times,serif" font-size="14.00" fill="#000000">statistics</text>
</g>
<!-- job promotion -->
<g id="node8" class="node">
<title>job promotion</title>
<ellipse fill="none" stroke="#000000" cx="373" cy="-18" rx="60.429" ry="18"/>
<text text-anchor="middle" x="373" y="-13.8" font-family="Times,serif" font-size="14.00" fill="#000000">job promotion</text>
</g>
<!-- statistics&#45;&gt;job promotion -->
<g id="edge5" class="edge">
<title>statistics&#45;&gt;job promotion</title>
<path fill="none" stroke="#000000" d="M339.6512,-72.5708C344.8165,-64.1184 351.1313,-53.7851 356.8709,-44.3931"/>
<polygon fill="#000000" stroke="#000000" points="359.9132,-46.1268 362.1412,-35.7689 353.9402,-42.4766 359.9132,-46.1268"/>
</g>
<!-- flatter -->
<g id="node9" class="node">
<title>flatter</title>
<ellipse fill="none" stroke="#000000" cx="418" cy="-90" rx="30.9706" ry="18"/>
<text text-anchor="middle" x="418" y="-85.8" font-family="Times,serif" font-size="14.00" fill="#000000">flatter</text>
</g>
<!-- flatter&#45;&gt;job promotion -->
<g id="edge6" class="edge">
<title>flatter&#45;&gt;job promotion</title>
<path fill="none" stroke="#000000" d="M407.3356,-72.937C402.0571,-64.4914 395.5637,-54.1019 389.6497,-44.6396"/>
<polygon fill="#000000" stroke="#000000" points="392.4838,-42.5702 384.2158,-35.9453 386.5478,-46.2803 392.4838,-42.5702"/>
</g>
</g>
</svg>
