<?xml version="1.0" encoding="UTF-8" standalone="no"?>
<!DOCTYPE svg PUBLIC "-//W3C//DTD SVG 1.1//EN"
 "http://www.w3.org/Graphics/SVG/1.1/DTD/svg11.dtd">
<!-- Generated by graphviz version 2.49.1 (20211004.0028)
 -->
<!-- Pages: 1 -->
<svg width="248pt" height="188pt"
 viewBox="0.00 0.00 247.64 188.00" xmlns="http://www.w3.org/2000/svg" xmlns:xlink="http://www.w3.org/1999/xlink">
<g id="graph0" class="graph" transform="scale(1 1) rotate(0) translate(4 184)">
<polygon fill="white" stroke="transparent" points="-4,4 -4,-184 243.64,-184 243.64,4 -4,4"/>
<!-- X -->
<g id="node1" class="node">
<title>X</title>
<ellipse fill="none" stroke="black" cx="60" cy="-162" rx="27" ry="18"/>
<text text-anchor="middle" x="60" y="-158.3" font-family="Times,serif" font-size="14.00">X</text>
</g>
<!-- T -->
<g id="node2" class="node">
<title>T</title>
<ellipse fill="none" stroke="black" cx="27" cy="-90" rx="27" ry="18"/>
<text text-anchor="middle" x="27" y="-86.3" font-family="Times,serif" font-size="14.00">T</text>
</g>
<!-- X&#45;&gt;T -->
<g id="edge1" class="edge">
<title>X&#45;&gt;T</title>
<path fill="none" stroke="black" d="M52.18,-144.41C48.28,-136.13 43.46,-125.92 39.1,-116.66"/>
<polygon fill="black" stroke="black" points="42.19,-115.02 34.76,-107.47 35.86,-118.01 42.19,-115.02"/>
</g>
<!-- Y -->
<g id="node3" class="node">
<title>Y</title>
<ellipse fill="none" stroke="black" cx="66" cy="-18" rx="27" ry="18"/>
<text text-anchor="middle" x="66" y="-14.3" font-family="Times,serif" font-size="14.00">Y</text>
</g>
<!-- X&#45;&gt;Y -->
<g id="edge2" class="edge">
<title>X&#45;&gt;Y</title>
<path fill="none" stroke="black" d="M61.07,-143.82C61.69,-133.45 62.46,-119.97 63,-108 63.94,-87.28 64.71,-63.84 65.24,-46.21"/>
<polygon fill="black" stroke="black" points="68.75,-46.16 65.54,-36.07 61.75,-45.96 68.75,-46.16"/>
</g>
<!-- T&#45;&gt;Y -->
<g id="edge3" class="edge">
<title>T&#45;&gt;Y</title>
<path fill="none" stroke="black" d="M36.05,-72.76C40.82,-64.19 46.78,-53.49 52.13,-43.9"/>
<polygon fill="black" stroke="black" points="55.19,-45.59 57,-35.15 49.08,-42.18 55.19,-45.59"/>
</g>
<!-- Intelligence -->
<g id="node4" class="node">
<title>Intelligence</title>
<ellipse fill="none" stroke="black" cx="174" cy="-162" rx="65.79" ry="18"/>
<text text-anchor="middle" x="174" y="-158.3" font-family="Times,serif" font-size="14.00">Intelligence</text>
</g>
<!-- Educ -->
<g id="node5" class="node">
<title>Educ</title>
<ellipse fill="none" stroke="black" cx="153" cy="-90" rx="34.39" ry="18"/>
<text text-anchor="middle" x="153" y="-86.3" font-family="Times,serif" font-size="14.00">Educ</text>
</g>
<!-- Intelligence&#45;&gt;Educ -->
<g id="edge4" class="edge">
<title>Intelligence&#45;&gt;Educ</title>
<path fill="none" stroke="black" d="M168.81,-143.7C166.47,-135.9 163.65,-126.51 161.05,-117.83"/>
<polygon fill="black" stroke="black" points="164.36,-116.68 158.13,-108.1 157.65,-118.69 164.36,-116.68"/>
</g>
<!-- Wage -->
<g id="node6" class="node">
<title>Wage</title>
<ellipse fill="none" stroke="black" cx="169" cy="-18" rx="36.29" ry="18"/>
<text text-anchor="middle" x="169" y="-14.3" font-family="Times,serif" font-size="14.00">Wage</text>
</g>
<!-- Intelligence&#45;&gt;Wage -->
<g id="edge5" class="edge">
<title>Intelligence&#45;&gt;Wage</title>
<path fill="none" stroke="black" d="M183.13,-143.88C188.01,-133.76 193.51,-120.51 196,-108 199.13,-92.31 199.73,-87.56 196,-72 193.72,-62.52 189.45,-52.82 184.97,-44.35"/>
<polygon fill="black" stroke="black" points="187.87,-42.38 179.91,-35.39 181.78,-45.82 187.87,-42.38"/>
</g>
<!-- Educ&#45;&gt;Wage -->
<g id="edge6" class="edge">
<title>Educ&#45;&gt;Wage</title>
<path fill="none" stroke="black" d="M156.87,-72.05C158.65,-64.26 160.81,-54.82 162.81,-46.08"/>
<polygon fill="black" stroke="black" points="166.24,-46.8 165.05,-36.28 159.41,-45.24 166.24,-46.8"/>
</g>
</g>
</svg>
