<?xml version="1.0" encoding="UTF-8" standalone="no"?>
<!DOCTYPE svg PUBLIC "-//W3C//DTD SVG 1.1//EN"
 "http://www.w3.org/Graphics/SVG/1.1/DTD/svg11.dtd">
<!-- Generated by graphviz version 2.49.1 (20211004.0028)
 -->
<!-- Pages: 1 -->
<svg width="500pt" height="116pt"
 viewBox="0.00 0.00 499.65 116.00" xmlns="http://www.w3.org/2000/svg" xmlns:xlink="http://www.w3.org/1999/xlink">
<g id="graph0" class="graph" transform="scale(1 1) rotate(0) translate(4 112)">
<polygon fill="white" stroke="transparent" points="-4,4 -4,-112 495.65,-112 495.65,4 -4,4"/>
<!-- B -->
<g id="node1" class="node">
<title>B</title>
<ellipse fill="none" stroke="black" cx="27" cy="-90" rx="27" ry="18"/>
<text text-anchor="middle" x="27" y="-86.3" font-family="Times,serif" font-size="14.00">B</text>
</g>
<!-- C -->
<g id="node2" class="node">
<title>C</title>
<ellipse fill="none" stroke="black" cx="63" cy="-18" rx="27" ry="18"/>
<text text-anchor="middle" x="63" y="-14.3" font-family="Times,serif" font-size="14.00">C</text>
</g>
<!-- B&#45;&gt;C -->
<g id="edge1" class="edge">
<title>B&#45;&gt;C</title>
<path fill="none" stroke="black" d="M35.35,-72.76C39.71,-64.28 45.15,-53.71 50.04,-44.2"/>
<polygon fill="black" stroke="black" points="53.23,-45.64 54.7,-35.15 47.01,-42.44 53.23,-45.64"/>
</g>
<!-- A -->
<g id="node3" class="node">
<title>A</title>
<ellipse fill="none" stroke="black" cx="99" cy="-90" rx="27" ry="18"/>
<text text-anchor="middle" x="99" y="-86.3" font-family="Times,serif" font-size="14.00">A</text>
</g>
<!-- A&#45;&gt;C -->
<g id="edge2" class="edge">
<title>A&#45;&gt;C</title>
<path fill="none" stroke="black" d="M90.65,-72.76C86.29,-64.28 80.85,-53.71 75.96,-44.2"/>
<polygon fill="black" stroke="black" points="78.99,-42.44 71.3,-35.15 72.77,-45.64 78.99,-42.44"/>
</g>
<!-- Y -->
<g id="node4" class="node">
<title>Y</title>
<ellipse fill="none" stroke="black" cx="171" cy="-90" rx="27" ry="18"/>
<text text-anchor="middle" x="171" y="-86.3" font-family="Times,serif" font-size="14.00">Y</text>
</g>
<!-- X -->
<g id="node5" class="node">
<title>X</title>
<ellipse fill="none" stroke="red" cx="196" cy="-18" rx="27" ry="18"/>
<text text-anchor="middle" x="196" y="-14.3" font-family="Times,serif" font-size="14.00">X</text>
</g>
<!-- Y&#45;&gt;X -->
<g id="edge3" class="edge">
<title>Y&#45;&gt;X</title>
<path fill="none" stroke="black" d="M176.92,-72.41C179.78,-64.42 183.27,-54.64 186.48,-45.64"/>
<polygon fill="black" stroke="black" points="189.88,-46.55 189.94,-35.96 183.28,-44.2 189.88,-46.55"/>
</g>
<!-- Z -->
<g id="node6" class="node">
<title>Z</title>
<ellipse fill="none" stroke="black" cx="243" cy="-90" rx="27" ry="18"/>
<text text-anchor="middle" x="243" y="-86.3" font-family="Times,serif" font-size="14.00">Z</text>
</g>
<!-- Z&#45;&gt;X -->
<g id="edge4" class="edge">
<title>Z&#45;&gt;X</title>
<path fill="none" stroke="black" d="M232.33,-73.12C226.45,-64.34 219.01,-53.26 212.39,-43.42"/>
<polygon fill="black" stroke="black" points="215.1,-41.17 206.62,-34.82 209.29,-45.07 215.1,-41.17"/>
</g>
<!-- statistics -->
<g id="node7" class="node">
<title>statistics</title>
<ellipse fill="none" stroke="black" cx="341" cy="-90" rx="53.09" ry="18"/>
<text text-anchor="middle" x="341" y="-86.3" font-family="Times,serif" font-size="14.00">statistics</text>
</g>
<!-- job promotion -->
<g id="node8" class="node">
<title>job promotion</title>
<ellipse fill="none" stroke="black" cx="396" cy="-18" rx="75.29" ry="18"/>
<text text-anchor="middle" x="396" y="-14.3" font-family="Times,serif" font-size="14.00">job promotion</text>
</g>
<!-- statistics&#45;&gt;job promotion -->
<g id="edge5" class="edge">
<title>statistics&#45;&gt;job promotion</title>
<path fill="none" stroke="black" d="M354.03,-72.41C360.72,-63.91 368.99,-53.37 376.42,-43.91"/>
<polygon fill="black" stroke="black" points="379.25,-45.98 382.68,-35.96 373.75,-41.66 379.25,-45.98"/>
</g>
<!-- flatter -->
<g id="node9" class="node">
<title>flatter</title>
<ellipse fill="none" stroke="black" cx="452" cy="-90" rx="39.79" ry="18"/>
<text text-anchor="middle" x="452" y="-86.3" font-family="Times,serif" font-size="14.00">flatter</text>
</g>
<!-- flatter&#45;&gt;job promotion -->
<g id="edge6" class="edge">
<title>flatter&#45;&gt;job promotion</title>
<path fill="none" stroke="black" d="M439.01,-72.76C432.21,-64.27 423.74,-53.68 416.12,-44.15"/>
<polygon fill="black" stroke="black" points="418.68,-41.75 409.7,-36.12 413.21,-46.12 418.68,-41.75"/>
</g>
</g>
</svg>
