<?xml version="1.0" encoding="UTF-8" standalone="no"?>
<!DOCTYPE svg PUBLIC "-//W3C//DTD SVG 1.1//EN"
 "http://www.w3.org/Graphics/SVG/1.1/DTD/svg11.dtd">
<!-- Generated by graphviz version 2.40.1 (20161225.0304)
 -->
<!-- Title: %3 Pages: 1 -->
<svg width="298pt" height="188pt"
 viewBox="0.00 0.00 298.22 188.00" xmlns="http://www.w3.org/2000/svg" xmlns:xlink="http://www.w3.org/1999/xlink">
<g id="graph0" class="graph" transform="scale(1 1) rotate(0) translate(4 184)">
<title>%3</title>
<polygon fill="#ffffff" stroke="transparent" points="-4,4 -4,-184 294.2158,-184 294.2158,4 -4,4"/>
<!-- A -->
<g id="node1" class="node">
<title>A</title>
<ellipse fill="none" stroke="#000000" cx="27" cy="-162" rx="27" ry="18"/>
<text text-anchor="middle" x="27" y="-157.8" font-family="Times,serif" font-size="14.00" fill="#000000">A</text>
</g>
<!-- C -->
<g id="node2" class="node">
<title>C</title>
<ellipse fill="none" stroke="#000000" cx="27" cy="-90" rx="27" ry="18"/>
<text text-anchor="middle" x="27" y="-85.8" font-family="Times,serif" font-size="14.00" fill="#000000">C</text>
</g>
<!-- A&#45;&gt;C -->
<g id="edge1" class="edge">
<title>A&#45;&gt;C</title>
<path fill="none" stroke="#000000" d="M27,-143.8314C27,-136.131 27,-126.9743 27,-118.4166"/>
<polygon fill="#000000" stroke="#000000" points="30.5001,-118.4132 27,-108.4133 23.5001,-118.4133 30.5001,-118.4132"/>
</g>
<!-- B -->
<g id="node3" class="node">
<title>B</title>
<ellipse fill="none" stroke="#000000" cx="27" cy="-18" rx="27" ry="18"/>
<text text-anchor="middle" x="27" y="-13.8" font-family="Times,serif" font-size="14.00" fill="#000000">B</text>
</g>
<!-- C&#45;&gt;B -->
<g id="edge2" class="edge">
<title>C&#45;&gt;B</title>
<path fill="none" stroke="#000000" d="M27,-71.8314C27,-64.131 27,-54.9743 27,-46.4166"/>
<polygon fill="#000000" stroke="#000000" points="30.5001,-46.4132 27,-36.4133 23.5001,-46.4133 30.5001,-46.4132"/>
</g>
<!-- X -->
<g id="node4" class="node">
<title>X</title>
<ellipse fill="none" stroke="#000000" cx="99" cy="-162" rx="27" ry="18"/>
<text text-anchor="middle" x="99" y="-157.8" font-family="Times,serif" font-size="14.00" fill="#000000">X</text>
</g>
<!-- Y -->
<g id="node5" class="node">
<title>Y</title>
<ellipse fill="none" stroke="#ff0000" cx="99" cy="-90" rx="27" ry="18"/>
<text text-anchor="middle" x="99" y="-85.8" font-family="Times,serif" font-size="14.00" fill="#000000">Y</text>
</g>
<!-- X&#45;&gt;Y -->
<g id="edge3" class="edge">
<title>X&#45;&gt;Y</title>
<path fill="none" stroke="#000000" d="M99,-143.8314C99,-136.131 99,-126.9743 99,-118.4166"/>
<polygon fill="#000000" stroke="#000000" points="102.5001,-118.4132 99,-108.4133 95.5001,-118.4133 102.5001,-118.4132"/>
</g>
<!-- Z -->
<g id="node6" class="node">
<title>Z</title>
<ellipse fill="none" stroke="#000000" cx="99" cy="-18" rx="27" ry="18"/>
<text text-anchor="middle" x="99" y="-13.8" font-family="Times,serif" font-size="14.00" fill="#000000">Z</text>
</g>
<!-- Y&#45;&gt;Z -->
<g id="edge4" class="edge">
<title>Y&#45;&gt;Z</title>
<path fill="none" stroke="#000000" d="M99,-71.8314C99,-64.131 99,-54.9743 99,-46.4166"/>
<polygon fill="#000000" stroke="#000000" points="102.5001,-46.4132 99,-36.4133 95.5001,-46.4133 102.5001,-46.4132"/>
</g>
<!-- causal knowledge -->
<g id="node7" class="node">
<title>causal knowledge</title>
<ellipse fill="none" stroke="#000000" cx="217" cy="-162" rx="73.4323" ry="18"/>
<text text-anchor="middle" x="217" y="-157.8" font-family="Times,serif" font-size="14.00" fill="#000000">causal knowledge</text>
</g>
<!-- solve problems -->
<g id="node8" class="node">
<title>solve problems</title>
<ellipse fill="none" stroke="#000000" cx="217" cy="-90" rx="63.7949" ry="18"/>
<text text-anchor="middle" x="217" y="-85.8" font-family="Times,serif" font-size="14.00" fill="#000000">solve problems</text>
</g>
<!-- causal knowledge&#45;&gt;solve problems -->
<g id="edge5" class="edge">
<title>causal knowledge&#45;&gt;solve problems</title>
<path fill="none" stroke="#000000" d="M217,-143.8314C217,-136.131 217,-126.9743 217,-118.4166"/>
<polygon fill="#000000" stroke="#000000" points="220.5001,-118.4132 217,-108.4133 213.5001,-118.4133 220.5001,-118.4132"/>
</g>
<!-- job promotion -->
<g id="node9" class="node">
<title>job promotion</title>
<ellipse fill="none" stroke="#000000" cx="217" cy="-18" rx="60.429" ry="18"/>
<text text-anchor="middle" x="217" y="-13.8" font-family="Times,serif" font-size="14.00" fill="#000000">job promotion</text>
</g>
<!-- solve problems&#45;&gt;job promotion -->
<g id="edge6" class="edge">
<title>solve problems&#45;&gt;job promotion</title>
<path fill="none" stroke="#000000" d="M217,-71.8314C217,-64.131 217,-54.9743 217,-46.4166"/>
<polygon fill="#000000" stroke="#000000" points="220.5001,-46.4132 217,-36.4133 213.5001,-46.4133 220.5001,-46.4132"/>
</g>
</g>
</svg>
