<?xml version="1.0" encoding="UTF-8" standalone="no"?>
<!DOCTYPE svg PUBLIC "-//W3C//DTD SVG 1.1//EN"
 "http://www.w3.org/Graphics/SVG/1.1/DTD/svg11.dtd">
<!-- Generated by graphviz version 2.40.1 (20161225.0304)
 -->
<!-- Title: %3 Pages: 1 -->
<svg width="591pt" height="116pt"
 viewBox="0.00 0.00 591.25 116.00" xmlns="http://www.w3.org/2000/svg" xmlns:xlink="http://www.w3.org/1999/xlink">
<g id="graph0" class="graph" transform="scale(1 1) rotate(0) translate(4 112)">
<title>%3</title>
<polygon fill="#ffffff" stroke="transparent" points="-4,4 -4,-112 587.2468,-112 587.2468,4 -4,4"/>
<!-- C -->
<g id="node1" class="node">
<title>C</title>
<ellipse fill="none" stroke="#000000" cx="63" cy="-90" rx="27" ry="18"/>
<text text-anchor="middle" x="63" y="-85.8" font-family="Times,serif" font-size="14.00" fill="#000000">C</text>
</g>
<!-- A -->
<g id="node2" class="node">
<title>A</title>
<ellipse fill="none" stroke="#000000" cx="27" cy="-18" rx="27" ry="18"/>
<text text-anchor="middle" x="27" y="-13.8" font-family="Times,serif" font-size="14.00" fill="#000000">A</text>
</g>
<!-- C&#45;&gt;A -->
<g id="edge1" class="edge">
<title>C&#45;&gt;A</title>
<path fill="none" stroke="#000000" d="M54.2854,-72.5708C50.0403,-64.0807 44.8464,-53.6929 40.1337,-44.2674"/>
<polygon fill="#000000" stroke="#000000" points="43.237,-42.6477 35.6343,-35.2687 36.976,-45.7782 43.237,-42.6477"/>
</g>
<!-- B -->
<g id="node3" class="node">
<title>B</title>
<ellipse fill="none" stroke="#000000" cx="99" cy="-18" rx="27" ry="18"/>
<text text-anchor="middle" x="99" y="-13.8" font-family="Times,serif" font-size="14.00" fill="#000000">B</text>
</g>
<!-- C&#45;&gt;B -->
<g id="edge2" class="edge">
<title>C&#45;&gt;B</title>
<path fill="none" stroke="#000000" d="M71.7146,-72.5708C75.9597,-64.0807 81.1536,-53.6929 85.8663,-44.2674"/>
<polygon fill="#000000" stroke="#000000" points="89.024,-45.7782 90.3657,-35.2687 82.763,-42.6477 89.024,-45.7782"/>
</g>
<!-- X -->
<g id="node4" class="node">
<title>X</title>
<ellipse fill="none" stroke="#ff0000" cx="207" cy="-90" rx="27" ry="18"/>
<text text-anchor="middle" x="207" y="-85.8" font-family="Times,serif" font-size="14.00" fill="#000000">X</text>
</g>
<!-- Y -->
<g id="node5" class="node">
<title>Y</title>
<ellipse fill="none" stroke="#000000" cx="171" cy="-18" rx="27" ry="18"/>
<text text-anchor="middle" x="171" y="-13.8" font-family="Times,serif" font-size="14.00" fill="#000000">Y</text>
</g>
<!-- X&#45;&gt;Y -->
<g id="edge3" class="edge">
<title>X&#45;&gt;Y</title>
<path fill="none" stroke="#000000" d="M198.2854,-72.5708C194.0403,-64.0807 188.8464,-53.6929 184.1337,-44.2674"/>
<polygon fill="#000000" stroke="#000000" points="187.237,-42.6477 179.6343,-35.2687 180.976,-45.7782 187.237,-42.6477"/>
</g>
<!-- Z -->
<g id="node6" class="node">
<title>Z</title>
<ellipse fill="none" stroke="#000000" cx="243" cy="-18" rx="27" ry="18"/>
<text text-anchor="middle" x="243" y="-13.8" font-family="Times,serif" font-size="14.00" fill="#000000">Z</text>
</g>
<!-- X&#45;&gt;Z -->
<g id="edge4" class="edge">
<title>X&#45;&gt;Z</title>
<path fill="none" stroke="#000000" d="M215.7146,-72.5708C219.9597,-64.0807 225.1536,-53.6929 229.8663,-44.2674"/>
<polygon fill="#000000" stroke="#000000" points="233.024,-45.7782 234.3657,-35.2687 226.763,-42.6477 233.024,-45.7782"/>
</g>
<!-- statistics -->
<g id="node7" class="node">
<title>statistics</title>
<ellipse fill="none" stroke="#000000" cx="433" cy="-90" rx="40.6335" ry="18"/>
<text text-anchor="middle" x="433" y="-85.8" font-family="Times,serif" font-size="14.00" fill="#000000">statistics</text>
</g>
<!-- causal inference -->
<g id="node8" class="node">
<title>causal inference</title>
<ellipse fill="none" stroke="#000000" cx="355" cy="-18" rx="67.1093" ry="18"/>
<text text-anchor="middle" x="355" y="-13.8" font-family="Times,serif" font-size="14.00" fill="#000000">causal inference</text>
</g>
<!-- statistics&#45;&gt;causal inference -->
<g id="edge5" class="edge">
<title>statistics&#45;&gt;causal inference</title>
<path fill="none" stroke="#000000" d="M415.3006,-73.6621C405.2941,-64.4253 392.5889,-52.6974 381.4237,-42.3911"/>
<polygon fill="#000000" stroke="#000000" points="383.7142,-39.7422 373.9921,-35.5312 378.9662,-44.8858 383.7142,-39.7422"/>
</g>
<!-- machine learning -->
<g id="node9" class="node">
<title>machine learning</title>
<ellipse fill="none" stroke="#000000" cx="512" cy="-18" rx="71.4944" ry="18"/>
<text text-anchor="middle" x="512" y="-13.8" font-family="Times,serif" font-size="14.00" fill="#000000">machine learning</text>
</g>
<!-- statistics&#45;&gt;machine learning -->
<g id="edge6" class="edge">
<title>statistics&#45;&gt;machine learning</title>
<path fill="none" stroke="#000000" d="M450.9263,-73.6621C461.0611,-64.4253 473.9292,-52.6974 485.2375,-42.3911"/>
<polygon fill="#000000" stroke="#000000" points="487.7311,-44.8541 492.7644,-35.5312 483.0158,-39.6804 487.7311,-44.8541"/>
</g>
</g>
</svg>
