<?xml version="1.0" encoding="UTF-8" standalone="no"?>
<!DOCTYPE svg PUBLIC "-//W3C//DTD SVG 1.1//EN"
 "http://www.w3.org/Graphics/SVG/1.1/DTD/svg11.dtd">
<!-- Generated by graphviz version 2.44.1 (20200629.0846)
 -->
<!-- Pages: 1 -->
<svg width="297pt" height="116pt"
 viewBox="0.00 0.00 297.39 116.00" xmlns="http://www.w3.org/2000/svg" xmlns:xlink="http://www.w3.org/1999/xlink">
<g id="graph0" class="graph" transform="scale(1 1) rotate(0) translate(4 112)">
<polygon fill="white" stroke="transparent" points="-4,4 -4,-112 293.39,-112 293.39,4 -4,4"/>
<!-- W=w -->
<g id="node1" class="node">
<title>W=w</title>
<ellipse fill="none" stroke="black" cx="31.2" cy="-90" rx="31.4" ry="18"/>
<text text-anchor="middle" x="31.2" y="-86.3" font-family="Times,serif" font-size="14.00">W=w</text>
</g>
<!-- T -->
<g id="node2" class="node">
<title>T</title>
<ellipse fill="none" stroke="black" cx="107.2" cy="-90" rx="27" ry="18"/>
<text text-anchor="middle" x="107.2" y="-86.3" font-family="Times,serif" font-size="14.00">T</text>
</g>
<!-- Y -->
<g id="node3" class="node">
<title>Y</title>
<ellipse fill="none" stroke="black" cx="107.2" cy="-18" rx="27" ry="18"/>
<text text-anchor="middle" x="107.2" y="-14.3" font-family="Times,serif" font-size="14.00">Y</text>
</g>
<!-- T&#45;&gt;Y -->
<g id="edge1" class="edge">
<title>T&#45;&gt;Y</title>
<path fill="none" stroke="black" d="M107.2,-71.7C107.2,-63.98 107.2,-54.71 107.2,-46.11"/>
<polygon fill="black" stroke="black" points="110.7,-46.1 107.2,-36.1 103.7,-46.1 110.7,-46.1"/>
</g>
<!-- IQ=x -->
<g id="node4" class="node">
<title>IQ=x</title>
<ellipse fill="none" stroke="black" cx="182.2" cy="-90" rx="29.8" ry="18"/>
<text text-anchor="middle" x="182.2" y="-86.3" font-family="Times,serif" font-size="14.00">IQ=x</text>
</g>
<!-- Educ -->
<g id="node5" class="node">
<title>Educ</title>
<ellipse fill="none" stroke="black" cx="258.2" cy="-90" rx="28.7" ry="18"/>
<text text-anchor="middle" x="258.2" y="-86.3" font-family="Times,serif" font-size="14.00">Educ</text>
</g>
<!-- Wage -->
<g id="node6" class="node">
<title>Wage</title>
<ellipse fill="none" stroke="black" cx="258.2" cy="-18" rx="31.4" ry="18"/>
<text text-anchor="middle" x="258.2" y="-14.3" font-family="Times,serif" font-size="14.00">Wage</text>
</g>
<!-- Educ&#45;&gt;Wage -->
<g id="edge2" class="edge">
<title>Educ&#45;&gt;Wage</title>
<path fill="none" stroke="red" d="M258.2,-71.7C258.2,-63.98 258.2,-54.71 258.2,-46.11"/>
<polygon fill="red" stroke="red" points="261.7,-46.1 258.2,-36.1 254.7,-46.1 261.7,-46.1"/>
</g>
</g>
</svg>
