<?xml version="1.0" encoding="UTF-8" standalone="no"?>
<!DOCTYPE svg PUBLIC "-//W3C//DTD SVG 1.1//EN"
 "http://www.w3.org/Graphics/SVG/1.1/DTD/svg11.dtd">
<!-- Generated by graphviz version 2.40.1 (20161225.0304)
 -->
<!-- Title: %3 Pages: 1 -->
<svg width="280pt" height="116pt"
 viewBox="0.00 0.00 280.28 116.00" xmlns="http://www.w3.org/2000/svg" xmlns:xlink="http://www.w3.org/1999/xlink">
<g id="graph0" class="graph" transform="scale(1 1) rotate(0) translate(4 112)">
<title>%3</title>
<polygon fill="#ffffff" stroke="transparent" points="-4,4 -4,-112 276.2774,-112 276.2774,4 -4,4"/>
<!-- W -->
<g id="node1" class="node">
<title>W</title>
<ellipse fill="none" stroke="#000000" cx="27" cy="-90" rx="27" ry="18"/>
<text text-anchor="middle" x="27" y="-85.8" font-family="Times,serif" font-size="14.00" fill="#000000">W</text>
</g>
<!-- Y -->
<g id="node2" class="node">
<title>Y</title>
<ellipse fill="none" stroke="#000000" cx="61" cy="-18" rx="27" ry="18"/>
<text text-anchor="middle" x="61" y="-13.8" font-family="Times,serif" font-size="14.00" fill="#000000">Y</text>
</g>
<!-- W&#45;&gt;Y -->
<g id="edge1" class="edge">
<title>W&#45;&gt;Y</title>
<path fill="none" stroke="#000000" d="M35.2305,-72.5708C39.1979,-64.1691 44.0429,-53.9091 48.4567,-44.5623"/>
<polygon fill="#000000" stroke="#000000" points="51.7401,-45.8057 52.8453,-35.2687 45.4104,-42.8166 51.7401,-45.8057"/>
</g>
<!-- T -->
<g id="node3" class="node">
<title>T</title>
<ellipse fill="none" stroke="#000000" cx="99" cy="-90" rx="27" ry="18"/>
<text text-anchor="middle" x="99" y="-85.8" font-family="Times,serif" font-size="14.00" fill="#000000">T</text>
</g>
<!-- T&#45;&gt;Y -->
<g id="edge2" class="edge">
<title>T&#45;&gt;Y</title>
<path fill="none" stroke="#000000" d="M89.9945,-72.937C85.5172,-64.4537 80.0048,-54.0092 74.993,-44.513"/>
<polygon fill="#000000" stroke="#000000" points="77.9678,-42.6509 70.2048,-35.4407 71.7771,-45.9182 77.9678,-42.6509"/>
</g>
<!-- IQ -->
<g id="node4" class="node">
<title>IQ</title>
<ellipse fill="none" stroke="#000000" cx="171" cy="-90" rx="27" ry="18"/>
<text text-anchor="middle" x="171" y="-85.8" font-family="Times,serif" font-size="14.00" fill="#000000">IQ</text>
</g>
<!-- Wage -->
<g id="node5" class="node">
<title>Wage</title>
<ellipse fill="none" stroke="#000000" cx="207" cy="-18" rx="30.0438" ry="18"/>
<text text-anchor="middle" x="207" y="-13.8" font-family="Times,serif" font-size="14.00" fill="#000000">Wage</text>
</g>
<!-- IQ&#45;&gt;Wage -->
<g id="edge3" class="edge">
<title>IQ&#45;&gt;Wage</title>
<path fill="none" stroke="#ff0000" d="M179.7146,-72.5708C183.9597,-64.0807 189.1536,-53.6929 193.8663,-44.2674"/>
<polygon fill="#ff0000" stroke="#ff0000" points="197.024,-45.7782 198.3657,-35.2687 190.763,-42.6477 197.024,-45.7782"/>
</g>
<!-- Educ -->
<g id="node6" class="node">
<title>Educ</title>
<ellipse fill="none" stroke="#000000" cx="244" cy="-90" rx="28.0565" ry="18"/>
<text text-anchor="middle" x="244" y="-85.8" font-family="Times,serif" font-size="14.00" fill="#000000">Educ</text>
</g>
<!-- Educ&#45;&gt;Wage -->
<g id="edge4" class="edge">
<title>Educ&#45;&gt;Wage</title>
<path fill="none" stroke="#ff0000" d="M235.0433,-72.5708C230.6803,-64.0807 225.3422,-53.6929 220.4985,-44.2674"/>
<polygon fill="#ff0000" stroke="#ff0000" points="223.5579,-42.5633 215.8742,-35.2687 217.3319,-45.7628 223.5579,-42.5633"/>
</g>
</g>
</svg>
