<?xml version="1.0" encoding="UTF-8" standalone="no"?>
<!DOCTYPE svg PUBLIC "-//W3C//DTD SVG 1.1//EN"
 "http://www.w3.org/Graphics/SVG/1.1/DTD/svg11.dtd">
<!-- Generated by graphviz version 2.44.1 (20200629.0846)
 -->
<!-- Pages: 1 -->
<svg width="284pt" height="116pt"
 viewBox="0.00 0.00 283.60 116.00" xmlns="http://www.w3.org/2000/svg" xmlns:xlink="http://www.w3.org/1999/xlink">
<g id="graph0" class="graph" transform="scale(1 1) rotate(0) translate(4 112)">
<polygon fill="white" stroke="transparent" points="-4,4 -4,-112 279.6,-112 279.6,4 -4,4"/>
<!-- W -->
<g id="node1" class="node">
<title>W</title>
<ellipse fill="none" stroke="black" cx="27" cy="-90" rx="27" ry="18"/>
<text text-anchor="middle" x="27" y="-86.3" font-family="Times,serif" font-size="14.00">W</text>
</g>
<!-- Y -->
<g id="node2" class="node">
<title>Y</title>
<ellipse fill="none" stroke="black" cx="80" cy="-18" rx="27" ry="18"/>
<text text-anchor="middle" x="80" y="-14.3" font-family="Times,serif" font-size="14.00">Y</text>
</g>
<!-- W&#45;&gt;Y -->
<g id="edge1" class="edge">
<title>W&#45;&gt;Y</title>
<path fill="none" stroke="black" d="M38.76,-73.46C45.62,-64.4 54.42,-52.79 62.12,-42.61"/>
<polygon fill="black" stroke="black" points="65.02,-44.58 68.27,-34.49 59.44,-40.35 65.02,-44.58"/>
</g>
<!-- T -->
<g id="node3" class="node">
<title>T</title>
<ellipse fill="none" stroke="black" cx="99" cy="-90" rx="27" ry="18"/>
<text text-anchor="middle" x="99" y="-86.3" font-family="Times,serif" font-size="14.00">T</text>
</g>
<!-- T&#45;&gt;Y -->
<g id="edge2" class="edge">
<title>T&#45;&gt;Y</title>
<path fill="none" stroke="black" d="M94.4,-72.05C92.25,-64.14 89.65,-54.54 87.24,-45.69"/>
<polygon fill="black" stroke="black" points="90.55,-44.52 84.56,-35.79 83.8,-46.36 90.55,-44.52"/>
</g>
<!-- IQ -->
<g id="node4" class="node">
<title>IQ</title>
<ellipse fill="none" stroke="black" cx="173" cy="-90" rx="27" ry="18"/>
<text text-anchor="middle" x="173" y="-86.3" font-family="Times,serif" font-size="14.00">IQ</text>
</g>
<!-- Wage -->
<g id="node5" class="node">
<title>Wage</title>
<ellipse fill="none" stroke="black" cx="191" cy="-18" rx="31.4" ry="18"/>
<text text-anchor="middle" x="191" y="-14.3" font-family="Times,serif" font-size="14.00">Wage</text>
</g>
<!-- IQ&#45;&gt;Wage -->
<g id="edge3" class="edge">
<title>IQ&#45;&gt;Wage</title>
<path fill="none" stroke="red" d="M177.36,-72.05C179.36,-64.26 181.79,-54.82 184.04,-46.08"/>
<polygon fill="red" stroke="red" points="187.46,-46.83 186.56,-36.28 180.68,-45.09 187.46,-46.83"/>
</g>
<!-- Educ -->
<g id="node6" class="node">
<title>Educ</title>
<ellipse fill="none" stroke="black" cx="247" cy="-90" rx="28.7" ry="18"/>
<text text-anchor="middle" x="247" y="-86.3" font-family="Times,serif" font-size="14.00">Educ</text>
</g>
<!-- Educ&#45;&gt;Wage -->
<g id="edge4" class="edge">
<title>Educ&#45;&gt;Wage</title>
<path fill="none" stroke="red" d="M234.57,-73.46C227.42,-64.53 218.29,-53.11 210.23,-43.04"/>
<polygon fill="red" stroke="red" points="212.76,-40.6 203.78,-34.98 207.3,-44.97 212.76,-40.6"/>
</g>
</g>
</svg>
