<?xml version="1.0" encoding="UTF-8" standalone="no"?>
<!DOCTYPE svg PUBLIC "-//W3C//DTD SVG 1.1//EN"
 "http://www.w3.org/Graphics/SVG/1.1/DTD/svg11.dtd">
<!-- Generated by graphviz version 2.40.1 (20161225.0304)
 -->
<!-- Title: %3 Pages: 1 -->
<svg width="292pt" height="116pt"
 viewBox="0.00 0.00 291.85 116.00" xmlns="http://www.w3.org/2000/svg" xmlns:xlink="http://www.w3.org/1999/xlink">
<g id="graph0" class="graph" transform="scale(1 1) rotate(0) translate(4 112)">
<title>%3</title>
<polygon fill="#ffffff" stroke="transparent" points="-4,4 -4,-112 287.8495,-112 287.8495,4 -4,4"/>
<!-- W=w -->
<g id="node1" class="node">
<title>W=w</title>
<ellipse fill="none" stroke="#000000" cx="29.8276" cy="-90" rx="29.6561" ry="18"/>
<text text-anchor="middle" x="29.8276" y="-85.8" font-family="Times,serif" font-size="14.00" fill="#000000">W=w</text>
</g>
<!-- T -->
<g id="node2" class="node">
<title>T</title>
<ellipse fill="none" stroke="#000000" cx="104.8276" cy="-90" rx="27" ry="18"/>
<text text-anchor="middle" x="104.8276" y="-85.8" font-family="Times,serif" font-size="14.00" fill="#000000">T</text>
</g>
<!-- Y -->
<g id="node3" class="node">
<title>Y</title>
<ellipse fill="none" stroke="#000000" cx="104.8276" cy="-18" rx="27" ry="18"/>
<text text-anchor="middle" x="104.8276" y="-13.8" font-family="Times,serif" font-size="14.00" fill="#000000">Y</text>
</g>
<!-- T&#45;&gt;Y -->
<g id="edge1" class="edge">
<title>T&#45;&gt;Y</title>
<path fill="none" stroke="#000000" d="M104.8276,-71.8314C104.8276,-64.131 104.8276,-54.9743 104.8276,-46.4166"/>
<polygon fill="#000000" stroke="#000000" points="108.3277,-46.4132 104.8276,-36.4133 101.3277,-46.4133 108.3277,-46.4132"/>
</g>
<!-- IQ=x -->
<g id="node4" class="node">
<title>IQ=x</title>
<ellipse fill="none" stroke="#000000" cx="178.8276" cy="-90" rx="28.6955" ry="18"/>
<text text-anchor="middle" x="178.8276" y="-85.8" font-family="Times,serif" font-size="14.00" fill="#000000">IQ=x</text>
</g>
<!-- Educ -->
<g id="node5" class="node">
<title>Educ</title>
<ellipse fill="none" stroke="#000000" cx="253.8276" cy="-90" rx="28.0565" ry="18"/>
<text text-anchor="middle" x="253.8276" y="-85.8" font-family="Times,serif" font-size="14.00" fill="#000000">Educ</text>
</g>
<!-- Wage -->
<g id="node6" class="node">
<title>Wage</title>
<ellipse fill="none" stroke="#000000" cx="253.8276" cy="-18" rx="30.0438" ry="18"/>
<text text-anchor="middle" x="253.8276" y="-13.8" font-family="Times,serif" font-size="14.00" fill="#000000">Wage</text>
</g>
<!-- Educ&#45;&gt;Wage -->
<g id="edge2" class="edge">
<title>Educ&#45;&gt;Wage</title>
<path fill="none" stroke="#ff0000" d="M253.8276,-71.8314C253.8276,-64.131 253.8276,-54.9743 253.8276,-46.4166"/>
<polygon fill="#ff0000" stroke="#ff0000" points="257.3277,-46.4132 253.8276,-36.4133 250.3277,-46.4133 257.3277,-46.4132"/>
</g>
</g>
</svg>
