<?xml version="1.0" encoding="UTF-8" standalone="no"?>
<!DOCTYPE svg PUBLIC "-//W3C//DTD SVG 1.1//EN"
 "http://www.w3.org/Graphics/SVG/1.1/DTD/svg11.dtd">
<!-- Generated by graphviz version 2.44.1 (20200629.0846)
 -->
<!-- Pages: 1 -->
<svg width="345pt" height="188pt"
 viewBox="0.00 0.00 345.25 188.00" xmlns="http://www.w3.org/2000/svg" xmlns:xlink="http://www.w3.org/1999/xlink">
<g id="graph0" class="graph" transform="scale(1 1) rotate(0) translate(4 184)">
<polygon fill="white" stroke="transparent" points="-4,4 -4,-184 341.25,-184 341.25,4 -4,4"/>
<!-- W -->
<g id="node1" class="node">
<title>W</title>
<ellipse fill="none" stroke="black" cx="69" cy="-162" rx="27" ry="18"/>
<text text-anchor="middle" x="69" y="-158.3" font-family="Times,serif" font-size="14.00">W</text>
</g>
<!-- T -->
<g id="node2" class="node">
<title>T</title>
<ellipse fill="none" stroke="black" cx="27" cy="-90" rx="27" ry="18"/>
<text text-anchor="middle" x="27" y="-86.3" font-family="Times,serif" font-size="14.00">T</text>
</g>
<!-- W&#45;&gt;T -->
<g id="edge1" class="edge">
<title>W&#45;&gt;T</title>
<path fill="none" stroke="black" d="M59.47,-145.12C54.33,-136.56 47.88,-125.8 42.08,-116.13"/>
<polygon fill="black" stroke="black" points="44.93,-114.08 36.78,-107.31 38.93,-117.68 44.93,-114.08"/>
</g>
<!-- Y -->
<g id="node3" class="node">
<title>Y</title>
<ellipse fill="none" stroke="black" cx="63" cy="-18" rx="27" ry="18"/>
<text text-anchor="middle" x="63" y="-14.3" font-family="Times,serif" font-size="14.00">Y</text>
</g>
<!-- W&#45;&gt;Y -->
<g id="edge2" class="edge">
<title>W&#45;&gt;Y</title>
<path fill="none" stroke="black" d="M68.28,-143.87C67.25,-119.67 65.38,-75.21 64.16,-46.39"/>
<polygon fill="black" stroke="black" points="67.65,-46.03 63.73,-36.19 60.65,-46.33 67.65,-46.03"/>
</g>
<!-- T&#45;&gt;Y -->
<g id="edge3" class="edge">
<title>T&#45;&gt;Y</title>
<path fill="none" stroke="black" d="M35.35,-72.76C39.71,-64.28 45.15,-53.71 50.04,-44.2"/>
<polygon fill="black" stroke="black" points="53.23,-45.64 54.7,-35.15 47.01,-42.44 53.23,-45.64"/>
</g>
<!-- IQ -->
<g id="node4" class="node">
<title>IQ</title>
<ellipse fill="none" stroke="black" cx="161" cy="-162" rx="27" ry="18"/>
<text text-anchor="middle" x="161" y="-158.3" font-family="Times,serif" font-size="14.00">IQ</text>
</g>
<!-- Educ -->
<g id="node5" class="node">
<title>Educ</title>
<ellipse fill="none" stroke="black" cx="148" cy="-90" rx="28.7" ry="18"/>
<text text-anchor="middle" x="148" y="-86.3" font-family="Times,serif" font-size="14.00">Educ</text>
</g>
<!-- IQ&#45;&gt;Educ -->
<g id="edge4" class="edge">
<title>IQ&#45;&gt;Educ</title>
<path fill="none" stroke="red" d="M157.85,-144.05C156.42,-136.35 154.69,-127.03 153.08,-118.36"/>
<polygon fill="red" stroke="red" points="156.48,-117.47 151.21,-108.28 149.59,-118.75 156.48,-117.47"/>
</g>
<!-- Wage -->
<g id="node6" class="node">
<title>Wage</title>
<ellipse fill="none" stroke="black" cx="161" cy="-18" rx="31.4" ry="18"/>
<text text-anchor="middle" x="161" y="-14.3" font-family="Times,serif" font-size="14.00">Wage</text>
</g>
<!-- IQ&#45;&gt;Wage -->
<g id="edge5" class="edge">
<title>IQ&#45;&gt;Wage</title>
<path fill="none" stroke="red" d="M170.85,-144.97C176.51,-134.79 183.06,-121.1 186,-108 189.5,-92.39 189.5,-87.61 186,-72 183.9,-62.62 179.95,-52.95 175.79,-44.48"/>
<polygon fill="red" stroke="red" points="178.84,-42.74 171.11,-35.5 172.63,-45.98 178.84,-42.74"/>
</g>
<!-- Educ&#45;&gt;Wage -->
<g id="edge6" class="edge">
<title>Educ&#45;&gt;Wage</title>
<path fill="none" stroke="red" d="M151.15,-72.05C152.58,-64.35 154.31,-55.03 155.92,-46.36"/>
<polygon fill="red" stroke="red" points="159.41,-46.75 157.79,-36.28 152.52,-45.47 159.41,-46.75"/>
</g>
<!-- Crime -->
<g id="node7" class="node">
<title>Crime</title>
<ellipse fill="none" stroke="black" cx="295" cy="-162" rx="33.29" ry="18"/>
<text text-anchor="middle" x="295" y="-158.3" font-family="Times,serif" font-size="14.00">Crime</text>
</g>
<!-- Police -->
<g id="node8" class="node">
<title>Police</title>
<ellipse fill="none" stroke="black" cx="265" cy="-90" rx="32.49" ry="18"/>
<text text-anchor="middle" x="265" y="-86.3" font-family="Times,serif" font-size="14.00">Police</text>
</g>
<!-- Crime&#45;&gt;Police -->
<g id="edge7" class="edge">
<title>Crime&#45;&gt;Police</title>
<path fill="none" stroke="red" d="M287.89,-144.41C284.43,-136.34 280.18,-126.43 276.29,-117.35"/>
<polygon fill="red" stroke="red" points="279.42,-115.77 272.27,-107.96 272.99,-118.53 279.42,-115.77"/>
</g>
<!-- Violence -->
<g id="node9" class="node">
<title>Violence</title>
<ellipse fill="none" stroke="black" cx="295" cy="-18" rx="42.49" ry="18"/>
<text text-anchor="middle" x="295" y="-14.3" font-family="Times,serif" font-size="14.00">Violence</text>
</g>
<!-- Crime&#45;&gt;Violence -->
<g id="edge8" class="edge">
<title>Crime&#45;&gt;Violence</title>
<path fill="none" stroke="red" d="M299.46,-143.95C301.94,-133.63 304.75,-120.15 306,-108 307.63,-92.08 307.63,-87.92 306,-72 305.12,-63.46 303.47,-54.26 301.71,-45.96"/>
<polygon fill="red" stroke="red" points="305.08,-45.03 299.46,-36.05 298.26,-46.57 305.08,-45.03"/>
</g>
<!-- Police&#45;&gt;Violence -->
<g id="edge9" class="edge">
<title>Police&#45;&gt;Violence</title>
<path fill="none" stroke="blue" d="M272.11,-72.41C275.57,-64.34 279.82,-54.43 283.71,-45.35"/>
<polygon fill="blue" stroke="blue" points="287.01,-46.53 287.73,-35.96 280.58,-43.77 287.01,-46.53"/>
</g>
</g>
</svg>
