<?xml version="1.0" encoding="UTF-8" standalone="no"?>
<!DOCTYPE svg PUBLIC "-//W3C//DTD SVG 1.1//EN"
 "http://www.w3.org/Graphics/SVG/1.1/DTD/svg11.dtd">
<!-- Generated by graphviz version 2.40.1 (20161225.0304)
 -->
<!-- Title: %3 Pages: 1 -->
<svg width="342pt" height="188pt"
 viewBox="0.00 0.00 342.50 188.00" xmlns="http://www.w3.org/2000/svg" xmlns:xlink="http://www.w3.org/1999/xlink">
<g id="graph0" class="graph" transform="scale(1 1) rotate(0) translate(4 184)">
<title>%3</title>
<polygon fill="#ffffff" stroke="transparent" points="-4,4 -4,-184 338.4994,-184 338.4994,4 -4,4"/>
<!-- W -->
<g id="node1" class="node">
<title>W</title>
<ellipse fill="none" stroke="#000000" cx="69" cy="-162" rx="27" ry="18"/>
<text text-anchor="middle" x="69" y="-157.8" font-family="Times,serif" font-size="14.00" fill="#000000">W</text>
</g>
<!-- T -->
<g id="node2" class="node">
<title>T</title>
<ellipse fill="none" stroke="#000000" cx="27" cy="-90" rx="27" ry="18"/>
<text text-anchor="middle" x="27" y="-85.8" font-family="Times,serif" font-size="14.00" fill="#000000">T</text>
</g>
<!-- W&#45;&gt;T -->
<g id="edge1" class="edge">
<title>W&#45;&gt;T</title>
<path fill="none" stroke="#000000" d="M59.0466,-144.937C53.9729,-136.2393 47.6966,-125.4799 42.047,-115.7948"/>
<polygon fill="#000000" stroke="#000000" points="44.944,-113.8148 36.882,-106.9405 38.8975,-117.3419 44.944,-113.8148"/>
</g>
<!-- Y -->
<g id="node3" class="node">
<title>Y</title>
<ellipse fill="none" stroke="#000000" cx="63" cy="-18" rx="27" ry="18"/>
<text text-anchor="middle" x="63" y="-13.8" font-family="Times,serif" font-size="14.00" fill="#000000">Y</text>
</g>
<!-- W&#45;&gt;Y -->
<g id="edge2" class="edge">
<title>W&#45;&gt;Y</title>
<path fill="none" stroke="#000000" d="M68.2401,-143.7623C67.2167,-119.201 65.3853,-75.2474 64.1814,-46.3541"/>
<polygon fill="#000000" stroke="#000000" points="67.6671,-45.9352 63.7537,-36.0896 60.6732,-46.2267 67.6671,-45.9352"/>
</g>
<!-- T&#45;&gt;Y -->
<g id="edge3" class="edge">
<title>T&#45;&gt;Y</title>
<path fill="none" stroke="#000000" d="M35.7146,-72.5708C39.9597,-64.0807 45.1536,-53.6929 49.8663,-44.2674"/>
<polygon fill="#000000" stroke="#000000" points="53.024,-45.7782 54.3657,-35.2687 46.763,-42.6477 53.024,-45.7782"/>
</g>
<!-- IQ -->
<g id="node4" class="node">
<title>IQ</title>
<ellipse fill="none" stroke="#000000" cx="160" cy="-162" rx="27" ry="18"/>
<text text-anchor="middle" x="160" y="-157.8" font-family="Times,serif" font-size="14.00" fill="#000000">IQ</text>
</g>
<!-- Educ -->
<g id="node5" class="node">
<title>Educ</title>
<ellipse fill="none" stroke="#000000" cx="147" cy="-90" rx="28.0565" ry="18"/>
<text text-anchor="middle" x="147" y="-85.8" font-family="Times,serif" font-size="14.00" fill="#000000">Educ</text>
</g>
<!-- IQ&#45;&gt;Educ -->
<g id="edge4" class="edge">
<title>IQ&#45;&gt;Educ</title>
<path fill="none" stroke="#ff0000" d="M156.7196,-143.8314C155.3078,-136.0125 153.625,-126.6923 152.0595,-118.0221"/>
<polygon fill="#ff0000" stroke="#ff0000" points="155.4556,-117.1324 150.2344,-107.9134 148.567,-118.3762 155.4556,-117.1324"/>
</g>
<!-- Wage -->
<g id="node6" class="node">
<title>Wage</title>
<ellipse fill="none" stroke="#000000" cx="160" cy="-18" rx="30.0438" ry="18"/>
<text text-anchor="middle" x="160" y="-13.8" font-family="Times,serif" font-size="14.00" fill="#000000">Wage</text>
</g>
<!-- IQ&#45;&gt;Wage -->
<g id="edge5" class="edge">
<title>IQ&#45;&gt;Wage</title>
<path fill="none" stroke="#ff0000" d="M169.7067,-145.1142C175.0856,-134.7678 181.2314,-121.0465 184,-108 187.3215,-92.3486 187.3215,-87.6514 184,-72 182.0194,-62.6668 178.3104,-52.9882 174.3903,-44.4468"/>
<polygon fill="#ff0000" stroke="#ff0000" points="177.4888,-42.8155 169.9555,-35.3657 171.1987,-45.8873 177.4888,-42.8155"/>
</g>
<!-- Educ&#45;&gt;Wage -->
<g id="edge6" class="edge">
<title>Educ&#45;&gt;Wage</title>
<path fill="none" stroke="#ff0000" d="M150.2804,-71.8314C151.6922,-64.0125 153.375,-54.6923 154.9405,-46.0221"/>
<polygon fill="#ff0000" stroke="#ff0000" points="158.433,-46.3762 156.7656,-35.9134 151.5444,-45.1324 158.433,-46.3762"/>
</g>
<!-- Crime -->
<g id="node7" class="node">
<title>Crime</title>
<ellipse fill="none" stroke="#000000" cx="293" cy="-162" rx="32.4237" ry="18"/>
<text text-anchor="middle" x="293" y="-157.8" font-family="Times,serif" font-size="14.00" fill="#000000">Crime</text>
</g>
<!-- Police -->
<g id="node8" class="node">
<title>Police</title>
<ellipse fill="none" stroke="#000000" cx="263" cy="-90" rx="32.4237" ry="18"/>
<text text-anchor="middle" x="263" y="-85.8" font-family="Times,serif" font-size="14.00" fill="#000000">Police</text>
</g>
<!-- Crime&#45;&gt;Police -->
<g id="edge7" class="edge">
<title>Crime&#45;&gt;Police</title>
<path fill="none" stroke="#ff0000" d="M285.5843,-144.2022C282.1693,-136.0064 278.0427,-126.1024 274.2561,-117.0145"/>
<polygon fill="#ff0000" stroke="#ff0000" points="277.4074,-115.4776 270.3304,-107.593 270.9459,-118.17 277.4074,-115.4776"/>
</g>
<!-- Violence -->
<g id="node9" class="node">
<title>Violence</title>
<ellipse fill="none" stroke="#000000" cx="293" cy="-18" rx="41.4988" ry="18"/>
<text text-anchor="middle" x="293" y="-13.8" font-family="Times,serif" font-size="14.00" fill="#000000">Violence</text>
</g>
<!-- Crime&#45;&gt;Violence -->
<g id="edge8" class="edge">
<title>Crime&#45;&gt;Violence</title>
<path fill="none" stroke="#ff0000" d="M297.5787,-144.1385C300.0216,-133.6847 302.7716,-120.1847 304,-108 305.6049,-92.0807 305.6049,-87.9193 304,-72 303.1498,-63.5665 301.5706,-54.5029 299.8689,-46.2554"/>
<polygon fill="#ff0000" stroke="#ff0000" points="303.2578,-45.3697 297.6934,-36.3537 296.4209,-46.8719 303.2578,-45.3697"/>
</g>
<!-- Police&#45;&gt;Violence -->
<g id="edge9" class="edge">
<title>Police&#45;&gt;Violence</title>
<path fill="none" stroke="#0000ff" d="M270.4157,-72.2022C273.8052,-64.0675 277.8958,-54.2501 281.6591,-45.2181"/>
<polygon fill="#0000ff" stroke="#0000ff" points="284.9502,-46.4195 285.5656,-35.8425 278.4886,-43.7271 284.9502,-46.4195"/>
</g>
</g>
</svg>
