<?xml version="1.0" encoding="UTF-8" standalone="no"?>
<!DOCTYPE svg PUBLIC "-//W3C//DTD SVG 1.1//EN"
 "http://www.w3.org/Graphics/SVG/1.1/DTD/svg11.dtd">
<!-- Generated by graphviz version 2.50.0 (0)
 -->
<!-- Pages: 1 -->
<svg width="303pt" height="260pt"
 viewBox="0.00 0.00 303.34 260.00" xmlns="http://www.w3.org/2000/svg" xmlns:xlink="http://www.w3.org/1999/xlink">
<g id="graph0" class="graph" transform="scale(1 1) rotate(0) translate(4 256)">
<polygon fill="white" stroke="transparent" points="-4,4 -4,-256 299.34,-256 299.34,4 -4,4"/>
<!-- email -->
<g id="node1" class="node">
<title>email</title>
<ellipse fill="none" stroke="black" cx="30.55" cy="-234" rx="30.59" ry="18"/>
<text text-anchor="middle" x="30.55" y="-230.3" font-family="Times,serif" font-size="14.00">email</text>
</g>
<!-- payments -->
<g id="node2" class="node">
<title>payments</title>
<ellipse fill="none" stroke="black" cx="170.55" cy="-18" rx="44.69" ry="18"/>
<text text-anchor="middle" x="170.55" y="-14.3" font-family="Times,serif" font-size="14.00">payments</text>
</g>
<!-- email&#45;&gt;payments -->
<g id="edge1" class="edge">
<title>email&#45;&gt;payments</title>
<path fill="none" stroke="black" d="M25.81,-216.06C18.06,-184.46 6.44,-115.8 37.55,-72 56.02,-45.99 89.41,-32.73 118.11,-25.99"/>
<polygon fill="black" stroke="black" points="118.99,-29.38 128.03,-23.86 117.52,-22.53 118.99,-29.38"/>
</g>
<!-- opened -->
<g id="node3" class="node">
<title>opened</title>
<ellipse fill="none" stroke="black" cx="132.55" cy="-162" rx="36.29" ry="18"/>
<text text-anchor="middle" x="132.55" y="-158.3" font-family="Times,serif" font-size="14.00">opened</text>
</g>
<!-- email&#45;&gt;opened -->
<g id="edge2" class="edge">
<title>email&#45;&gt;opened</title>
<path fill="none" stroke="black" d="M49.73,-219.83C64.87,-209.45 86.23,-194.79 103.47,-182.96"/>
<polygon fill="black" stroke="black" points="105.78,-185.61 112.05,-177.07 101.82,-179.84 105.78,-185.61"/>
</g>
<!-- agreement -->
<g id="node4" class="node">
<title>agreement</title>
<ellipse fill="none" stroke="black" cx="94.55" cy="-90" rx="48.19" ry="18"/>
<text text-anchor="middle" x="94.55" y="-86.3" font-family="Times,serif" font-size="14.00">agreement</text>
</g>
<!-- email&#45;&gt;agreement -->
<g id="edge3" class="edge">
<title>email&#45;&gt;agreement</title>
<path fill="none" stroke="black" d="M38.01,-216.43C49.03,-191.98 69.76,-146 82.82,-117.02"/>
<polygon fill="black" stroke="black" points="86.01,-118.46 86.93,-107.9 79.63,-115.58 86.01,-118.46"/>
</g>
<!-- opened&#45;&gt;payments -->
<g id="edge4" class="edge">
<title>opened&#45;&gt;payments</title>
<path fill="none" stroke="black" d="M139.3,-144C143.22,-133.7 148.07,-120.22 151.55,-108 157.35,-87.61 162.29,-64.15 165.68,-46.44"/>
<polygon fill="black" stroke="black" points="169.19,-46.7 167.58,-36.23 162.3,-45.42 169.19,-46.7"/>
</g>
<!-- opened&#45;&gt;agreement -->
<g id="edge5" class="edge">
<title>opened&#45;&gt;agreement</title>
<path fill="none" stroke="black" d="M123.54,-144.41C119.06,-136.16 113.55,-126.01 108.54,-116.78"/>
<polygon fill="black" stroke="black" points="111.6,-115.07 103.75,-107.96 105.45,-118.41 111.6,-115.07"/>
</g>
<!-- agreement&#45;&gt;payments -->
<g id="edge6" class="edge">
<title>agreement&#45;&gt;payments</title>
<path fill="none" stroke="black" d="M111.79,-73.12C121.9,-63.81 134.83,-51.9 145.99,-41.62"/>
<polygon fill="black" stroke="black" points="148.39,-44.17 153.37,-34.82 143.64,-39.02 148.39,-44.17"/>
</g>
<!-- credit_limit -->
<g id="node5" class="node">
<title>credit_limit</title>
<ellipse fill="none" stroke="black" cx="131.55" cy="-234" rx="51.99" ry="18"/>
<text text-anchor="middle" x="131.55" y="-230.3" font-family="Times,serif" font-size="14.00">credit_limit</text>
</g>
<!-- credit_limit&#45;&gt;payments -->
<g id="edge7" class="edge">
<title>credit_limit&#45;&gt;payments</title>
<path fill="none" stroke="black" d="M150.93,-217C160.95,-207.45 172.18,-194.38 177.55,-180 194.24,-135.3 185.59,-78.71 177.95,-45.9"/>
<polygon fill="black" stroke="black" points="181.33,-45 175.54,-36.13 174.53,-46.68 181.33,-45"/>
</g>
<!-- credit_limit&#45;&gt;opened -->
<g id="edge8" class="edge">
<title>credit_limit&#45;&gt;opened</title>
<path fill="none" stroke="black" d="M131.79,-215.7C131.9,-207.98 132.04,-198.71 132.16,-190.11"/>
<polygon fill="black" stroke="black" points="135.66,-190.15 132.3,-180.1 128.66,-190.05 135.66,-190.15"/>
</g>
<!-- credit_limit&#45;&gt;agreement -->
<g id="edge9" class="edge">
<title>credit_limit&#45;&gt;agreement</title>
<path fill="none" stroke="black" d="M112.99,-216.84C103.4,-207.23 92.66,-194.17 87.55,-180 80.33,-160.01 82.85,-135.91 86.75,-117.83"/>
<polygon fill="black" stroke="black" points="90.19,-118.5 89.14,-107.96 83.39,-116.85 90.19,-118.5"/>
</g>
<!-- risk_score -->
<g id="node6" class="node">
<title>risk_score</title>
<ellipse fill="none" stroke="black" cx="248.55" cy="-234" rx="46.59" ry="18"/>
<text text-anchor="middle" x="248.55" y="-230.3" font-family="Times,serif" font-size="14.00">risk_score</text>
</g>
<!-- risk_score&#45;&gt;payments -->
<g id="edge10" class="edge">
<title>risk_score&#45;&gt;payments</title>
<path fill="none" stroke="black" d="M244.52,-215.67C237.28,-185.73 220.84,-122.63 199.55,-72 195.67,-62.77 190.65,-53.05 185.88,-44.5"/>
<polygon fill="black" stroke="black" points="188.87,-42.68 180.87,-35.74 182.8,-46.16 188.87,-42.68"/>
</g>
<!-- risk_score&#45;&gt;opened -->
<g id="edge11" class="edge">
<title>risk_score&#45;&gt;opened</title>
<path fill="none" stroke="black" d="M224.51,-218.5C206.87,-207.85 182.75,-193.29 163.64,-181.76"/>
<polygon fill="black" stroke="black" points="165.35,-178.71 154.98,-176.54 161.73,-184.7 165.35,-178.71"/>
</g>
<!-- risk_score&#45;&gt;agreement -->
<g id="edge12" class="edge">
<title>risk_score&#45;&gt;agreement</title>
<path fill="none" stroke="black" d="M237.67,-216.22C224.82,-197.23 202.08,-166.08 177.55,-144 163.31,-131.19 145.64,-119.44 130.27,-110.28"/>
<polygon fill="black" stroke="black" points="131.93,-107.2 121.53,-105.2 128.41,-113.25 131.93,-107.2"/>
</g>
</g>
</svg>
