<?xml version="1.0" encoding="UTF-8" standalone="no"?>
<!DOCTYPE svg PUBLIC "-//W3C//DTD SVG 1.1//EN"
 "http://www.w3.org/Graphics/SVG/1.1/DTD/svg11.dtd">
<!-- Generated by graphviz version 2.44.1 (20200629.0846)
 -->
<!-- Pages: 1 -->
<svg width="89pt" height="260pt"
 viewBox="0.00 0.00 89.00 260.00" xmlns="http://www.w3.org/2000/svg" xmlns:xlink="http://www.w3.org/1999/xlink">
<g id="graph0" class="graph" transform="scale(1 1) rotate(0) translate(4 256)">
<polygon fill="white" stroke="transparent" points="-4,4 -4,-256 85,-256 85,4 -4,4"/>
<!-- T -->
<g id="node1" class="node">
<title>T</title>
<ellipse fill="none" stroke="gold" cx="54" cy="-234" rx="27" ry="18"/>
<text text-anchor="middle" x="54" y="-230.3" font-family="Times,serif" font-size="14.00">T</text>
</g>
<!-- X_1 -->
<g id="node2" class="node">
<title>X_1</title>
<ellipse fill="none" stroke="red" cx="27" cy="-162" rx="27" ry="18"/>
<text text-anchor="middle" x="27" y="-158.3" font-family="Times,serif" font-size="14.00">X_1</text>
</g>
<!-- T&#45;&gt;X_1 -->
<g id="edge1" class="edge">
<title>T&#45;&gt;X_1</title>
<path fill="none" stroke="black" d="M47.6,-216.41C44.49,-208.34 40.67,-198.43 37.17,-189.35"/>
<polygon fill="black" stroke="black" points="40.4,-188.03 33.54,-179.96 33.87,-190.55 40.4,-188.03"/>
</g>
<!-- X_2 -->
<g id="node4" class="node">
<title>X_2</title>
<ellipse fill="none" stroke="red" cx="54" cy="-18" rx="27" ry="18"/>
<text text-anchor="middle" x="54" y="-14.3" font-family="Times,serif" font-size="14.00">X_2</text>
</g>
<!-- T&#45;&gt;X_2 -->
<g id="edge3" class="edge">
<title>T&#45;&gt;X_2</title>
<path fill="none" stroke="black" d="M57.65,-215.91C59.68,-205.57 61.98,-192.09 63,-180 67.03,-132.17 67.03,-119.83 63,-72 62.28,-63.5 60.93,-54.31 59.49,-46.01"/>
<polygon fill="black" stroke="black" points="62.91,-45.29 57.65,-36.09 56.03,-46.56 62.91,-45.29"/>
</g>
<!-- Y -->
<g id="node3" class="node">
<title>Y</title>
<ellipse fill="none" stroke="black" cx="27" cy="-90" rx="27" ry="18"/>
<text text-anchor="middle" x="27" y="-86.3" font-family="Times,serif" font-size="14.00">Y</text>
</g>
<!-- X_1&#45;&gt;Y -->
<g id="edge2" class="edge">
<title>X_1&#45;&gt;Y</title>
<path fill="none" stroke="black" d="M27,-143.7C27,-135.98 27,-126.71 27,-118.11"/>
<polygon fill="black" stroke="black" points="30.5,-118.1 27,-108.1 23.5,-118.1 30.5,-118.1"/>
</g>
<!-- Y&#45;&gt;X_2 -->
<g id="edge4" class="edge">
<title>Y&#45;&gt;X_2</title>
<path fill="none" stroke="black" d="M33.4,-72.41C36.51,-64.34 40.33,-54.43 43.83,-45.35"/>
<polygon fill="black" stroke="black" points="47.13,-46.55 47.46,-35.96 40.6,-44.03 47.13,-46.55"/>
</g>
</g>
</svg>
