<?xml version="1.0" encoding="UTF-8" standalone="no"?>
<!DOCTYPE svg PUBLIC "-//W3C//DTD SVG 1.1//EN"
 "http://www.w3.org/Graphics/SVG/1.1/DTD/svg11.dtd">
<!-- Generated by graphviz version 2.40.1 (20161225.0304)
 -->
<!-- Title: %3 Pages: 1 -->
<svg width="443pt" height="116pt"
 viewBox="0.00 0.00 443.45 116.00" xmlns="http://www.w3.org/2000/svg" xmlns:xlink="http://www.w3.org/1999/xlink">
<g id="graph0" class="graph" transform="scale(1 1) rotate(0) translate(4 112)">
<title>%3</title>
<polygon fill="#ffffff" stroke="transparent" points="-4,4 -4,-112 439.4523,-112 439.4523,4 -4,4"/>
<!-- X -->
<g id="node1" class="node">
<title>X</title>
<ellipse fill="none" stroke="#000000" cx="27" cy="-90" rx="27" ry="18"/>
<text text-anchor="middle" x="27" y="-85.8" font-family="Times,serif" font-size="14.00" fill="#000000">X</text>
</g>
<!-- Y -->
<g id="node2" class="node">
<title>Y</title>
<ellipse fill="none" stroke="#000000" cx="63" cy="-18" rx="27" ry="18"/>
<text text-anchor="middle" x="63" y="-13.8" font-family="Times,serif" font-size="14.00" fill="#000000">Y</text>
</g>
<!-- X&#45;&gt;Y -->
<g id="edge1" class="edge">
<title>X&#45;&gt;Y</title>
<path fill="none" stroke="#000000" d="M35.7146,-72.5708C39.9597,-64.0807 45.1536,-53.6929 49.8663,-44.2674"/>
<polygon fill="#000000" stroke="#000000" points="53.024,-45.7782 54.3657,-35.2687 46.763,-42.6477 53.024,-45.7782"/>
</g>
<!-- T -->
<g id="node3" class="node">
<title>T</title>
<ellipse fill="none" stroke="#ffd700" cx="99" cy="-90" rx="27" ry="18"/>
<text text-anchor="middle" x="99" y="-85.8" font-family="Times,serif" font-size="14.00" fill="#000000">T</text>
</g>
<!-- T&#45;&gt;Y -->
<g id="edge2" class="edge">
<title>T&#45;&gt;Y</title>
<path fill="none" stroke="#000000" d="M90.2854,-72.5708C86.0403,-64.0807 80.8464,-53.6929 76.1337,-44.2674"/>
<polygon fill="#000000" stroke="#000000" points="79.237,-42.6477 71.6343,-35.2687 72.976,-45.7782 79.237,-42.6477"/>
</g>
<!-- email -->
<g id="node4" class="node">
<title>email</title>
<ellipse fill="none" stroke="#ffd700" cx="174" cy="-90" rx="30.0018" ry="18"/>
<text text-anchor="middle" x="174" y="-85.8" font-family="Times,serif" font-size="14.00" fill="#000000">email</text>
</g>
<!-- payments -->
<g id="node6" class="node">
<title>payments</title>
<ellipse fill="none" stroke="#000000" cx="273" cy="-18" rx="43.9992" ry="18"/>
<text text-anchor="middle" x="273" y="-13.8" font-family="Times,serif" font-size="14.00" fill="#000000">payments</text>
</g>
<!-- email&#45;&gt;payments -->
<g id="edge5" class="edge">
<title>email&#45;&gt;payments</title>
<path fill="none" stroke="#000000" d="M193.0882,-76.1177C207.2511,-65.8174 226.837,-51.5731 243.0738,-39.7645"/>
<polygon fill="#000000" stroke="#000000" points="245.184,-42.5576 251.2128,-33.8453 241.0668,-36.8964 245.184,-42.5576"/>
</g>
<!-- credit_limit -->
<g id="node5" class="node">
<title>credit_limit</title>
<ellipse fill="none" stroke="#000000" cx="273" cy="-90" rx="51.2329" ry="18"/>
<text text-anchor="middle" x="273" y="-85.8" font-family="Times,serif" font-size="14.00" fill="#000000">credit_limit</text>
</g>
<!-- credit_limit&#45;&gt;payments -->
<g id="edge3" class="edge">
<title>credit_limit&#45;&gt;payments</title>
<path fill="none" stroke="#000000" d="M273,-71.8314C273,-64.131 273,-54.9743 273,-46.4166"/>
<polygon fill="#000000" stroke="#000000" points="276.5001,-46.4132 273,-36.4133 269.5001,-46.4133 276.5001,-46.4132"/>
</g>
<!-- risk_score -->
<g id="node7" class="node">
<title>risk_score</title>
<ellipse fill="none" stroke="#000000" cx="389" cy="-90" rx="46.4046" ry="18"/>
<text text-anchor="middle" x="389" y="-85.8" font-family="Times,serif" font-size="14.00" fill="#000000">risk_score</text>
</g>
<!-- risk_score&#45;&gt;payments -->
<g id="edge4" class="edge">
<title>risk_score&#45;&gt;payments</title>
<path fill="none" stroke="#000000" d="M364.3994,-74.7307C347.4821,-64.2303 324.814,-50.1604 306.2852,-38.6598"/>
<polygon fill="#000000" stroke="#000000" points="307.9074,-35.5473 297.5652,-33.2473 304.2158,-41.4948 307.9074,-35.5473"/>
</g>
</g>
</svg>
