<?xml version="1.0" encoding="UTF-8" standalone="no"?>
<!DOCTYPE svg PUBLIC "-//W3C//DTD SVG 1.1//EN"
 "http://www.w3.org/Graphics/SVG/1.1/DTD/svg11.dtd">
<!-- Generated by graphviz version 2.40.1 (20161225.0304)
 -->
<!-- Title: %3 Pages: 1 -->
<svg width="300pt" height="260pt"
 viewBox="0.00 0.00 300.20 260.00" xmlns="http://www.w3.org/2000/svg" xmlns:xlink="http://www.w3.org/1999/xlink">
<g id="graph0" class="graph" transform="scale(1 1) rotate(0) translate(4 256)">
<title>%3</title>
<polygon fill="#ffffff" stroke="transparent" points="-4,4 -4,-256 296.2021,-256 296.2021,4 -4,4"/>
<!-- email -->
<g id="node1" class="node">
<title>email</title>
<ellipse fill="none" stroke="#000000" cx="29.7499" cy="-234" rx="30.0018" ry="18"/>
<text text-anchor="middle" x="29.7499" y="-229.8" font-family="Times,serif" font-size="14.00" fill="#000000">email</text>
</g>
<!-- payments -->
<g id="node2" class="node">
<title>payments</title>
<ellipse fill="none" stroke="#000000" cx="168.7499" cy="-18" rx="43.9992" ry="18"/>
<text text-anchor="middle" x="168.7499" y="-13.8" font-family="Times,serif" font-size="14.00" fill="#000000">payments</text>
</g>
<!-- email&#45;&gt;payments -->
<g id="edge1" class="edge">
<title>email&#45;&gt;payments</title>
<path fill="none" stroke="#000000" d="M24.9783,-216.2188C17.4917,-184.1342 6.8185,-115.8277 37.7499,-72 55.8942,-46.2907 88.6138,-32.7915 116.8126,-25.7192"/>
<polygon fill="#000000" stroke="#000000" points="117.6057,-29.1283 126.567,-23.4762 116.0369,-22.3063 117.6057,-29.1283"/>
</g>
<!-- opened -->
<g id="node3" class="node">
<title>opened</title>
<ellipse fill="none" stroke="#000000" cx="131.7499" cy="-162" rx="35.7887" ry="18"/>
<text text-anchor="middle" x="131.7499" y="-157.8" font-family="Times,serif" font-size="14.00" fill="#000000">opened</text>
</g>
<!-- email&#45;&gt;opened -->
<g id="edge2" class="edge">
<title>email&#45;&gt;opened</title>
<path fill="none" stroke="#000000" d="M49.4165,-220.1177C64.4029,-209.539 85.2829,-194.8002 102.2654,-182.8125"/>
<polygon fill="#000000" stroke="#000000" points="104.5878,-185.4574 110.7391,-176.8311 100.551,-179.7386 104.5878,-185.4574"/>
</g>
<!-- agreement -->
<g id="node4" class="node">
<title>agreement</title>
<ellipse fill="none" stroke="#000000" cx="93.7499" cy="-90" rx="46.8632" ry="18"/>
<text text-anchor="middle" x="93.7499" y="-85.8" font-family="Times,serif" font-size="14.00" fill="#000000">agreement</text>
</g>
<!-- email&#45;&gt;agreement -->
<g id="edge3" class="edge">
<title>email&#45;&gt;agreement</title>
<path fill="none" stroke="#000000" d="M37.5975,-216.3428C48.6333,-191.5122 68.8316,-146.066 81.7571,-116.9836"/>
<polygon fill="#000000" stroke="#000000" points="84.9749,-118.3613 85.838,-107.8017 78.5782,-115.5183 84.9749,-118.3613"/>
</g>
<!-- opened&#45;&gt;payments -->
<g id="edge4" class="edge">
<title>opened&#45;&gt;payments</title>
<path fill="none" stroke="#000000" d="M138.266,-144.1559C141.9381,-133.7079 146.4381,-120.2079 149.7499,-108 155.3159,-87.4823 160.231,-63.966 163.667,-46.1181"/>
<polygon fill="#000000" stroke="#000000" points="167.1475,-46.5485 165.5603,-36.0732 160.2686,-45.2519 167.1475,-46.5485"/>
</g>
<!-- opened&#45;&gt;agreement -->
<g id="edge5" class="edge">
<title>opened&#45;&gt;agreement</title>
<path fill="none" stroke="#000000" d="M122.5511,-144.5708C118.1361,-136.2055 112.7488,-125.998 107.833,-116.6839"/>
<polygon fill="#000000" stroke="#000000" points="110.8909,-114.9791 103.1279,-107.7689 104.7002,-118.2464 110.8909,-114.9791"/>
</g>
<!-- agreement&#45;&gt;payments -->
<g id="edge6" class="edge">
<title>agreement&#45;&gt;payments</title>
<path fill="none" stroke="#000000" d="M111.5238,-72.937C121.214,-63.6344 133.361,-51.9733 143.968,-41.7906"/>
<polygon fill="#000000" stroke="#000000" points="146.5722,-44.1424 151.3622,-34.6921 141.7244,-39.0926 146.5722,-44.1424"/>
</g>
<!-- credit_limit -->
<g id="node5" class="node">
<title>credit_limit</title>
<ellipse fill="none" stroke="#000000" cx="129.7499" cy="-234" rx="51.2329" ry="18"/>
<text text-anchor="middle" x="129.7499" y="-229.8" font-family="Times,serif" font-size="14.00" fill="#000000">credit_limit</text>
</g>
<!-- credit_limit&#45;&gt;payments -->
<g id="edge7" class="edge">
<title>credit_limit&#45;&gt;payments</title>
<path fill="none" stroke="#000000" d="M150.0426,-217.2474C160.1523,-207.5544 171.3482,-194.4339 176.7499,-180 193.4038,-135.4987 184.6278,-79.2799 176.7098,-46.1244"/>
<polygon fill="#000000" stroke="#000000" points="180.0484,-45.0501 174.2025,-36.214 173.2622,-46.7671 180.0484,-45.0501"/>
</g>
<!-- credit_limit&#45;&gt;opened -->
<g id="edge8" class="edge">
<title>credit_limit&#45;&gt;opened</title>
<path fill="none" stroke="#000000" d="M130.2545,-215.8314C130.4684,-208.131 130.7228,-198.9743 130.9605,-190.4166"/>
<polygon fill="#000000" stroke="#000000" points="134.4593,-190.5066 131.2384,-180.4133 127.462,-190.3122 134.4593,-190.5066"/>
</g>
<!-- credit_limit&#45;&gt;agreement -->
<g id="edge9" class="edge">
<title>credit_limit&#45;&gt;agreement</title>
<path fill="none" stroke="#000000" d="M111.1531,-216.9238C101.8947,-207.1361 91.6529,-194.0283 86.7499,-180 79.7906,-160.0886 82.0834,-136.2381 85.8236,-118.0937"/>
<polygon fill="#000000" stroke="#000000" points="89.2816,-118.6752 88.134,-108.1427 82.463,-117.092 89.2816,-118.6752"/>
</g>
<!-- risk_score -->
<g id="node6" class="node">
<title>risk_score</title>
<ellipse fill="none" stroke="#000000" cx="245.7499" cy="-234" rx="46.4046" ry="18"/>
<text text-anchor="middle" x="245.7499" y="-229.8" font-family="Times,serif" font-size="14.00" fill="#000000">risk_score</text>
</g>
<!-- risk_score&#45;&gt;payments -->
<g id="edge10" class="edge">
<title>risk_score&#45;&gt;payments</title>
<path fill="none" stroke="#000000" d="M241.937,-216.0548C235.1808,-185.6909 219.8095,-122.5512 198.7499,-72 194.873,-62.6941 189.7984,-52.9416 184.9284,-44.3251"/>
<polygon fill="#000000" stroke="#000000" points="187.8453,-42.3788 179.7905,-35.4961 181.7952,-45.8996 187.8453,-42.3788"/>
</g>
<!-- risk_score&#45;&gt;opened -->
<g id="edge11" class="edge">
<title>risk_score&#45;&gt;opened</title>
<path fill="none" stroke="#000000" d="M221.294,-218.5542C204.202,-207.7593 181.2389,-193.2563 162.8463,-181.6398"/>
<polygon fill="#000000" stroke="#000000" points="164.5539,-178.5788 154.23,-176.198 160.816,-184.4972 164.5539,-178.5788"/>
</g>
<!-- risk_score&#45;&gt;agreement -->
<g id="edge12" class="edge">
<title>risk_score&#45;&gt;agreement</title>
<path fill="none" stroke="#000000" d="M234.8299,-216.3332C222.3637,-197.0758 200.5913,-166.0666 176.7499,-144 162.723,-131.0173 145.2248,-119.1262 129.9162,-109.8272"/>
<polygon fill="#000000" stroke="#000000" points="131.5861,-106.7485 121.1986,-104.663 128.0184,-112.7711 131.5861,-106.7485"/>
</g>
</g>
</svg>
