<?xml version="1.0" encoding="UTF-8" standalone="no"?>
<!DOCTYPE svg PUBLIC "-//W3C//DTD SVG 1.1//EN"
 "http://www.w3.org/Graphics/SVG/1.1/DTD/svg11.dtd">
<!-- Generated by graphviz version 2.44.1 (20200629.0846)
 -->
<!-- Pages: 1 -->
<svg width="199pt" height="260pt"
 viewBox="0.00 0.00 199.35 260.00" xmlns="http://www.w3.org/2000/svg" xmlns:xlink="http://www.w3.org/1999/xlink">
<g id="graph0" class="graph" transform="scale(1 1) rotate(0) translate(4 256)">
<polygon fill="white" stroke="transparent" points="-4,4 -4,-256 195.35,-256 195.35,4 -4,4"/>
<!-- X -->
<g id="node1" class="node">
<title>X</title>
<ellipse fill="none" stroke="black" cx="27" cy="-234" rx="27" ry="18"/>
<text text-anchor="middle" x="27" y="-230.3" font-family="Times,serif" font-size="14.00">X</text>
</g>
<!-- T -->
<g id="node2" class="node">
<title>T</title>
<ellipse fill="none" stroke="gold" cx="27" cy="-162" rx="27" ry="18"/>
<text text-anchor="middle" x="27" y="-158.3" font-family="Times,serif" font-size="14.00">T</text>
</g>
<!-- X&#45;&gt;T -->
<g id="edge1" class="edge">
<title>X&#45;&gt;T</title>
<path fill="none" stroke="black" d="M27,-215.7C27,-207.98 27,-198.71 27,-190.11"/>
<polygon fill="black" stroke="black" points="30.5,-190.1 27,-180.1 23.5,-190.1 30.5,-190.1"/>
</g>
<!-- Y -->
<g id="node3" class="node">
<title>Y</title>
<ellipse fill="none" stroke="black" cx="27" cy="-90" rx="27" ry="18"/>
<text text-anchor="middle" x="27" y="-86.3" font-family="Times,serif" font-size="14.00">Y</text>
</g>
<!-- T&#45;&gt;Y -->
<g id="edge2" class="edge">
<title>T&#45;&gt;Y</title>
<path fill="none" stroke="black" d="M27,-143.7C27,-135.98 27,-126.71 27,-118.11"/>
<polygon fill="black" stroke="black" points="30.5,-118.1 27,-108.1 23.5,-118.1 30.5,-118.1"/>
</g>
<!-- treatment -->
<g id="node4" class="node">
<title>treatment</title>
<ellipse fill="none" stroke="gold" cx="116" cy="-90" rx="44.39" ry="18"/>
<text text-anchor="middle" x="116" y="-86.3" font-family="Times,serif" font-size="14.00">treatment</text>
</g>
<!-- days -->
<g id="node7" class="node">
<title>days</title>
<ellipse fill="none" stroke="black" cx="152" cy="-18" rx="27" ry="18"/>
<text text-anchor="middle" x="152" y="-14.3" font-family="Times,serif" font-size="14.00">days</text>
</g>
<!-- treatment&#45;&gt;days -->
<g id="edge6" class="edge">
<title>treatment&#45;&gt;days</title>
<path fill="none" stroke="black" d="M124.71,-72.05C128.98,-63.77 134.2,-53.62 138.92,-44.42"/>
<polygon fill="black" stroke="black" points="142.15,-45.8 143.61,-35.31 135.93,-42.6 142.15,-45.8"/>
</g>
<!-- severity -->
<g id="node5" class="node">
<title>severity</title>
<ellipse fill="none" stroke="black" cx="153" cy="-234" rx="38.19" ry="18"/>
<text text-anchor="middle" x="153" y="-230.3" font-family="Times,serif" font-size="14.00">severity</text>
</g>
<!-- hospital -->
<g id="node6" class="node">
<title>hospital</title>
<ellipse fill="none" stroke="black" cx="119" cy="-162" rx="38.19" ry="18"/>
<text text-anchor="middle" x="119" y="-158.3" font-family="Times,serif" font-size="14.00">hospital</text>
</g>
<!-- severity&#45;&gt;hospital -->
<g id="edge3" class="edge">
<title>severity&#45;&gt;hospital</title>
<path fill="none" stroke="black" d="M144.77,-216.05C140.8,-207.89 135.96,-197.91 131.54,-188.82"/>
<polygon fill="black" stroke="black" points="134.67,-187.25 127.15,-179.79 128.38,-190.31 134.67,-187.25"/>
</g>
<!-- severity&#45;&gt;days -->
<g id="edge4" class="edge">
<title>severity&#45;&gt;days</title>
<path fill="none" stroke="black" d="M158.09,-215.98C160.94,-205.67 164.27,-192.19 166,-180 172.75,-132.46 176.42,-119.44 169,-72 167.62,-63.18 165.02,-53.82 162.26,-45.46"/>
<polygon fill="black" stroke="black" points="165.51,-44.13 158.89,-35.86 158.9,-46.45 165.51,-44.13"/>
</g>
<!-- hospital&#45;&gt;treatment -->
<g id="edge5" class="edge">
<title>hospital&#45;&gt;treatment</title>
<path fill="none" stroke="black" d="M118.26,-143.7C117.93,-135.98 117.53,-126.71 117.16,-118.11"/>
<polygon fill="black" stroke="black" points="120.66,-117.95 116.73,-108.1 113.66,-118.25 120.66,-117.95"/>
</g>
</g>
</svg>
