<?xml version="1.0" encoding="UTF-8" standalone="no"?>
<!DOCTYPE svg PUBLIC "-//W3C//DTD SVG 1.1//EN"
 "http://www.w3.org/Graphics/SVG/1.1/DTD/svg11.dtd">
<!-- Generated by graphviz version 2.40.1 (20161225.0304)
 -->
<!-- Title: %3 Pages: 1 -->
<svg width="197pt" height="260pt"
 viewBox="0.00 0.00 197.10 260.00" xmlns="http://www.w3.org/2000/svg" xmlns:xlink="http://www.w3.org/1999/xlink">
<g id="graph0" class="graph" transform="scale(1 1) rotate(0) translate(4 256)">
<title>%3</title>
<polygon fill="#ffffff" stroke="transparent" points="-4,4 -4,-256 193.1011,-256 193.1011,4 -4,4"/>
<!-- X -->
<g id="node1" class="node">
<title>X</title>
<ellipse fill="none" stroke="#000000" cx="27" cy="-234" rx="27" ry="18"/>
<text text-anchor="middle" x="27" y="-229.8" font-family="Times,serif" font-size="14.00" fill="#000000">X</text>
</g>
<!-- T -->
<g id="node2" class="node">
<title>T</title>
<ellipse fill="none" stroke="#ffd700" cx="27" cy="-162" rx="27" ry="18"/>
<text text-anchor="middle" x="27" y="-157.8" font-family="Times,serif" font-size="14.00" fill="#000000">T</text>
</g>
<!-- X&#45;&gt;T -->
<g id="edge1" class="edge">
<title>X&#45;&gt;T</title>
<path fill="none" stroke="#000000" d="M27,-215.8314C27,-208.131 27,-198.9743 27,-190.4166"/>
<polygon fill="#000000" stroke="#000000" points="30.5001,-190.4132 27,-180.4133 23.5001,-190.4133 30.5001,-190.4132"/>
</g>
<!-- Y -->
<g id="node3" class="node">
<title>Y</title>
<ellipse fill="none" stroke="#000000" cx="27" cy="-90" rx="27" ry="18"/>
<text text-anchor="middle" x="27" y="-85.8" font-family="Times,serif" font-size="14.00" fill="#000000">Y</text>
</g>
<!-- T&#45;&gt;Y -->
<g id="edge2" class="edge">
<title>T&#45;&gt;Y</title>
<path fill="none" stroke="#000000" d="M27,-143.8314C27,-136.131 27,-126.9743 27,-118.4166"/>
<polygon fill="#000000" stroke="#000000" points="30.5001,-118.4132 27,-108.4133 23.5001,-118.4133 30.5001,-118.4132"/>
</g>
<!-- treatment -->
<g id="node4" class="node">
<title>treatment</title>
<ellipse fill="none" stroke="#ffd700" cx="115" cy="-90" rx="43.4974" ry="18"/>
<text text-anchor="middle" x="115" y="-85.8" font-family="Times,serif" font-size="14.00" fill="#000000">treatment</text>
</g>
<!-- days -->
<g id="node7" class="node">
<title>days</title>
<ellipse fill="none" stroke="#000000" cx="150" cy="-18" rx="27" ry="18"/>
<text text-anchor="middle" x="150" y="-13.8" font-family="Times,serif" font-size="14.00" fill="#000000">days</text>
</g>
<!-- treatment&#45;&gt;days -->
<g id="edge6" class="edge">
<title>treatment&#45;&gt;days</title>
<path fill="none" stroke="#000000" d="M123.6517,-72.2022C127.7082,-63.8574 132.6256,-53.7417 137.1085,-44.5197"/>
<polygon fill="#000000" stroke="#000000" points="140.3444,-45.8685 141.5686,-35.3446 134.0488,-42.8081 140.3444,-45.8685"/>
</g>
<!-- severity -->
<g id="node5" class="node">
<title>severity</title>
<ellipse fill="none" stroke="#000000" cx="151" cy="-234" rx="38.2024" ry="18"/>
<text text-anchor="middle" x="151" y="-229.8" font-family="Times,serif" font-size="14.00" fill="#000000">severity</text>
</g>
<!-- hospital -->
<g id="node6" class="node">
<title>hospital</title>
<ellipse fill="none" stroke="#000000" cx="117" cy="-162" rx="38.2197" ry="18"/>
<text text-anchor="middle" x="117" y="-157.8" font-family="Times,serif" font-size="14.00" fill="#000000">hospital</text>
</g>
<!-- severity&#45;&gt;hospital -->
<g id="edge3" class="edge">
<title>severity&#45;&gt;hospital</title>
<path fill="none" stroke="#000000" d="M142.5955,-216.2022C138.6841,-207.9192 133.9487,-197.8915 129.62,-188.7248"/>
<polygon fill="#000000" stroke="#000000" points="132.7428,-187.141 125.3078,-179.593 126.4131,-190.1301 132.7428,-187.141"/>
</g>
<!-- severity&#45;&gt;days -->
<g id="edge4" class="edge">
<title>severity&#45;&gt;days</title>
<path fill="none" stroke="#000000" d="M156.2179,-216.1679C159.0406,-205.7239 162.2906,-192.2239 164,-180 170.6504,-132.4442 174.2943,-119.4613 167,-72 165.6414,-63.1598 163.1005,-53.7811 160.3897,-45.3637"/>
<polygon fill="#000000" stroke="#000000" points="163.6214,-43.9979 157.0667,-35.674 157,-46.2687 163.6214,-43.9979"/>
</g>
<!-- hospital&#45;&gt;treatment -->
<g id="edge5" class="edge">
<title>hospital&#45;&gt;treatment</title>
<path fill="none" stroke="#000000" d="M116.4953,-143.8314C116.2814,-136.131 116.0271,-126.9743 115.7894,-118.4166"/>
<polygon fill="#000000" stroke="#000000" points="119.2879,-118.3122 115.5115,-108.4133 112.2906,-118.5066 119.2879,-118.3122"/>
</g>
</g>
</svg>
