<?xml version="1.0" encoding="UTF-8" standalone="no"?>
<!DOCTYPE svg PUBLIC "-//W3C//DTD SVG 1.1//EN"
 "http://www.w3.org/Graphics/SVG/1.1/DTD/svg11.dtd">
<!-- Generated by graphviz version 2.40.1 (20161225.0304)
 -->
<!-- Title: %3 Pages: 1 -->
<svg width="89pt" height="260pt"
 viewBox="0.00 0.00 89.00 260.00" xmlns="http://www.w3.org/2000/svg" xmlns:xlink="http://www.w3.org/1999/xlink">
<g id="graph0" class="graph" transform="scale(1 1) rotate(0) translate(4 256)">
<title>%3</title>
<polygon fill="#ffffff" stroke="transparent" points="-4,4 -4,-256 85,-256 85,4 -4,4"/>
<!-- T -->
<g id="node1" class="node">
<title>T</title>
<ellipse fill="none" stroke="#ffd700" cx="54" cy="-234" rx="27" ry="18"/>
<text text-anchor="middle" x="54" y="-229.8" font-family="Times,serif" font-size="14.00" fill="#000000">T</text>
</g>
<!-- X_1 -->
<g id="node2" class="node">
<title>X_1</title>
<ellipse fill="none" stroke="#ff0000" cx="27" cy="-162" rx="27" ry="18"/>
<text text-anchor="middle" x="27" y="-157.8" font-family="Times,serif" font-size="14.00" fill="#000000">X_1</text>
</g>
<!-- T&#45;&gt;X_1 -->
<g id="edge1" class="edge">
<title>T&#45;&gt;X_1</title>
<path fill="none" stroke="#000000" d="M47.3258,-216.2022C44.2524,-208.0064 40.5384,-198.1024 37.1305,-189.0145"/>
<polygon fill="#000000" stroke="#000000" points="40.3858,-187.7274 33.5974,-179.593 33.8315,-190.1853 40.3858,-187.7274"/>
</g>
<!-- X_2 -->
<g id="node4" class="node">
<title>X_2</title>
<ellipse fill="none" stroke="#ff0000" cx="54" cy="-18" rx="27" ry="18"/>
<text text-anchor="middle" x="54" y="-13.8" font-family="Times,serif" font-size="14.00" fill="#000000">X_2</text>
</g>
<!-- T&#45;&gt;X_2 -->
<g id="edge3" class="edge">
<title>T&#45;&gt;X_2</title>
<path fill="none" stroke="#000000" d="M57.7474,-216.0931C59.7466,-205.6241 61.9966,-192.1241 63,-180 66.9591,-132.1636 66.9591,-119.8364 63,-72 62.2945,-63.4753 60.9727,-54.2703 59.5551,-45.917"/>
<polygon fill="#000000" stroke="#000000" points="62.9689,-45.1258 57.7474,-35.9069 56.0803,-46.3698 62.9689,-45.1258"/>
</g>
<!-- Y -->
<g id="node3" class="node">
<title>Y</title>
<ellipse fill="none" stroke="#000000" cx="27" cy="-90" rx="27" ry="18"/>
<text text-anchor="middle" x="27" y="-85.8" font-family="Times,serif" font-size="14.00" fill="#000000">Y</text>
</g>
<!-- X_1&#45;&gt;Y -->
<g id="edge2" class="edge">
<title>X_1&#45;&gt;Y</title>
<path fill="none" stroke="#000000" d="M27,-143.8314C27,-136.131 27,-126.9743 27,-118.4166"/>
<polygon fill="#000000" stroke="#000000" points="30.5001,-118.4132 27,-108.4133 23.5001,-118.4133 30.5001,-118.4132"/>
</g>
<!-- Y&#45;&gt;X_2 -->
<g id="edge4" class="edge">
<title>Y&#45;&gt;X_2</title>
<path fill="none" stroke="#000000" d="M33.6742,-72.2022C36.7476,-64.0064 40.4616,-54.1024 43.8695,-45.0145"/>
<polygon fill="#000000" stroke="#000000" points="47.1685,-46.1853 47.4026,-35.593 40.6142,-43.7274 47.1685,-46.1853"/>
</g>
</g>
</svg>
