<?xml version="1.0" encoding="UTF-8" standalone="no"?>
<!DOCTYPE svg PUBLIC "-//W3C//DTD SVG 1.1//EN"
 "http://www.w3.org/Graphics/SVG/1.1/DTD/svg11.dtd">
<!-- Generated by graphviz version 2.50.0 (0)
 -->
<!-- Pages: 1 -->
<svg width="448pt" height="116pt"
 viewBox="0.00 0.00 447.80 116.00" xmlns="http://www.w3.org/2000/svg" xmlns:xlink="http://www.w3.org/1999/xlink">
<g id="graph0" class="graph" transform="scale(1 1) rotate(0) translate(4 112)">
<polygon fill="white" stroke="transparent" points="-4,4 -4,-112 443.8,-112 443.8,4 -4,4"/>
<!-- X -->
<g id="node1" class="node">
<title>X</title>
<ellipse fill="none" stroke="black" cx="27" cy="-90" rx="27" ry="18"/>
<text text-anchor="middle" x="27" y="-86.3" font-family="Times,serif" font-size="14.00">X</text>
</g>
<!-- Y -->
<g id="node2" class="node">
<title>Y</title>
<ellipse fill="none" stroke="black" cx="63" cy="-18" rx="27" ry="18"/>
<text text-anchor="middle" x="63" y="-14.3" font-family="Times,serif" font-size="14.00">Y</text>
</g>
<!-- X&#45;&gt;Y -->
<g id="edge1" class="edge">
<title>X&#45;&gt;Y</title>
<path fill="none" stroke="black" d="M35.35,-72.76C39.71,-64.28 45.15,-53.71 50.04,-44.2"/>
<polygon fill="black" stroke="black" points="53.23,-45.64 54.7,-35.15 47.01,-42.44 53.23,-45.64"/>
</g>
<!-- T -->
<g id="node3" class="node">
<title>T</title>
<ellipse fill="none" stroke="gold" cx="99" cy="-90" rx="27" ry="18"/>
<text text-anchor="middle" x="99" y="-86.3" font-family="Times,serif" font-size="14.00">T</text>
</g>
<!-- T&#45;&gt;Y -->
<g id="edge2" class="edge">
<title>T&#45;&gt;Y</title>
<path fill="none" stroke="black" d="M90.65,-72.76C86.29,-64.28 80.85,-53.71 75.96,-44.2"/>
<polygon fill="black" stroke="black" points="78.99,-42.44 71.3,-35.15 72.77,-45.64 78.99,-42.44"/>
</g>
<!-- email -->
<g id="node4" class="node">
<title>email</title>
<ellipse fill="none" stroke="gold" cx="175" cy="-90" rx="30.59" ry="18"/>
<text text-anchor="middle" x="175" y="-86.3" font-family="Times,serif" font-size="14.00">email</text>
</g>
<!-- payments -->
<g id="node6" class="node">
<title>payments</title>
<ellipse fill="none" stroke="black" cx="276" cy="-18" rx="44.69" ry="18"/>
<text text-anchor="middle" x="276" y="-14.3" font-family="Times,serif" font-size="14.00">payments</text>
</g>
<!-- email&#45;&gt;payments -->
<g id="edge5" class="edge">
<title>email&#45;&gt;payments</title>
<path fill="none" stroke="black" d="M194,-75.83C208.6,-65.72 229.04,-51.55 245.87,-39.89"/>
<polygon fill="black" stroke="black" points="248.06,-42.62 254.28,-34.05 244.07,-36.87 248.06,-42.62"/>
</g>
<!-- credit_limit -->
<g id="node5" class="node">
<title>credit_limit</title>
<ellipse fill="none" stroke="black" cx="276" cy="-90" rx="51.99" ry="18"/>
<text text-anchor="middle" x="276" y="-86.3" font-family="Times,serif" font-size="14.00">credit_limit</text>
</g>
<!-- credit_limit&#45;&gt;payments -->
<g id="edge3" class="edge">
<title>credit_limit&#45;&gt;payments</title>
<path fill="none" stroke="black" d="M276,-71.7C276,-63.98 276,-54.71 276,-46.11"/>
<polygon fill="black" stroke="black" points="279.5,-46.1 276,-36.1 272.5,-46.1 279.5,-46.1"/>
</g>
<!-- risk_score -->
<g id="node7" class="node">
<title>risk_score</title>
<ellipse fill="none" stroke="black" cx="393" cy="-90" rx="46.59" ry="18"/>
<text text-anchor="middle" x="393" y="-86.3" font-family="Times,serif" font-size="14.00">risk_score</text>
</g>
<!-- risk_score&#45;&gt;payments -->
<g id="edge4" class="edge">
<title>risk_score&#45;&gt;payments</title>
<path fill="none" stroke="black" d="M368.76,-74.5C351.42,-64.12 327.89,-50.05 308.87,-38.66"/>
<polygon fill="black" stroke="black" points="310.59,-35.62 300.21,-33.49 307,-41.62 310.59,-35.62"/>
</g>
</g>
</svg>
