<?xml version="1.0" encoding="UTF-8" standalone="no"?>
<!DOCTYPE svg PUBLIC "-//W3C//DTD SVG 1.1//EN"
 "http://www.w3.org/Graphics/SVG/1.1/DTD/svg11.dtd">
<!-- Generated by graphviz version 2.44.1 (20200629.0846)
 -->
<!-- Pages: 1 -->
<svg width="146pt" height="188pt"
 viewBox="0.00 0.00 146.15 188.00" xmlns="http://www.w3.org/2000/svg" xmlns:xlink="http://www.w3.org/1999/xlink">
<g id="graph0" class="graph" transform="scale(1 1) rotate(0) translate(4 184)">
<polygon fill="white" stroke="transparent" points="-4,4 -4,-184 142.15,-184 142.15,4 -4,4"/>
<!-- ability -->
<g id="node1" class="node">
<title>ability</title>
<ellipse fill="none" stroke="black" cx="105" cy="-162" rx="33.29" ry="18"/>
<text text-anchor="middle" x="105" y="-158.3" font-family="Times,serif" font-size="14.00">ability</text>
</g>
<!-- educ -->
<g id="node2" class="node">
<title>educ</title>
<ellipse fill="none" stroke="black" cx="50" cy="-90" rx="27.1" ry="18"/>
<text text-anchor="middle" x="50" y="-86.3" font-family="Times,serif" font-size="14.00">educ</text>
</g>
<!-- ability&#45;&gt;educ -->
<g id="edge1" class="edge">
<title>ability&#45;&gt;educ</title>
<path fill="none" stroke="black" d="M92.52,-145.12C85.39,-136.04 76.31,-124.49 68.38,-114.39"/>
<polygon fill="black" stroke="black" points="70.98,-112.04 62.05,-106.34 65.48,-116.37 70.98,-112.04"/>
</g>
<!-- wage -->
<g id="node3" class="node">
<title>wage</title>
<ellipse fill="none" stroke="black" cx="77" cy="-18" rx="29.5" ry="18"/>
<text text-anchor="middle" x="77" y="-14.3" font-family="Times,serif" font-size="14.00">wage</text>
</g>
<!-- ability&#45;&gt;wage -->
<g id="edge2" class="edge">
<title>ability&#45;&gt;wage</title>
<path fill="none" stroke="black" d="M101.62,-143.87C96.83,-119.56 88.01,-74.82 82.33,-46.01"/>
<polygon fill="black" stroke="black" points="85.76,-45.32 80.39,-36.19 78.89,-46.68 85.76,-45.32"/>
</g>
<!-- educ&#45;&gt;wage -->
<g id="edge3" class="edge">
<title>educ&#45;&gt;wage</title>
<path fill="none" stroke="black" d="M56.4,-72.41C59.51,-64.34 63.33,-54.43 66.83,-45.35"/>
<polygon fill="black" stroke="black" points="70.13,-46.55 70.46,-35.96 63.6,-44.03 70.13,-46.55"/>
</g>
<!-- qob -->
<g id="node4" class="node">
<title>qob</title>
<ellipse fill="none" stroke="black" cx="27" cy="-162" rx="27" ry="18"/>
<text text-anchor="middle" x="27" y="-158.3" font-family="Times,serif" font-size="14.00">qob</text>
</g>
<!-- qob&#45;&gt;educ -->
<g id="edge4" class="edge">
<title>qob&#45;&gt;educ</title>
<path fill="none" stroke="black" d="M32.57,-144.05C35.2,-136.06 38.39,-126.33 41.33,-117.4"/>
<polygon fill="black" stroke="black" points="44.69,-118.38 44.48,-107.79 38.04,-116.2 44.69,-118.38"/>
</g>
</g>
</svg>
