<?xml version="1.0" encoding="UTF-8" standalone="no"?>
<!DOCTYPE svg PUBLIC "-//W3C//DTD SVG 1.1//EN"
 "http://www.w3.org/Graphics/SVG/1.1/DTD/svg11.dtd">
<!-- Generated by graphviz version 2.40.1 (20161225.0304)
 -->
<!-- Title: %3 Pages: 1 -->
<svg width="188pt" height="188pt"
 viewBox="0.00 0.00 187.64 188.00" xmlns="http://www.w3.org/2000/svg" xmlns:xlink="http://www.w3.org/1999/xlink">
<g id="graph0" class="graph" transform="scale(1 1) rotate(0) translate(4 184)">
<title>%3</title>
<polygon fill="#ffffff" stroke="transparent" points="-4,4 -4,-184 183.6368,-184 183.6368,4 -4,4"/>
<!-- ability -->
<g id="node1" class="node">
<title>ability</title>
<ellipse fill="none" stroke="#000000" cx="146.9334" cy="-162" rx="32.9081" ry="18"/>
<text text-anchor="middle" x="146.9334" y="-157.8" font-family="Times,serif" font-size="14.00" fill="#000000">ability</text>
</g>
<!-- educ -->
<g id="node2" class="node">
<title>educ</title>
<ellipse fill="none" stroke="#000000" cx="91.9334" cy="-90" rx="27" ry="18"/>
<text text-anchor="middle" x="91.9334" y="-85.8" font-family="Times,serif" font-size="14.00" fill="#000000">educ</text>
</g>
<!-- ability&#45;&gt;educ -->
<g id="edge1" class="edge">
<title>ability&#45;&gt;educ</title>
<path fill="none" stroke="#000000" d="M134.177,-145.3008C127.1361,-136.0836 118.2646,-124.4699 110.4712,-114.2677"/>
<polygon fill="#000000" stroke="#000000" points="113.094,-111.9355 104.2422,-106.1134 107.5313,-116.1848 113.094,-111.9355"/>
</g>
<!-- wage -->
<g id="node3" class="node">
<title>wage</title>
<ellipse fill="none" stroke="#000000" cx="118.9334" cy="-18" rx="28.5325" ry="18"/>
<text text-anchor="middle" x="118.9334" y="-13.8" font-family="Times,serif" font-size="14.00" fill="#000000">wage</text>
</g>
<!-- ability&#45;&gt;wage -->
<g id="edge2" class="edge">
<title>ability&#45;&gt;wage</title>
<path fill="none" stroke="#000000" d="M143.4438,-144.0535C138.6651,-119.4774 130.0363,-75.1008 124.3968,-46.0974"/>
<polygon fill="#000000" stroke="#000000" points="127.8114,-45.3208 122.4669,-36.1727 120.9401,-46.6569 127.8114,-45.3208"/>
</g>
<!-- educ&#45;&gt;wage -->
<g id="edge3" class="edge">
<title>educ&#45;&gt;wage</title>
<path fill="none" stroke="#000000" d="M98.6075,-72.2022C101.681,-64.0064 105.395,-54.1024 108.8029,-45.0145"/>
<polygon fill="#000000" stroke="#000000" points="112.1018,-46.1853 112.336,-35.593 105.5475,-43.7274 112.1018,-46.1853"/>
</g>
<!-- instrument -->
<g id="node4" class="node">
<title>instrument</title>
<ellipse fill="none" stroke="#000000" cx="47.9334" cy="-162" rx="47.8668" ry="18"/>
<text text-anchor="middle" x="47.9334" y="-157.8" font-family="Times,serif" font-size="14.00" fill="#000000">instrument</text>
</g>
<!-- instrument&#45;&gt;educ -->
<g id="edge4" class="edge">
<title>instrument&#45;&gt;educ</title>
<path fill="none" stroke="#000000" d="M58.8098,-144.2022C64.0554,-135.6186 70.4459,-125.1613 76.2093,-115.7303"/>
<polygon fill="#000000" stroke="#000000" points="79.257,-117.4551 81.4851,-107.0972 73.284,-113.805 79.257,-117.4551"/>
</g>
</g>
</svg>
