<?xml version="1.0" encoding="UTF-8" standalone="no"?>
<!DOCTYPE svg PUBLIC "-//W3C//DTD SVG 1.1//EN"
 "http://www.w3.org/Graphics/SVG/1.1/DTD/svg11.dtd">
<!-- Generated by graphviz version 2.40.1 (20161225.0304)
 -->
<!-- Title: %3 Pages: 1 -->
<svg width="95pt" height="188pt"
 viewBox="0.00 0.00 94.70 188.00" xmlns="http://www.w3.org/2000/svg" xmlns:xlink="http://www.w3.org/1999/xlink">
<g id="graph0" class="graph" transform="scale(1 1) rotate(0) translate(4 184)">
<title>%3</title>
<polygon fill="#ffffff" stroke="transparent" points="-4,4 -4,-184 90.7034,-184 90.7034,4 -4,4"/>
<!-- ability -->
<g id="node1" class="node">
<title>ability</title>
<ellipse fill="none" stroke="#000000" cx="54" cy="-162" rx="32.9081" ry="18"/>
<text text-anchor="middle" x="54" y="-157.8" font-family="Times,serif" font-size="14.00" fill="#000000">ability</text>
</g>
<!-- educ -->
<g id="node2" class="node">
<title>educ</title>
<ellipse fill="none" stroke="#000000" cx="27" cy="-90" rx="27" ry="18"/>
<text text-anchor="middle" x="27" y="-85.8" font-family="Times,serif" font-size="14.00" fill="#000000">educ</text>
</g>
<!-- ability&#45;&gt;educ -->
<g id="edge1" class="edge">
<title>ability&#45;&gt;educ</title>
<path fill="none" stroke="#000000" d="M47.3258,-144.2022C44.2524,-136.0064 40.5384,-126.1024 37.1305,-117.0145"/>
<polygon fill="#000000" stroke="#000000" points="40.3858,-115.7274 33.5974,-107.593 33.8315,-118.1853 40.3858,-115.7274"/>
</g>
<!-- wage -->
<g id="node3" class="node">
<title>wage</title>
<ellipse fill="none" stroke="#000000" cx="54" cy="-18" rx="28.5325" ry="18"/>
<text text-anchor="middle" x="54" y="-13.8" font-family="Times,serif" font-size="14.00" fill="#000000">wage</text>
</g>
<!-- ability&#45;&gt;wage -->
<g id="edge2" class="edge">
<title>ability&#45;&gt;wage</title>
<path fill="none" stroke="#000000" d="M57.7474,-144.0931C59.7466,-133.6241 61.9966,-120.1241 63,-108 64.3197,-92.0545 64.3197,-87.9455 63,-72 62.2945,-63.4753 60.9727,-54.2703 59.5551,-45.917"/>
<polygon fill="#000000" stroke="#000000" points="62.9689,-45.1258 57.7474,-35.9069 56.0803,-46.3698 62.9689,-45.1258"/>
</g>
<!-- educ&#45;&gt;wage -->
<g id="edge3" class="edge">
<title>educ&#45;&gt;wage</title>
<path fill="none" stroke="#000000" d="M33.6742,-72.2022C36.7476,-64.0064 40.4616,-54.1024 43.8695,-45.0145"/>
<polygon fill="#000000" stroke="#000000" points="47.1685,-46.1853 47.4026,-35.593 40.6142,-43.7274 47.1685,-46.1853"/>
</g>
</g>
</svg>
