<?xml version="1.0" encoding="UTF-8" standalone="no"?>
<!DOCTYPE svg PUBLIC "-//W3C//DTD SVG 1.1//EN"
 "http://www.w3.org/Graphics/SVG/1.1/DTD/svg11.dtd">
<!-- Generated by graphviz version 2.40.1 (20161225.0304)
 -->
<!-- Title: %3 Pages: 1 -->
<svg width="146pt" height="188pt"
 viewBox="0.00 0.00 145.70 188.00" xmlns="http://www.w3.org/2000/svg" xmlns:xlink="http://www.w3.org/1999/xlink">
<g id="graph0" class="graph" transform="scale(1 1) rotate(0) translate(4 184)">
<title>%3</title>
<polygon fill="#ffffff" stroke="transparent" points="-4,4 -4,-184 141.7034,-184 141.7034,4 -4,4"/>
<!-- ability -->
<g id="node1" class="node">
<title>ability</title>
<ellipse fill="none" stroke="#000000" cx="105" cy="-162" rx="32.9081" ry="18"/>
<text text-anchor="middle" x="105" y="-157.8" font-family="Times,serif" font-size="14.00" fill="#000000">ability</text>
</g>
<!-- educ -->
<g id="node2" class="node">
<title>educ</title>
<ellipse fill="none" stroke="#000000" cx="50" cy="-90" rx="27" ry="18"/>
<text text-anchor="middle" x="50" y="-85.8" font-family="Times,serif" font-size="14.00" fill="#000000">educ</text>
</g>
<!-- ability&#45;&gt;educ -->
<g id="edge1" class="edge">
<title>ability&#45;&gt;educ</title>
<path fill="none" stroke="#000000" d="M92.2437,-145.3008C85.2028,-136.0836 76.3312,-124.4699 68.5378,-114.2677"/>
<polygon fill="#000000" stroke="#000000" points="71.1606,-111.9355 62.3088,-106.1134 65.5979,-116.1848 71.1606,-111.9355"/>
</g>
<!-- wage -->
<g id="node3" class="node">
<title>wage</title>
<ellipse fill="none" stroke="#000000" cx="77" cy="-18" rx="28.5325" ry="18"/>
<text text-anchor="middle" x="77" y="-13.8" font-family="Times,serif" font-size="14.00" fill="#000000">wage</text>
</g>
<!-- ability&#45;&gt;wage -->
<g id="edge2" class="edge">
<title>ability&#45;&gt;wage</title>
<path fill="none" stroke="#000000" d="M101.5104,-144.0535C96.7317,-119.4774 88.1029,-75.1008 82.4634,-46.0974"/>
<polygon fill="#000000" stroke="#000000" points="85.878,-45.3208 80.5336,-36.1727 79.0067,-46.6569 85.878,-45.3208"/>
</g>
<!-- educ&#45;&gt;wage -->
<g id="edge3" class="edge">
<title>educ&#45;&gt;wage</title>
<path fill="none" stroke="#000000" d="M56.6742,-72.2022C59.7476,-64.0064 63.4616,-54.1024 66.8695,-45.0145"/>
<polygon fill="#000000" stroke="#000000" points="70.1685,-46.1853 70.4026,-35.593 63.6142,-43.7274 70.1685,-46.1853"/>
</g>
<!-- qob -->
<g id="node4" class="node">
<title>qob</title>
<ellipse fill="none" stroke="#000000" cx="27" cy="-162" rx="27" ry="18"/>
<text text-anchor="middle" x="27" y="-157.8" font-family="Times,serif" font-size="14.00" fill="#000000">qob</text>
</g>
<!-- qob&#45;&gt;educ -->
<g id="edge4" class="edge">
<title>qob&#45;&gt;educ</title>
<path fill="none" stroke="#000000" d="M32.6854,-144.2022C35.2563,-136.1541 38.3534,-126.4588 41.2132,-117.5067"/>
<polygon fill="#000000" stroke="#000000" points="44.5913,-118.4334 44.3003,-107.8425 37.9232,-116.3033 44.5913,-118.4334"/>
</g>
</g>
</svg>
