<?xml version="1.0" encoding="UTF-8" standalone="no"?>
<!DOCTYPE svg PUBLIC "-//W3C//DTD SVG 1.1//EN"
 "http://www.w3.org/Graphics/SVG/1.1/DTD/svg11.dtd">
<!-- Generated by graphviz version 2.44.1 (20200629.0846)
 -->
<!-- Pages: 1 -->
<svg width="190pt" height="188pt"
 viewBox="0.00 0.00 189.89 188.00" xmlns="http://www.w3.org/2000/svg" xmlns:xlink="http://www.w3.org/1999/xlink">
<g id="graph0" class="graph" transform="scale(1 1) rotate(0) translate(4 184)">
<polygon fill="white" stroke="transparent" points="-4,4 -4,-184 185.89,-184 185.89,4 -4,4"/>
<!-- ability -->
<g id="node1" class="node">
<title>ability</title>
<ellipse fill="none" stroke="black" cx="148.75" cy="-162" rx="33.29" ry="18"/>
<text text-anchor="middle" x="148.75" y="-158.3" font-family="Times,serif" font-size="14.00">ability</text>
</g>
<!-- educ -->
<g id="node2" class="node">
<title>educ</title>
<ellipse fill="none" stroke="black" cx="93.75" cy="-90" rx="27.1" ry="18"/>
<text text-anchor="middle" x="93.75" y="-86.3" font-family="Times,serif" font-size="14.00">educ</text>
</g>
<!-- ability&#45;&gt;educ -->
<g id="edge1" class="edge">
<title>ability&#45;&gt;educ</title>
<path fill="none" stroke="black" d="M136.27,-145.12C129.13,-136.04 120.06,-124.49 112.13,-114.39"/>
<polygon fill="black" stroke="black" points="114.73,-112.04 105.8,-106.34 109.22,-116.37 114.73,-112.04"/>
</g>
<!-- wage -->
<g id="node3" class="node">
<title>wage</title>
<ellipse fill="none" stroke="black" cx="120.75" cy="-18" rx="29.5" ry="18"/>
<text text-anchor="middle" x="120.75" y="-14.3" font-family="Times,serif" font-size="14.00">wage</text>
</g>
<!-- ability&#45;&gt;wage -->
<g id="edge2" class="edge">
<title>ability&#45;&gt;wage</title>
<path fill="none" stroke="black" d="M145.37,-143.87C140.58,-119.56 131.75,-74.82 126.07,-46.01"/>
<polygon fill="black" stroke="black" points="129.5,-45.32 124.14,-36.19 122.64,-46.68 129.5,-45.32"/>
</g>
<!-- educ&#45;&gt;wage -->
<g id="edge3" class="edge">
<title>educ&#45;&gt;wage</title>
<path fill="none" stroke="black" d="M100.14,-72.41C103.26,-64.34 107.08,-54.43 110.58,-45.35"/>
<polygon fill="black" stroke="black" points="113.87,-46.55 114.21,-35.96 107.34,-44.03 113.87,-46.55"/>
</g>
<!-- instrument -->
<g id="node4" class="node">
<title>instrument</title>
<ellipse fill="none" stroke="black" cx="48.75" cy="-162" rx="48.99" ry="18"/>
<text text-anchor="middle" x="48.75" y="-158.3" font-family="Times,serif" font-size="14.00">instrument</text>
</g>
<!-- instrument&#45;&gt;educ -->
<g id="edge4" class="edge">
<title>instrument&#45;&gt;educ</title>
<path fill="none" stroke="black" d="M59.41,-144.41C64.92,-135.83 71.77,-125.19 77.89,-115.67"/>
<polygon fill="black" stroke="black" points="81,-117.29 83.47,-106.99 75.12,-113.51 81,-117.29"/>
</g>
</g>
</svg>
