<?xml version="1.0" encoding="UTF-8" standalone="no"?>
<!DOCTYPE svg PUBLIC "-//W3C//DTD SVG 1.1//EN"
 "http://www.w3.org/Graphics/SVG/1.1/DTD/svg11.dtd">
<!-- Generated by graphviz version 2.40.1 (20161225.0304)
 -->
<!-- Title: %3 Pages: 1 -->
<svg width="247pt" height="188pt"
 viewBox="0.00 0.00 247.08 188.00" xmlns="http://www.w3.org/2000/svg" xmlns:xlink="http://www.w3.org/1999/xlink">
<g id="graph0" class="graph" transform="scale(1 1) rotate(0) translate(4 184)">
<title>%3</title>
<polygon fill="#ffffff" stroke="transparent" points="-4,4 -4,-184 243.083,-184 243.083,4 -4,4"/>
<!-- push assigned -->
<g id="node1" class="node">
<title>push assigned</title>
<ellipse fill="none" stroke="#000000" cx="59.48" cy="-162" rx="59.4599" ry="18"/>
<text text-anchor="middle" x="59.48" y="-157.8" font-family="Times,serif" font-size="14.00" fill="#000000">push assigned</text>
</g>
<!-- push delivered -->
<g id="node2" class="node">
<title>push delivered</title>
<ellipse fill="none" stroke="#000000" cx="128.48" cy="-90" rx="61.8481" ry="18"/>
<text text-anchor="middle" x="128.48" y="-85.8" font-family="Times,serif" font-size="14.00" fill="#000000">push delivered</text>
</g>
<!-- in app purchase -->
<g id="node3" class="node">
<title>in app purchase</title>
<ellipse fill="none" stroke="#000000" cx="173.48" cy="-18" rx="65.7062" ry="18"/>
<text text-anchor="middle" x="173.48" y="-13.8" font-family="Times,serif" font-size="14.00" fill="#000000">in app purchase</text>
</g>
<!-- push delivered&#45;&gt;in app purchase -->
<g id="edge1" class="edge">
<title>push delivered&#45;&gt;in app purchase</title>
<path fill="none" stroke="#000000" d="M139.6036,-72.2022C144.85,-63.8079 151.2164,-53.6218 157.0076,-44.3558"/>
<polygon fill="#000000" stroke="#000000" points="159.9963,-46.1776 162.3284,-35.8425 154.0603,-42.4675 159.9963,-46.1776"/>
</g>
<!-- income -->
<g id="node4" class="node">
<title>income</title>
<ellipse fill="none" stroke="#0000ff" cx="173.48" cy="-162" rx="36.2732" ry="18"/>
<text text-anchor="middle" x="173.48" y="-157.8" font-family="Times,serif" font-size="14.00" fill="#000000">income</text>
</g>
<!-- income&#45;&gt;push delivered -->
<g id="edge3" class="edge">
<title>income&#45;&gt;push delivered</title>
<path fill="none" stroke="#000000" d="M162.5867,-144.5708C157.3039,-136.1184 150.8457,-125.7851 144.9756,-116.3931"/>
<polygon fill="#000000" stroke="#000000" points="147.8535,-114.3939 139.5855,-107.7689 141.9175,-118.1039 147.8535,-114.3939"/>
</g>
<!-- income&#45;&gt;in app purchase -->
<g id="edge2" class="edge">
<title>income&#45;&gt;in app purchase</title>
<path fill="none" stroke="#000000" d="M184.2576,-144.7385C190.0168,-134.4847 196.5168,-120.9847 199.48,-108 203.0397,-92.401 203.0397,-87.599 199.48,-72 197.3607,-62.7132 193.4322,-53.1628 189.2595,-44.725"/>
<polygon fill="#000000" stroke="#000000" points="192.2859,-42.9603 184.5281,-35.7445 186.0928,-46.2231 192.2859,-42.9603"/>
</g>
</g>
</svg>
