<?xml version="1.0" encoding="UTF-8" standalone="no"?>
<!DOCTYPE svg PUBLIC "-//W3C//DTD SVG 1.1//EN"
 "http://www.w3.org/Graphics/SVG/1.1/DTD/svg11.dtd">
<!-- Generated by graphviz version 2.40.1 (20161225.0304)
 -->
<!-- Title: %3 Pages: 1 -->
<svg width="218pt" height="188pt"
 viewBox="0.00 0.00 217.62 188.00" xmlns="http://www.w3.org/2000/svg" xmlns:xlink="http://www.w3.org/1999/xlink">
<g id="graph0" class="graph" transform="scale(1 1) rotate(0) translate(4 184)">
<title>%3</title>
<polygon fill="#ffffff" stroke="transparent" points="-4,4 -4,-184 213.6163,-184 213.6163,4 -4,4"/>
<!-- push assigned -->
<g id="node1" class="node">
<title>push assigned</title>
<ellipse fill="none" stroke="#000000" cx="59.48" cy="-162" rx="59.4599" ry="18"/>
<text text-anchor="middle" x="59.48" y="-157.8" font-family="Times,serif" font-size="14.00" fill="#000000">push assigned</text>
</g>
<!-- push delivered -->
<g id="node2" class="node">
<title>push delivered</title>
<ellipse fill="none" stroke="#000000" cx="83.48" cy="-90" rx="61.8481" ry="18"/>
<text text-anchor="middle" x="83.48" y="-85.8" font-family="Times,serif" font-size="14.00" fill="#000000">push delivered</text>
</g>
<!-- push assigned&#45;&gt;push delivered -->
<g id="edge1" class="edge">
<title>push assigned&#45;&gt;push delivered</title>
<path fill="none" stroke="#000000" d="M65.5362,-143.8314C68.1312,-136.0463 71.2223,-126.7729 74.1017,-118.1347"/>
<polygon fill="#000000" stroke="#000000" points="77.5003,-119.0069 77.3422,-108.4133 70.8595,-116.7933 77.5003,-119.0069"/>
</g>
<!-- in app purchase -->
<g id="node3" class="node">
<title>in app purchase</title>
<ellipse fill="none" stroke="#000000" cx="128.48" cy="-18" rx="65.7062" ry="18"/>
<text text-anchor="middle" x="128.48" y="-13.8" font-family="Times,serif" font-size="14.00" fill="#000000">in app purchase</text>
</g>
<!-- push delivered&#45;&gt;in app purchase -->
<g id="edge2" class="edge">
<title>push delivered&#45;&gt;in app purchase</title>
<path fill="none" stroke="#000000" d="M94.6036,-72.2022C99.85,-63.8079 106.2164,-53.6218 112.0076,-44.3558"/>
<polygon fill="#000000" stroke="#000000" points="114.9963,-46.1776 117.3284,-35.8425 109.0603,-42.4675 114.9963,-46.1776"/>
</g>
<!-- income -->
<g id="node4" class="node">
<title>income</title>
<ellipse fill="none" stroke="#0000ff" cx="173.48" cy="-162" rx="36.2732" ry="18"/>
<text text-anchor="middle" x="173.48" y="-157.8" font-family="Times,serif" font-size="14.00" fill="#000000">income</text>
</g>
<!-- income&#45;&gt;push delivered -->
<g id="edge4" class="edge">
<title>income&#45;&gt;push delivered</title>
<path fill="none" stroke="#000000" d="M153.9513,-146.3771C141.9637,-136.787 126.3802,-124.3202 112.9166,-113.5493"/>
<polygon fill="#000000" stroke="#000000" points="114.8538,-110.6169 104.8586,-107.1029 110.4809,-116.083 114.8538,-110.6169"/>
</g>
<!-- income&#45;&gt;in app purchase -->
<g id="edge3" class="edge">
<title>income&#45;&gt;in app purchase</title>
<path fill="none" stroke="#000000" d="M170.9448,-143.7268C168.0824,-125.2955 162.7207,-96.1857 154.48,-72 151.4078,-62.9835 147.208,-53.5101 143.0798,-45.0596"/>
<polygon fill="#000000" stroke="#000000" points="146.1505,-43.3758 138.5135,-36.0323 139.9041,-46.5354 146.1505,-43.3758"/>
</g>
</g>
</svg>
