<?xml version="1.0" encoding="UTF-8" standalone="no"?>
<!DOCTYPE svg PUBLIC "-//W3C//DTD SVG 1.1//EN"
 "http://www.w3.org/Graphics/SVG/1.1/DTD/svg11.dtd">
<!-- Generated by graphviz version 2.50.0 (0)
 -->
<!-- Pages: 1 -->
<svg width="90pt" height="260pt"
 viewBox="0.00 0.00 90.00 260.00" xmlns="http://www.w3.org/2000/svg" xmlns:xlink="http://www.w3.org/1999/xlink">
<g id="graph0" class="graph" transform="scale(1 1) rotate(0) translate(4 256)">
<polygon fill="white" stroke="transparent" points="-4,4 -4,-256 86,-256 86,4 -4,4"/>
<!-- T -->
<g id="node1" class="node">
<title>T</title>
<ellipse fill="none" stroke="black" cx="55" cy="-90" rx="27" ry="18"/>
<text text-anchor="middle" x="55" y="-86.3" font-family="Times,serif" font-size="14.00">T</text>
</g>
<!-- Y -->
<g id="node2" class="node">
<title>Y</title>
<ellipse fill="none" stroke="black" cx="27" cy="-18" rx="27" ry="18"/>
<text text-anchor="middle" x="27" y="-14.3" font-family="Times,serif" font-size="14.00">Y</text>
</g>
<!-- T&#45;&gt;Y -->
<g id="edge1" class="edge">
<title>T&#45;&gt;Y</title>
<path fill="none" stroke="black" d="M48.36,-72.41C45.09,-64.22 41.06,-54.14 37.38,-44.95"/>
<polygon fill="black" stroke="black" points="40.55,-43.45 33.59,-35.47 34.05,-46.05 40.55,-43.45"/>
</g>
<!-- X -->
<g id="node3" class="node">
<title>X</title>
<ellipse fill="none" stroke="black" cx="27" cy="-234" rx="27" ry="18"/>
<text text-anchor="middle" x="27" y="-230.3" font-family="Times,serif" font-size="14.00">X</text>
</g>
<!-- X&#45;&gt;Y -->
<g id="edge2" class="edge">
<title>X&#45;&gt;Y</title>
<path fill="none" stroke="black" d="M23.75,-215.89C21.95,-205.54 19.91,-192.06 19,-180 15.41,-132.13 15.41,-119.87 19,-72 19.64,-63.52 20.84,-54.34 22.12,-46.04"/>
<polygon fill="black" stroke="black" points="25.58,-46.55 23.75,-36.11 18.68,-45.41 25.58,-46.55"/>
</g>
<!-- e(x) -->
<g id="node4" class="node">
<title>e(x)</title>
<ellipse fill="none" stroke="black" cx="55" cy="-162" rx="27" ry="18"/>
<text text-anchor="middle" x="55" y="-158.3" font-family="Times,serif" font-size="14.00">e(x)</text>
</g>
<!-- X&#45;&gt;e(x) -->
<g id="edge3" class="edge">
<title>X&#45;&gt;e(x)</title>
<path fill="none" stroke="black" d="M33.64,-216.41C36.91,-208.22 40.94,-198.14 44.62,-188.95"/>
<polygon fill="black" stroke="black" points="47.95,-190.05 48.41,-179.47 41.45,-187.45 47.95,-190.05"/>
</g>
<!-- e(x)&#45;&gt;T -->
<g id="edge4" class="edge">
<title>e(x)&#45;&gt;T</title>
<path fill="none" stroke="black" d="M55,-143.7C55,-135.98 55,-126.71 55,-118.11"/>
<polygon fill="black" stroke="black" points="58.5,-118.1 55,-108.1 51.5,-118.1 58.5,-118.1"/>
</g>
</g>
</svg>
